<svg width="1920" height="1080" fill="none" xmlns="http://www.w3.org/2000/svg"><g clip-path="url(#clip0_1_493)"><path fill="#266526" d="M0 0h1920v1080H0z"/><path d="M503.379 720.238l31.157 15.978-79.49-9.986v-50.331l32.355-5.992v-10.386l21.171-3.196 2.397 19.574-55.923 25.165 17.176 19.174h31.157z" fill="#407E40"/><path d="M455.046 701.064l17.176 19.174h31.157l31.157 15.978-79.49-9.986v-25.166zm0 0l55.923-25.165-2.397-19.574-21.171 3.196v10.386l-32.355 5.992v25.165z" stroke="#C9EBC9" stroke-width=".429"/><path d="M447.056 724.233l-28.361-3.595-1.846-11.784-1.846-11.784-1.501-9.587h-4.394l-1.198-11.584 39.146-8.788v57.122z" fill="#407E40"/><path d="M413.502 687.483h-4.394l-1.198-11.584 39.146-8.788v17.177m-33.554 3.195l33.554-3.195m-33.554 3.195l1.501 9.587m32.053-12.782v12.782m0 0h-32.053m32.053 0v11.784m-32.053-11.784l1.846 11.784m0 0l1.846 11.784 28.361 3.595v-15.379m-30.207 0h30.207" stroke="#C9EBC9" stroke-width=".429"/><path d="M1231.14 663.038v-37.907c-4.44 0-8.82.129-13.14.37v37.321l13.14.216zm-13.14-.216v-37.321c-4.75.264-9.42.662-13.98 1.171v35.921l13.98.229zm-13.98-.229v-35.921a269.03 269.03 0 00-17.33 2.514l5.31 33.209 12.02.198z" fill="#407E40"/><path fill-rule="evenodd" clip-rule="evenodd" d="M1449.45 693.056l-22.92 15.374-9.51-4.783-15.37-7.736-14.96-7.526-14.95-7.525-15.93-8.018-15.94-8.018-20.12-.331-17.33-.284-15.66-.257-14.25-.235-13.98-.229-13.71-.225-13.68-.225v-37.907c4.59 0 9.16.13 13.68.37 4.63.245 9.21.605 13.71 1.061 4.75.48 9.42 1.066 13.98 1.733 4.89.716 9.65 1.526 14.25 2.4a358.14 358.14 0 0132.99 7.903c8.41 2.449 15.29 4.809 20.12 6.659 5.87.751 16.1 2.645 27.68 5.882 5.58 1.561 11.47 3.434 17.33 5.642 5.32 2.007 10.63 4.29 15.65 6.866.75.386 1.5.778 2.24 1.177 4.17 2.253 8.19 4.495 12.02 6.681 5.26 3.008 10.15 5.91 14.53 8.584 9.51 5.798 16.65 10.529 20.13 12.967zm-262.76-63.87l5.31 33.209-5.31-.087-5.59 2.506-12.58 5.639-22.36 10.024-8.24-16.911 22.87-9.624-7.73-16.512a253.89 253.89 0 0113.51-3.868c6.22-1.602 12.97-3.1 20.12-4.376z" fill="#407E40"/><path d="M1153.06 637.43c-10.53 3.339-18.64 6.719-23.39 9.225l8.25 16.911 22.87-9.624-7.73-16.512z" fill="#407E40"/><path d="M1339.87 664.824l-20.12-.331m20.12.331v-19.567m0 19.567l15.94 8.018m-124.67-47.711v37.907m0-37.907c-4.44 0-8.82.129-13.14.37m13.14-.37c4.59 0 9.16.13 13.68.37m95.05 19.756c-4.83-1.85-11.71-4.21-20.12-6.659m20.12 6.659c5.87.751 16.1 2.645 27.68 5.882m-136.41 11.899l-13.14-.216m13.14.216l13.68.225M1218 625.501v37.321m0-37.321c-4.75.264-9.42.662-13.98 1.171m13.98 36.15l-13.98-.229m0-35.921v35.921m0-35.921a269.03 269.03 0 00-17.33 2.514m17.33 33.407l-12.02-.198m-5.31-33.209l5.31 33.209m-5.31-33.209a273.612 273.612 0 00-20.12 4.376m25.43 28.833l-5.31-.087-5.59 2.506m-14.53-31.252l14.53 31.252m-14.53-31.252a253.89 253.89 0 00-13.51 3.868m28.04 27.384l-12.58 5.639m-15.46-33.023c-10.53 3.339-18.64 6.719-23.39 9.225l8.25 16.911m15.14-26.136l7.73 16.512m7.73 16.511l-22.36 10.024-8.24-16.911m30.6 6.887l-7.73-16.511m0 0l-22.87 9.624m106.9-38.065v37.762m0-37.762c4.63.245 9.21.605 13.71 1.061m-13.71 36.701l13.71.225m0-36.926v36.926m0-36.926c4.75.48 9.42 1.066 13.98 1.733m-13.98 35.193l13.98.229m0-35.422v35.422m0-35.422c4.89.716 9.65 1.526 14.25 2.4m-14.25 33.022l14.25.235m0-33.257v33.257m0-33.257a358.14 358.14 0 0115.66 3.34m-15.66 29.917l15.66.257m17.33-25.611v25.895m0-25.895a355.98 355.98 0 00-17.33-4.563m17.33 30.458l-17.33-.284m0-30.174v30.174m65.13-13.07l-11.74 21.703m11.74-21.703c5.58 1.561 11.47 3.434 17.33 5.642m-29.07 16.061l15.93 8.018m13.14-24.079l-13.14 24.079m13.14-24.079c5.32 2.007 10.63 4.29 15.65 6.866m-28.79 17.213l14.95 7.525m30.33 15.262l9.51 4.783 22.92-15.374c-3.48-2.438-10.62-7.169-20.13-12.967m-12.3 23.558l12.3-23.558m-12.3 23.558l-15.37-7.736m27.67-15.822a592.212 592.212 0 00-14.53-8.584m-13.14 24.406l13.14-24.406m-13.14 24.406l-14.96-7.526m28.1-16.88a591.089 591.089 0 00-12.02-6.681c-.74-.399-1.49-.791-2.24-1.177m-13.84 24.738l13.84-24.738" stroke="#C9EBC9" stroke-width=".429"/><path d="M1119.89 650.289c-7.8 2.776-17.26 6.855-27.4 12.083l8.67 17.2 26.69-12.092-7.96-17.191z" fill="#407E40"/><path fill-rule="evenodd" clip-rule="evenodd" d="M1054.76 722.407l-12.58-26.275c4.05-3.564 8.27-6.972 12.58-10.212a240.41 240.41 0 0111.46-8.107c4.19-2.79 8.4-5.421 12.58-7.881l16.21 33.737-13.42 6.246-12.42 5.783-14.41 6.709zm55.06-25.634l26-12.102-7.97-17.191-26.69 12.092 8.66 17.201z" fill="#407E40"/><path d="M1078.8 669.932l16.21 33.737 14.81-6.896-8.66-17.201-8.67-17.2a279.968 279.968 0 00-13.69 7.56z" fill="#407E40"/><path d="M1054.76 685.92c-4.31 3.24-8.53 6.648-12.58 10.212l12.58 26.275 14.41-6.709m-14.41-29.778l14.41 29.778m-14.41-29.778a240.41 240.41 0 0111.46-8.107m2.95 37.885l12.42-5.783m0 0l-15.37-32.102m15.37 32.102l13.42-6.246m-28.79-25.856c4.19-2.79 8.4-5.421 12.58-7.881m0 0l16.21 33.737m-16.21-33.737c4.64-2.734 9.23-5.258 13.69-7.56m2.52 41.297l14.81-6.896m0 0l26-12.102-7.97-17.191m-18.03 29.293l-8.66-17.201m-8.67-17.2c10.14-5.228 19.6-9.307 27.4-12.083l7.96 17.191m-35.36-5.108l8.67 17.2m0 0l26.69-12.092" stroke="#C9EBC9" stroke-width=".429"/><path fill-rule="evenodd" clip-rule="evenodd" d="M1471.25 702.559l-8.94-4.193-19.29 13 14.03 20.823 14.2-29.63zm-29.35 39.934l-14.53-20.576-28.52 19.217 43.05 1.359z" fill="#407E40"/><path d="M1451.96 742.811l5.09-10.622-14.03-20.823-15.65 10.551 14.53 20.576 10.06.318z" fill="#407E40"/><path d="M1443.02 711.366l19.29-13 8.94 4.193-14.2 29.63m-14.03-20.823l14.03 20.823m-14.03-20.823l-15.65 10.551m29.68 10.272l-5.09 10.622-10.06-.318m0 0l-43.05-1.359 28.52-19.217m14.53 20.576l-14.53-20.576" stroke="#C9EBC9" stroke-width=".429"/><path d="M1216.88 672.886l-11.18-.235-13.71 20.965 8.68 5.59h15.73l.48-26.32zm17.05.358l-17.05-.358-.48 26.32h17.13l.4-25.962z" fill="#407E40"/><path fill-rule="evenodd" clip-rule="evenodd" d="M1392.7 731.352l24.04-16.213-28.56-14.535-14.48-7.374v16.319h-20.41v-26.705l-14.53-7.398-3.92-.082-16.77-.352-17.89-.376-15.93-.335-18.45-.387-15.65-.329-16.22-.341-.4 25.962h-32.86l-8.68-5.59-15.36 23.48 13.14 8.665 7.27.2 18.86.52 17.2.458 17.05.485 15.65.432 18.45.508 15.93.439 17.89.493 16.77.462 18.45.508 20.41.562 14.48.399 4.52.125z" fill="#407E40"/><path d="M1373.7 693.23l-20.41-10.386v26.705h20.41V693.23z" fill="#407E40"/><path d="M1388.18 700.604l28.56 14.535-24.04 16.213-4.52-.125m0-30.623v30.623m0-30.623l-14.48-7.374m14.48 37.997l-14.48-.399m0 0l-20.41-.562m20.41.562v-21.279m0-16.319l-20.41-10.386m20.41 10.386v16.319m-20.41-26.705l-14.53-7.398-3.92-.082m18.45 7.48v21.114m0 26.308l-18.45-.508m18.45.508v-20.717m-18.45-34.185l-16.77-.352m16.77.352v25.24m0 29.154l-16.77-.462m16.77.462v-25.8m-16.77-28.946v54.284m0-54.284l-17.89-.376m17.89 54.66l-17.89-.493m0 0v-54.167m0 54.167l-15.93-.439m15.93-53.728l-15.93-.335m0 0v54.063m0-54.063l-18.45-.387m18.45 54.45l-18.45-.508m0 0v-53.942m0 53.942l-15.65-.432m15.65-53.51l-15.65-.329m0 0v53.839m0-53.839l-16.22-.341m16.22 54.18l-17.05-.485m.83-53.695l-17.05-.358m17.05.358l-.4 25.962m-.43 27.733l-17.2-.458m17.2.458l.43-27.733m-16.65-26.32l-11.18-.235-13.71 20.965m24.89-20.73l-.48 26.32m-.5 27.275l-18.86-.52m18.86.52l.5-27.275m-24.41-5.59l-15.36 23.48 13.14 8.665 7.27.2m-5.05-32.345l8.68 5.59m0 0l-3.63 26.755m3.63-26.755h15.73m0 0h17.13m0 1.398h101.31m0 0v3.354m0 0h18.45m0 0v5.591m0 0h20.41" stroke="#C9EBC9" stroke-width=".429"/><path d="M1140.01 693.616l8.67 17.89 13.69 9.783-11.04 17.89-8.63 13.976-7.6 12.299-4.31 6.988h-53.95l-1.53-3.354-9.04-19.846-8.16-17.89 21.84-10.063 12.14-5.59 13.9-6.405 13.9-6.405 20.12-9.273z" fill="#407E40"/><path d="M1148.68 711.506l-8.67-17.89-20.12 9.273m28.79 8.617l13.69 9.783-11.04 17.89m-2.65-27.673l-17.89 14.04m-55.48 43.542l1.53 3.354h28.74m-30.27-3.354l19.42-15.241m-19.42 15.241l-9.04-19.846m64.52-23.696l20.54 13.633m-20.54-13.633l-10.9-22.657m10.9 22.657l-12.03 9.44m32.57 4.193l-8.63 13.976m0 0l-26.17-16.42m26.17 16.42l-7.6 12.299m-18.57-28.719l-10.95 8.593m10.95-8.593l2.23-1.749m16.34 30.468l-4.31 6.988h-25.21m29.52-6.988l-29.52-20.126m0 0v27.114m0-27.114l-13.49-29.629m13.49 29.629l-10.85 8.519m-2.64-38.148l13.9-6.405m-13.9 6.405l-12.14 5.59m39.94-18.4l-13.9 6.405m12.77 25.692l-12.77-25.692m-11.26 44.553l-6.66-14.668m-8.12-17.89l-21.84 10.063 8.16 17.89m13.68-27.953l8.12 17.89m0 0l-21.8 10.063" stroke="#C9EBC9" stroke-width=".429"/><path d="M1185.86 736.382l-13.98-9.224-11.27 17.61 20.97 12.858 4.28-21.244z" fill="#407E40"/><path fill-rule="evenodd" clip-rule="evenodd" d="M1159.02 868.878h-18.45v-92.803l11.27-17.61 26.26 16.492-2.03 10.063-1.64 10.063-2.55 15.653-4.75 17.051-.84 20.126-7.27 20.965z" fill="#407E40"/><path d="M1181.58 757.626l-20.97-12.858-8.77 13.697 26.26 16.492 3.48-17.331z" fill="#407E40"/><path d="M1140.57 776.075l11.27-17.61m-11.27 17.61l35.5 8.945m-35.5-8.945v19.008m25.72 52.83l-7.27 20.965h-18.45v-20.965m25.72 0l.84-20.126m-.84 20.126h-25.72m26.56-20.126l4.75-17.051m-4.75 17.051h-26.56m31.31-17.051l2.55-15.653m-2.55 15.653h-31.31m35.5-25.716l2.03-10.063m-2.03 10.063l-1.64 10.063m7.15-37.457l4.28-21.244-13.98-9.224-11.27 17.61m20.97 12.858l-20.97-12.858m20.97 12.858l-3.48 17.331m-17.49-30.189l-8.77 13.697m26.26 16.492l-26.26-16.492m22.59 36.618h-33.86m0 0v15.653m0 0v17.051m0 0v20.126" stroke="#C9EBC9" stroke-width=".429"/><path d="M1097.25 836.451v-27.114h-17.61v27.114h17.61zm-20.41-27.114h-13.7l-3.63 27.114h20.13v-27.114h-2.8z" fill="#407E40"/><path d="M1055.73 804.825l-20.54 31.626h24.32l3.63-27.114-7.41-4.512z" fill="#407E40"/><path fill-rule="evenodd" clip-rule="evenodd" d="M1130.79 782.223v54.228h-33.54v-27.114h-34.11l-7.41-4.512-11.87-7.228-1.68 2.351-14.28 20.011-13.95-31.586 3.41-4.752 9.17-12.741 9.5-13.216 13.7-19.047 14.05 29.63 6.63 13.976h60.38z" fill="#407E40"/><path d="M1027.9 819.959l7.29 16.492 20.54-31.626-11.87-7.228-1.68 2.351-14.28 20.011z" fill="#407E40"/><path d="M1035.19 836.451l-7.29-16.492m7.29 16.492l20.54-31.626m-20.54 31.626h24.32m10.9-54.228l-6.63-13.976m6.63 13.976l-14.68 22.602m14.68-22.602h13.14m47.24 27.114v-27.114h-16.77m16.77 27.114v27.114h-16.77m16.77-27.114h-16.77m-50.88 0l-7.41-4.512m7.41 4.512h13.7m-13.7 0l-3.63 27.114m-15.65-38.854l-1.68 2.351m1.68-2.351l7.21-10.622m-7.21 10.622l11.87 7.228m-27.83 15.134l-13.95-31.586 3.41-4.752m10.54 36.338l14.28-20.011m21.6-31.701l-14.05-29.63-13.7 19.047m27.75 10.583l-3.6 5.311m-18 26.39l-24.82-16.327m0 0l9.17-12.741m0 0l24.54 16.095m-24.54-16.095l9.5-13.216m15.04 29.311l9.11-13.417m-24.15-15.894l24.15 15.894m23.37 8.665l-6.71 27.114m6.71-27.114h13.7m-20.41 27.114h2.8m17.61-27.114h16.77m-16.77 0v27.114m0 27.114h16.77m-16.77 0v-27.114m0 27.114h-17.61m34.38-54.228v27.114m0 27.114v-27.114m0 0h-16.77m0 0h-17.61m0 0v27.114m0 0h-20.13" stroke="#C9EBC9" stroke-width=".429"/><path d="M1134.7 848.193v20.685H990.186v-13.976l-5.947-17.611-4.115-12.578-4.193-12.02c3.168-7.081 11.907-26.331 21.523-46.681a337.695 337.695 0 0112.066-23.2c4.52-7.886 8.15-13.398 10.02-15.933 0-2.889.39-9.337 1.95-12.02 1.57-2.683 8.86-8.758 12.3-11.461l10.9 23.481-6.12 8.665-13.24 18.728-15.3 21.634-7.82 11.071 4.81 11.46 4.82 11.461 5.28 12.579 5.17 12.299 5.63 13.417h106.78z" fill="#407E40"/><path d="M1027.92 848.193h15.66m-15.66 0l-21.24 20.685m21.24-20.685l-5.63-13.417m-2.75-107.897c0-2.889.39-9.337 1.95-12.02 1.57-2.683 8.86-8.758 12.3-11.461l10.9 23.481-6.12 8.665m-19.03-8.665c-1.87 2.535-5.5 8.047-10.02 15.933m10.02-15.933l19.03 8.665m-41.116 30.468c-9.616 20.35-18.355 39.6-21.523 46.681m21.523-46.681l12.576 9.894m-12.576-9.894a337.695 337.695 0 0112.066-23.2m-33.589 69.881l4.193 12.02m-4.193-12.02l31.089-14.256m-16.834 56.465v13.976h16.494m-16.494-13.976l32.104-20.126m-32.104 20.126l-5.947-17.611m128.381 10.902h22.08v20.685h-22.08m0-20.685v20.685m0-20.685h-22.36m22.36 20.685h-22.36m0-20.685v20.685m0-20.685h-23.2m23.2 20.685h-23.2m0-20.685v20.685m0-20.685h-23.48m23.48 20.685h-23.48m0-20.685v20.685m0 0h-36.9m15.61-34.102l-5.17-12.299m0 0l-32.881 14.814m32.881-14.814l-5.28-12.579m-27.601 27.393l-4.115-12.578m31.716-14.815l-31.716 14.815m31.716-14.815l-4.82-11.461m0 0l-4.81-11.46 7.82-11.071m0 0l15.3-21.634m0 0l-15.81-11.46m15.81 11.46l13.24-18.728" stroke="#C9EBC9" stroke-width=".429"/><path d="M878.464 762.979v48.334h-90.277l-8.788 4.936-12.383 6.955-7.989 4.487-25.964-13.182-25.964-13.182 15.778-8.756 15.778-8.755 13.582-7.537 13.581-7.536 10.386-5.764h102.26z" fill="#407E40"/><path d="M788.187 811.313h15.18m-15.18 0v-48.334m0 48.334l-8.788 4.936m99.065-29.103v-24.167h-14.78m14.78 24.167v24.167h-14.78m14.78-24.167h-102.26m0 0l-10.386-18.403m10.386 18.403l-11.588 7.35m-31.553 20.013l25.964 13.182 7.989-4.487m-33.953-8.695l-25.964-13.182 15.778-8.756m10.186 21.938l9.447-5.992m-3.855-24.701l14.181 19.694 14.18 19.694m-28.361-39.388l-15.778 8.755m15.778-8.755l13.582-7.537m14.779 46.925l12.383-6.955m-56.522-23.678l19.633 15.946m0 0l22.106-14.021m99.068-31.517v48.334m0-48.334h-15.579m15.579 48.334h-15.579m0-48.334v48.334m0-48.334h-13.981m13.981 48.334h-13.981m0-48.334v48.334m0-48.334h-15.578m15.578 48.334h-15.578m0-48.334v48.334m0-48.334h-15.179m15.179 48.334h-15.179m0-48.334v48.334m0-48.334h-15.18m0 0h-11.983l-10.386 5.764m0 0l-13.581 7.536m0 0l12.379 18.217m14.783 21.753l-14.783-21.753" stroke="#C9EBC9" stroke-width=".429"/><path d="M871.275 862.044h6.791l4.394-5.593 4.394-5.592v-87.88h25.964v105.855l-5.592 2.941-16.378 8.61-19.573 7.623-13.981-7.279-34.353-17.887 34.353-6.813 13.981-2.773v8.788z" fill="#407E40"/><path d="M886.854 850.859v-14.78m0 14.78h25.964m-25.964 0l-4.394 5.592m-4.394 5.593h-6.791m6.791 0l12.782 18.341m-12.782-18.341l4.394-5.593m-11.185 5.593v-8.788l-13.981 2.773m13.981 6.015v25.964m0 0l19.573-7.623m-19.573 7.623l-13.981-7.279m29.56-103.369v-14.381h25.964v14.381m-25.964 0h25.964m-25.964 0v14.779m25.964-14.779v14.779m0 0h-25.964m25.964 0v14.78m-25.964-14.78v14.78m0 0h25.964m-25.964 0v14.38m25.964-14.38v14.38m0 0h-25.964m25.964 0v14.78m-25.964-14.78v14.78m0 0h25.964m0 0v14.78m0 0v17.975l-5.592 2.941m-16.378 8.61l16.378-8.61m-24.766-15.324l24.766 15.324m-49.932-15.746l-34.353 6.813 34.353 17.887m0-24.7v24.7" stroke="#C9EBC9" stroke-width=".429"/><path fill-rule="evenodd" clip-rule="evenodd" d="M878.863 845.266V820.1h-65.51v36.75l24.367-4.309 13.182-2.331 13.581-2.402 14.38-2.542zm-82.236 2.542l-27.613-14.925 19.973-12.783h7.64v27.708z" fill="#407E40"/><path d="M813.353 856.85V820.1h-16.726v27.708l16.726 9.042z" fill="#407E40"/><path d="M813.353 856.85l24.367-4.309m-24.367 4.309v-20.529m0 20.529l-16.726-9.042m67.856-27.708h14.38v25.166l-14.38 2.542m0-27.708v27.708m0-27.708h-13.581m13.581 27.708l-13.581 2.402m0-30.11v30.11m0-30.11H837.72m13.182 30.11l-13.182 2.331m0-32.441h-24.367m24.367 0v16.221m0 16.22v-16.22M813.353 820.1v16.221m0-16.221h-16.726m41.093 16.221h-24.367m-16.726 11.487l-27.613-14.925 19.973-12.783h7.64m0 27.708V820.1" stroke="#C9EBC9" stroke-width=".429"/><path fill-rule="evenodd" clip-rule="evenodd" d="M790.584 868.036l-15.179 3.072-15.978 3.235-14.38 2.911-14.381 2.911-14.38 2.911-9.274 1.877-15.093 3.055-7.989 17.976 23.082 5.362 16.464 3.825 13.981-3.825 13.981-3.825 14.38-3.934 15.579-1.425 15.978-1.46-6.791-32.666z" fill="#407E40"/><path d="M844.51 896.397l-53.926-28.361 6.791 32.666 47.135-4.305z" fill="#407E40"/><path d="M790.584 868.036l53.926 28.361-47.135 4.305m-6.791-32.666l6.791 32.666m-6.791-32.666l-15.179 3.072m-51.929 44.063l13.981-3.825m-13.981 3.825l-7.19-32.095m7.19 32.095l-16.464-3.825m58.806-7.759l15.579-1.425m-15.579 1.425l-6.391-29.244m6.391 29.244l-14.38 3.934m45.937-6.819l-15.978 1.46m-5.992-31.054l5.992 31.054m-5.992-31.054l-15.978 3.235m0 0l-14.38 2.911m0 0l6.391 30.267m-6.391-30.267l-14.381 2.911m20.772 27.356l-13.981 3.825m-6.791-31.181l6.791 31.181m-6.791-31.181l-14.38 2.911m0 0l-9.274 1.877m0 26.393l-23.082-5.362 7.989-17.976 15.093-3.055m0 26.393v-26.393" stroke="#C9EBC9" stroke-width=".429"/><path d="M700.309 878.022l23.967-41.943 12.879 6.391 16.281 8.079 23.967 11.894-35.151 7.103-20.772 4.197-21.171 4.279z" fill="#407E40"/><path d="M737.155 842.47l-12.879-6.391-23.967 41.943 21.171-4.279m15.675-31.273l-15.675 31.273m15.675-31.273l16.281 8.079m-31.956 23.194l20.772-4.197m11.184-18.997l23.967 11.894-35.151 7.103m11.184-18.997l-11.184 18.997" stroke="#C9EBC9" stroke-width=".429"/><path d="M912.818 742.209v13.182h-139.01l-10.939 5.592-12.462 6.371-13.748 7.029-13.981 7.147-19.972 10.211-23.967-1.598-19.174-10.157-17.019-9.017-17.733-9.394-13.182-6.983-18.375-3.995-39.546-4.394-8.788-11.184c8.389-.4 26.923-1.678 33.954-3.595 5.705-1.556 12.084-2.271 19.573-2.034 4.047.128 8.418.534 13.182 1.235 1.92.282 4.073.972 6.391 1.964 5.146 2.202 11.11 5.894 17.176 9.926 5.701 3.79 11.491 7.88 16.777 11.317 4.477 2.911 8.592 5.355 11.984 6.752 1.266.521 2.605.993 3.995 1.42 5.042 1.549 10.744 2.507 15.978 3.071 5.704.615 10.851.763 13.98.701l12.738-6.591 12.738-6.59 13.271-6.868 13.748-7.113 16.211-8.389 19.174-1.095 14.38-.822 14.78-.845 13.182-.753 12.782-.73 12.383-.708 12.383-.708 12.783-.73c6.343 0 11.8.789 16.377 2.1 12.024 3.445 17.976 10.488 17.976 16.275z" fill="#407E40"/><path d="M878.465 723.834v31.557m0-31.557c6.343 0 11.8.789 16.377 2.1m-16.377-2.1l-12.783.73m-99.064 5.661l19.174-1.095m-19.174 1.095l7.19 25.166m-7.19-25.166l-16.211 8.389m-52.495 27.162l12.738-6.591m-12.738 6.591l4.794 25.965m-4.794-25.965c-3.129.062-8.276-.086-13.98-.701m-90.676-14.478l-39.546-4.394-8.788-11.184c8.389-.4 26.923-1.678 33.954-3.595 5.705-1.556 12.084-2.271 19.573-2.034m-5.193 21.207l18.375 3.995m-18.375-3.995l5.193-21.207m13.182 25.202l13.182 6.983m-13.182-6.983l6.391-22.003m60.717 57.554l23.967 1.598m-23.967-1.598l5.193-25.068m-5.193 25.068l-19.174-10.157m43.141 11.755l19.972-10.211m51.13-26.139h11.984m-11.984 0l-10.939 5.592m115.596-5.592h16.377m-16.377 0h-12.783m29.16-29.457c12.024 3.445 17.976 10.488 17.976 16.275v13.182h-17.976m0-29.457v29.457m-29.16-30.827v30.827m0-30.827l-12.383.708m12.383 30.119h-12.383m0-30.119v30.119m0-30.119l-12.383.708m12.383 29.411h-12.383m0-29.411v29.411m0-29.411l-12.782.73m12.782 28.681h-12.782m0-28.681v28.681m0-28.681l-13.182.753m13.182 27.928h-13.182m0-27.928v27.928m0-27.928l-14.78.845m14.78 27.083h-14.78m0-27.083v27.083m0-27.083l-14.38.822m14.38 26.261h-14.38m0-26.261v26.261m-35.385-16.777l12.462 22.369m-12.462-22.369l-13.748 7.113m26.21 15.256l-12.462 6.371m-13.748-21.627l13.748 21.627m-13.748-21.627l-13.271 6.868m27.019 14.759l-13.748 7.029m-13.271-21.788l13.271 21.788m-13.271-21.788l-12.738 6.59m26.009 15.198l-13.981 7.147m-12.028-22.345l12.028 22.345m-38.746-16.455c-5.234-.564-10.936-1.522-15.978-3.071m0 0a46.072 46.072 0 01-3.995-1.42c-3.392-1.397-7.507-3.841-11.984-6.752m15.979 8.172l-8.389 17.982m0 0l-17.019-9.017m9.429-17.137l-9.429 17.137m9.429-17.137c-5.286-3.437-11.076-7.527-16.777-11.317m7.348 28.454l-17.733-9.394m10.385-19.06l-10.385 19.06m10.385-19.06c-6.066-4.032-12.03-7.724-17.176-9.926m0 0c-2.318-.992-4.471-1.682-6.391-1.964-4.764-.701-9.135-1.107-13.182-1.235" stroke="#C9EBC9" stroke-width=".429"/><path d="M1098.96 629.563l12.39 7.989c33.15-14.38 101.46-43.94 172.96-27.562 79.04 18.104 137.28 46.336 175.36 63.912l5.59-31.956-10.39-40.345c-23.56-17.576-92.91-52.727-181.75-52.727-111.04 0-187.34 47.934-196.53 61.116-7.35 10.545 3.07 17.442 9.19 19.573h13.18z" fill="#2872B2"/><path d="M562.809 673.852c.048-3.507.295-6.076.831-6.608-.983-.783-.982-.877-1.374-1.023-.778-.243-1.462-.638-2.344-1.072-2.927.153-4.938.955-6.431 1.661-1.761.832-3.706 1.993-6.296 3.27-3.561 1.757-9.077 3.289-11.797 6.099-3.067 3.169-4.427 5.504-5.06 7.308-.633 1.805-1.382 3.341-1.363 6.216.051 7.974.19 10.482 1.222 12.506 1.374 2.693 2.738 5.71 3.755 7.262 1.024 1.562 2.249 3.408 3.56 5.216 1.167 1.611 1.62 4.467 3.9 7.607 1.169 1.609 1.835 3.317 3.563 4.534 2.485 1.749 4.055 2.843 8.095 2.477 2.685-.242 5.626-.431 8.43-.877 2.153-.342 4.858-.158 7.851-1.416 2.094-.88 4.465-1.195 7.946-3.903 1.753-1.365 3.205-2.785 4.089-4.29.975-1.661 2.173-3.423 1.897-5.705-.243-2.005.101-6.28-2.102-6.333-1.756-.042-3.533.674-5.411 1.467-1.511.638-2.283 3.014-4.047 3.364-.974.193-1.948.082-2.729-.101-1.661-.391-4.014-.711-5.85-1.17-1.562-.391-3.569-.46-4.924-2.1-1.909-2.31-7.058-6.821-5.113-7.607 3.479-1.407 12.542-1.617 13.066-3.509.095-.343.062-.775-.199-1.072-1.075-1.219-3.189-2.455-3.265-6.581-.144-7.944.073-13.652.1-15.62zm-87.207 26.354c-.669-1.251-1.093-2.77-1.093-3.8.311 0 .612 0 .887-.031.274-.031.515-.091.791-.152 1.126-.306 2.601-.871 5.237-1.766 1.611-.548 3.456-1.763 5.565-2.525 1.096-.397 2.303-.903 3.469-1.37 1.837-.735 4.901-1.702 7.701-3.074 1.428-.699 2.297-1.35 5.826-2.438 5.219-1.61 7.247-2.47 9.46-3.072 5.136-1.396 7.517-1.862 8.811-2.645 1.864-1.128 4.832-2.462 4.894-1.454.059.946.01 2.176-.245 3.195-.244.975-.697 2.295-.913 3.562-.244 1.43-.951 2.498-1.034 5.915-.061 2.478-.107 6.997-.03 9.473.092 2.898.33 3.565.304 4.612-.094 3.827-.177 5.192-.61 7.874-.093.576-.266.892-1.047.937-2.099.121-4.052.027-5.073-.215-1.155-.274-2.537-.441-3.802-.822-1.005-.303-4.337-1.464-6.267-2.648-.945-.58-2.113-1.437-5.895-1.551-6.066-.183-7.522-.313-8.68-.639-.975-.274-2.035-.436-3.41-1.157-1.217-.639-2.346-1.73-5.937-1.214-1.487.213-2.062 1.483-3.775 1.644-1.611.15-2.889.02-3.247-.462-.183-.246-.298-.548-.364-1.101-.308-2.617-.968-4.039-1.523-5.076zm123.514 13.706c-8.363 2.579-10.287 3.621-11.644 3.621-.708.357-1.055.704-1.407 1.116-.352.412-.699.874-.872 1.343-.173.47-.173.932 6.319 1.164 6.492.231 19.094.231 25.573.41 6.48.178 6.922.503 7 1.056.174 1.224.169 2.621.997 3.267 1.875 1.461 3.948 2.67 5.841 3.559 1.99.936 5.452 1.138 5.717 3.28.231 1.867.29 3.802 1.293 4.193.592.232 1.564.361 2.218.053 2.102-.992 9.559-2.231 13.895-.871 1.871.587 5.299.816 4.955 2.516-.177.874-.641 1.956-1.524 2.214-1.813.531-4.486.793-5.369 2.691-.406.874-1.424 2.352-.576 2.745 3.011 1.394 7.637.553 9.813.811.99.117 2.013.503 2.801 1.349 1.58 1.694 3.508 2.712 6.664 4.204 3.332 1.575 6.018 3.099 8.638 2.268 1.105-.35 2.088-.849 2.445-1.697.174-.412.252-.918-.005-1.284-1.111-1.58-3.598-3.023-3.263-5.431.064-.465.501-.758.996-.931 1.99-.698 5.533-.43 5.718-2.584.231-2.686.542-4.832 1.347-5.476.874-.699 1.644-1.833 2.805-2.043 4.186-.755 10.155-.837 11.852.3 1.752 1.173 3.49 2.968 3.439 4.968-.062 2.4-1.135 4.48-2.456 6.889-.289.528-.348 1.13.068 1.221 1.051.232 2.299-.143 3.624-.473 2.801-.697 4.895-.955 6.946-1.399 2.162-.468 4.106-.54 6.189-1.169 1.929-.581 3.68-1.088 5.956-1.869 2.048-.702 4.887-1.546 7.065-2.57 1.99-.935 5.107-2.142 7.476-3.27 2.453-1.169 4.407-2.441 6.83-3.269 2.406-.822 5.131-2.127 7.244-2.98 2.743-1.107 4.652-1.869 6.77-2.508 1.929-.582 3.745-1.271 5.664-1.575a77.308 77.308 0 005.605-1.111c1.991-.467 6.896-.808 10.811-.991 3.792-.177 6.106-.566 8.287-.701 2.862-.177 5.215-.299 7.179-.76 1.99-.468 4.334-.63 6.485-1.111 2.862-.639 5.126.536 12.386-1.049 2.97-.648 5.984-1.343 6.174-3.456.292-3.267.107-6.518 1.99-6.822 1.813-.292 4.384-.013 8.059-2.867.754-.585.95-1.065.808-1.517-.293-.932-.918-2.731-2.691-3.793-.874-.523-2.661-.555-4.793-.814-2.394-.291-4.517-1.338-6.945-.932-1.048.175-1.89.626-2.745 1.526-2.276 2.394-2.871 5.05-4.551 5.95-.759.407-2.839.788-4.97 2.223-2.333 1.572-4.516 1.764-5.56 3.356-.265.403-.388.893-.449-.266-.062-1.16.504-4.816-1.255-5.25-6.324-1.563-8.625-1.902-10.221-3.123-1.661-1.271-3.73-3.31-5.557-4.68-1.562-1.172-3.125-2.752-5.755-3.705-2.149-.778-4.271-1.529-7.826-1.508-8.755.051-11.288.406-13.575.831-2.101.39-4.51 1.644-9.464.777-2.775-.486-4.549-.859-8.334-1.413-2.339-.342-4.469-.805-7.324-.78-5.837.051-8.058.094-11.108.98-4.195 1.218-8.433 3.445-10.813 2.527-.39-.15-.814-.562-.675-.928.294-.778.892-1.622 2.107-2.196 4.654-2.198 9.308-3.536 11.598-3.943 2.2-.39 4.74-.319 17.767-.925 3.144-.147 9.6.034 18.679-.293 4.066-.146 6.39-.898 8.995-1.464 2.483-.54 4.092-1.981 6.088-2.828 1.953-.83 3.946-1.235 6.583-2.046 2.396-.738 4.97-1.61 7.022-2.734 2.581-1.414 5.447-2.665 4.814-4.339-.294-.778-1.269-1.847-2.881-3.51-1.61-1.662-2.462-4.732-5.177-5.018-2.289-.242-4.448-.22-5.942.052-2.683.49-4.776 1.631-7.262 1.755-5.828.292-15.114-.528-21.607-.244-5.539.243-11.293.78-14.03 1.024-2.197.196-6.979-.004-10.14.977-2.195.681-4.36.726-6.63 1.169-2 .39-3.928.906-8.096 1.414-2.785.339-5.729.292-8.24.731-3.911.685-8.379 1.135-11.711 1.315-6.433.346-11.328-.072-11.485 2.104-.19 2.636-.187 5.28.639 7.361.833 2.096 2.159 3.52 4.59 4.872 2.192 1.22 4.691 2.25 5.11 4.195.095.441.071.992-.298 1.314-.78.68-5.772.949-9.46 1.214-2.052.148-4.215.918-6.924 1.904-2.148.783-5.267 2.749-6.676.967-1.316-1.664-2.525-3.748-4.685-4.532-3.377-1.227-8.778-3.049-11.795-2.042l-.029.01c-1.014.338-2.139.714-2.451 1.754-.193.642.015 1.678-.343 2.388-1.225 2.437-2.225 5.219-4.049 6.234-1.757.976-11.154 1.52-17.068 1.8-3.122.148-5.737.211-7.943.977-2.399.832-5.186 1.375-7.317 2.147-3.365 1.218-5.616 2.046-11.968 4.004z" fill="#339F33"/><path d="M1890.16 841.763c132.59 53.432 211.75 132.667 370.06 93.049 158.32-39.617 324.56-271.157 698.58-271.157 299.22 0 910.99-234.837 1179.47-352.256" stroke="url(#paint0_linear_1_493)" stroke-width="1.716"/><path d="M-1953 653.759c79.16-32.323 293.68-67.68 518.49 49.475 281.01 146.443 528.384 33.642 660.975 21.768 132.591-11.873 409.647 98.949 637.228 37.601 182.065-49.079 316.635-47.495 386.13-24.455 24.132 8.001 49.801 18.992 76.949 31.92" stroke="url(#paint1_linear_1_493)" stroke-width="1.716"/><path d="M158.468-902.174l.712-.479a.713.713 0 00-.068-.088l-.644.567zm97.813 145.616l-.713.479a.541.541 0 01.018.025l.695-.504zM105.589-963.567a.858.858 0 10-1.288 1.134l.644-.567.644-.567zm444.129 612.01l-.695.504a.874.874 0 00.2.198l.495-.702zM1161.9 79.859l.84-.16a.864.864 0 00-.35-.542l-.49.702zm31.66 168.212l-.84.159c.04.21.15.398.32.526l.52-.685zm191.96 144.465l-.52.685c.18.13.39.19.6.169l-.08-.854zm140.51-13.853l.4-.76a.873.873 0 00-.49-.094l.09.854zm269.14 241.434l.78-.338a.089.089 0 00-.03-.063l-.75.401zM895.603 983.549l.053-.856-.053.856zm631.667-48.738l.31.801-.31-.801zm362.89-93.05l-.32.796 1.92.778-.81-1.912-.79.338zM768.082 79.859l.852-.103-.852.103zm-366.11 116.759l.852.106-.852-.106zm0 100.927l.787.344.082-.188-.012-.205-.857.049zm-41.558 94.991l-.786-.344-.056.128-.013.139.855.077zm-33.642 377.532l-.855-.076-.053.594.539.257.369-.775zM256.281-756.558l-.695.504 293.437 405.001.695-.504.695-.503-293.437-405.001-.695.503zM1161.9 79.859l-.85.158 31.67 168.213.84-.159.84-.159L1162.74 79.7l-.84.159zm223.62 312.677l.08.854 140.51-13.853-.08-.854-.09-.854-140.5 13.853.08.854zm140.51-13.853l-.4.76c32.6 17.125 85.19 49.747 136.95 91.927 51.76 42.188 102.62 93.885 131.83 149.148l.76-.401.75-.401c-29.36-55.559-80.42-107.429-132.26-149.676-51.84-42.256-104.53-74.941-137.23-92.117l-.4.76zM895.603 983.549l-.053.857c165.03 10.257 265.31 20.324 353.16 16.694 87.91-3.63 163.38-20.974 278.87-65.488l-.31-.801-.31-.801c-115.37 44.469-190.65 61.755-278.32 65.377-87.73 3.623-187.85-6.43-352.984-16.694l-.053.856zm631.667-48.738l.31.801c36.04-13.891 107.4-44.904 179.45-68.578 36.02-11.834 72.17-21.821 104.12-26.909 31.99-5.093 59.62-5.251 78.69 2.432l.32-.796.32-.796c-19.53-7.867-47.55-7.637-79.6-2.535-32.08 5.108-68.33 15.126-104.39 26.974-72.1 23.69-143.59 54.754-179.53 68.606l.31.801zM158.468-902.174l-.712.478 97.812 145.617.713-.479.712-.478-97.813-145.617-.712.479zM1795.17 620.117l-.79.338 94.99 221.644.79-.338.79-.338-95-221.644-.78.338zm-601.61-372.046l-.52.685 95.98 72.233.52-.686.52-.686-95.98-72.232-.52.686zm95.98 72.232l-.52.686 95.98 72.232.52-.685.52-.686-95.98-72.233-.52.686zm0 0l-.71-.478c-10.71 15.978-29.15 41.733-49.65 67.05-20.52 25.332-43.06 50.163-61.97 64.343l.52.687.51.686c19.09-14.316 41.74-39.29 62.27-64.636 20.54-25.361 39.01-51.158 49.74-67.174l-.71-.478zm-111.81 131.602l-.52-.687c-19.06 14.295-68.91 62.338-115.51 109.222-23.32 23.454-45.84 46.639-63.316 65.199-8.738 9.279-16.219 17.406-21.909 23.835-5.672 6.408-9.611 11.179-11.221 13.721l.725.459.725.459c1.523-2.405 5.364-7.071 11.056-13.502 5.674-6.41 13.141-14.522 21.874-23.796 17.466-18.545 39.976-41.718 63.276-65.165 46.64-46.92 96.4-94.856 115.33-109.059l-.51-.686zM549.718-351.557l-.495.702 255.965 180.383.494-.701.494-.702-255.964-180.383-.494.701zm255.964 180.384l-.494.701L1161.4 80.56l.5-.701.49-.702-356.214-251.032-.494.702zm0 0l-.816-.266c-8.257 25.381-20.041 68.387-28.575 114.953-8.53 46.55-13.827 96.737-9.061 136.447l.852-.102.852-.103c-4.734-39.449.524-89.431 9.045-135.933 8.519-46.486 20.284-89.417 28.519-114.731l-.816-.265zm-37.6 251.031l-.852.103c5.942 49.523 10.877 84.553 10.63 108.223-.123 11.831-1.543 20.702-4.703 27.084-3.132 6.326-7.998 10.256-15.192 12.184l.222.829.222.829c7.647-2.049 12.924-6.291 16.286-13.08 3.333-6.733 4.758-15.917 4.882-27.828.248-23.817-4.712-59.021-10.643-108.446l-.852.103zm-9.895 148.423l-.222-.829c-3.391.909-6.75.009-10.246-2.423-3.514-2.445-7.089-6.39-10.829-11.407-7.5-10.06-15.41-24.057-24.739-38.241-9.288-14.12-19.924-28.319-32.744-38.49-12.841-10.188-27.903-16.358-45.99-14.348l.095.853.095.853c17.534-1.949 32.157 4.008 44.733 13.986 12.598 9.996 23.112 24.004 32.377 38.089 9.223 14.022 17.269 28.227 24.797 38.324 3.774 5.062 7.481 9.185 11.225 11.79 3.763 2.618 7.64 3.752 11.67 2.672l-.222-.829zM633.512 123.396l-.095-.853c-35.667 3.963-92.607 14.361-141.135 27.731-24.26 6.684-46.455 14.121-62.848 21.882-8.193 3.88-14.975 7.858-19.845 11.888-4.849 4.012-7.932 8.181-8.468 12.467l.851.107.852.106c.454-3.63 3.122-7.438 7.859-11.358 4.715-3.901 11.353-7.808 19.486-11.658 16.26-7.7 38.345-15.105 62.569-21.779 48.442-13.346 105.293-23.727 140.869-27.68l-.095-.853zm-231.54 73.222l-.851-.107c-3.178 25.421-1.324 78.009-.005 101.083l.856-.049.857-.049c-1.32-23.102-3.16-75.532-.005-100.772l-.852-.106zm0 100.927l-.786-.344-41.558 94.991.786.344.786.344 41.559-94.991-.787-.344zm-75.2 472.523l-.369.775c37.098 17.667 76.959 38.952 119.472 61.18 42.505 22.224 87.645 45.383 135.266 66.776 95.241 42.785 200.439 78.523 314.409 85.607l.053-.857.053-.856c-113.682-7.066-218.666-42.717-313.811-85.46-47.572-21.37-92.675-44.51-135.175-66.731-42.491-22.217-82.394-43.524-119.529-61.209l-.369.775zm33.642-377.532l-.855-.077-33.642 377.533.855.076.854.076 33.643-377.532-.855-.076zM158.468-902.174l.644-.567-53.523-60.826-.644.567-.644.567 53.523 60.826.644-.567z" fill="#fff" fill-opacity=".2"/><circle cx="1452" cy="546" r="25" fill="#fff"/><path d="M1464.02 551.897l-1.12-6.037c-.52-2.894-3.01-5-5.93-5h-3.79c.11-3.196-1.22-8.099-7.08-9.816a1.021 1.021 0 00-.93.173c-.27.205-.43.518-.43.864v2.095l-5.67 2.872a3.33 3.33 0 00-1.79 2.938c0 1.285.71 2.419 1.84 2.98l2.59 1.253-1.28 7.818-.17-.065c-1.65-.605-3.48.27-4.08 1.944-.58 1.674.28 3.52 1.93 4.114l2.88 1.048A32.406 32.406 0 001452 561c3.77 0 7.47-.648 11-1.922l2.89-1.048a3.12 3.12 0 001.8-1.652c.37-.777.41-1.652.12-2.462a3.17 3.17 0 00-3.79-2.019zm-16.18 1.911c.53-1.901 2.23-3.229 4.17-3.229.87 0 1.7.259 2.41.745a4.374 4.374 0 011.59 1.998l.34.864c-2.84.475-5.76.475-8.61.011l.1-.389zm17.92 1.652c-.11.249-.33.443-.58.54l-2.89 1.048c-6.61 2.386-13.98 2.386-20.57 0l-2.89-1.048a1.063 1.063 0 01-.63-1.35c.15-.442.55-.712.98-.712.12 0 .25.021.35.064l2.89 1.037a28.333 28.333 0 0019.16 0l2.88-1.037a1.05 1.05 0 011.35.648c.09.26.08.551-.05.81z" fill="#2B702B"/><path d="M1497.64 556.04v-4.66h1.2c.27-.347.49-.807.68-1.38.19-.573.33-1.22.44-1.94.12-.72.21-1.473.26-2.26.05-.8.08-1.593.08-2.38v-4.74h8.7v12.7h1.76v4.66h-1.7V553h-9.72v3.04h-1.7zm3.16-4.66h6.5V540.3h-5.3v3.34c0 1.093-.05 2.113-.16 3.06a17.97 17.97 0 01-.42 2.58 11.83 11.83 0 01-.62 2.02v.08zm16.26 1.94c-.99 0-1.87-.233-2.64-.7a5 5 0 01-1.8-1.92c-.43-.813-.64-1.74-.64-2.78 0-.973.2-1.873.6-2.7.41-.827.98-1.487 1.72-1.98.74-.507 1.62-.76 2.62-.76 1.01 0 1.88.227 2.6.68.73.44 1.29 1.053 1.68 1.84.4.787.6 1.687.6 2.7 0 .093-.01.187-.02.28 0 .093-.01.173-.02.24h-8.78v-1.4h7.02c-.02-.28-.08-.58-.2-.9-.11-.333-.29-.64-.54-.92a2.578 2.578 0 00-.94-.7c-.38-.187-.84-.28-1.4-.28-.67 0-1.25.173-1.74.52-.48.333-.86.793-1.12 1.38-.26.587-.38 1.253-.38 2 0 .867.16 1.587.5 2.16.33.573.76 1 1.28 1.28.53.28 1.08.42 1.66.42.74 0 1.36-.173 1.84-.52.49-.36.88-.8 1.18-1.32l1.44.7c-.4.773-.98 1.413-1.72 1.92-.75.507-1.68.76-2.8.76zm9.15-.32v-9.46h1.68V553h-1.68zm-3.42-8.66v-1.54h8.54v1.54h-8.54zm14.29 8.98c-1 0-1.89-.233-2.68-.7a5.122 5.122 0 01-1.82-1.94c-.44-.827-.66-1.753-.66-2.78 0-1.04.22-1.967.66-2.78a4.975 4.975 0 011.82-1.92c.79-.48 1.68-.72 2.68-.72 1.15 0 2.09.267 2.82.8.75.52 1.27 1.193 1.58 2.02l-1.54.64c-.25-.627-.63-1.1-1.14-1.42-.49-.333-1.09-.5-1.8-.5-.6 0-1.16.16-1.68.48-.51.32-.92.773-1.24 1.36-.32.573-.48 1.253-.48 2.04 0 .773.16 1.453.48 2.04.32.587.73 1.04 1.24 1.36.52.32 1.08.48 1.68.48.72 0 1.34-.167 1.86-.5.52-.333.91-.807 1.16-1.42l1.52.64c-.33.787-.87 1.453-1.62 2-.75.547-1.69.82-2.84.82zm6.18-.32v-10.2h1.7v4.62h.08l4.54-4.62h2.02v.08l-4.7 4.72 4.8 5.32v.08h-2.1l-4.56-5.14h-.08V553h-1.7zm9.75 0v-10.2h1.7v5.84l-.08 1.92h.08l5.6-7.76h1.7V553h-1.7v-5.84l.08-1.92h-.08l-5.6 7.76h-1.7zm11.48 0v-10.2h1.7v5.84l-.08 1.92h.08l5.6-7.76h1.7V553h-1.7v-5.84l.08-1.92h-.08l-5.6 7.76h-1.7zm4.52-11.76a3.52 3.52 0 01-1.52-.32 2.773 2.773 0 01-1.06-.88 2.314 2.314 0 01-.38-1.28h1.38c0 .333.15.62.44.86.31.227.69.34 1.14.34.44 0 .81-.113 1.1-.34.29-.24.44-.527.44-.86h1.36c0 .467-.13.893-.38 1.28-.25.373-.6.667-1.04.88-.43.213-.92.32-1.48.32zm16.23 12.08c-1 0-1.89-.233-2.68-.7a5.122 5.122 0 01-1.82-1.94c-.44-.827-.66-1.753-.66-2.78 0-1.04.22-1.967.66-2.78a4.975 4.975 0 011.82-1.92c.79-.48 1.68-.72 2.68-.72 1.15 0 2.09.267 2.82.8.75.52 1.28 1.193 1.58 2.02l-1.54.64c-.25-.627-.63-1.1-1.14-1.42-.49-.333-1.09-.5-1.8-.5-.6 0-1.16.16-1.68.48-.5.32-.92.773-1.24 1.36-.32.573-.48 1.253-.48 2.04 0 .773.16 1.453.48 2.04.32.587.74 1.04 1.24 1.36.52.32 1.08.48 1.68.48.72 0 1.34-.167 1.86-.5.52-.333.91-.807 1.16-1.42l1.52.64c-.33.787-.87 1.453-1.62 2-.74.547-1.69.82-2.84.82zm9.48 0c-.76 0-1.42-.147-2-.44a3.565 3.565 0 01-1.36-1.2 3.29 3.29 0 01-.48-1.76c0-.747.2-1.373.58-1.88.39-.52.91-.907 1.56-1.16.66-.267 1.38-.4 2.16-.4.46 0 .88.04 1.26.12.39.067.72.153 1 .26.3.093.52.187.66.28v-.62c0-.773-.27-1.387-.82-1.84-.54-.453-1.21-.68-2-.68-.56 0-1.08.127-1.58.38-.48.24-.86.58-1.14 1.02l-1.28-.96c.27-.4.6-.747 1-1.04.4-.293.86-.52 1.36-.68.52-.16 1.07-.24 1.64-.24 1.39 0 2.48.367 3.26 1.1.79.733 1.18 1.72 1.18 2.96V553h-1.62v-1.46h-.08c-.17.293-.42.58-.74.86-.32.267-.7.487-1.14.66-.42.173-.9.26-1.42.26zm.16-1.5c.59 0 1.12-.147 1.6-.44.5-.293.89-.687 1.18-1.18.3-.493.44-1.033.44-1.62-.3-.213-.69-.387-1.16-.52-.45-.133-.95-.2-1.5-.2-.97 0-1.68.2-2.14.6-.45.4-.68.893-.68 1.48 0 .56.22 1.013.64 1.36.43.347.97.52 1.62.52zm6.49 4.22v-4.58h1.06c.24-.227.46-.58.66-1.06.2-.48.35-1.04.46-1.68.12-.64.18-1.3.18-1.98v-3.94h7.14v8.66h1.52v4.58h-1.62V553h-7.78v3.04h-1.62zm2.96-4.58h4.84v-7.12h-3.84v2.54c0 .76-.03 1.413-.1 1.96-.07.533-.17.993-.32 1.38-.15.387-.34.747-.58 1.08v.16z" fill="#fff"/><circle cx="1554" cy="489" r="25" fill="#fff"/><path d="M1570.43 484.577l-15.58-11.26c-.57-.422-1.13-.422-1.7 0l-15.58 11.26c-1.14.704-.43 2.533.85 2.533h2.83v15.483c0 .844.57 1.407 1.42 1.407h22.66c.85 0 1.42-.563 1.42-1.407V487.11h2.83c1.28 0 1.99-1.829.85-2.533zM1554 501.185c-4.67 0-8.5-3.8-8.5-8.445 0-4.644 3.83-8.445 8.5-8.445s8.5 3.801 8.5 8.445c0 4.645-3.83 8.445-8.5 8.445z" fill="#2B702B"/><path d="M1556.12 490.629v-4.222h-4.24v4.222h-4.25v4.223h4.25v4.222h4.24v-4.222h4.25v-4.223h-4.25z" fill="#2B702B"/><path d="M1599.3 496l5.44-14.32h1.92l5.44 14.32h-1.86l-3.94-10.7-.56-1.54h-.08l-.56 1.54-3.94 10.7h-1.86zm6.2-3.94v-1.6h3.3l.58 1.6h-3.88zm-3.88 0l.58-1.6h3.3v1.6h-3.88zm12.02 3.94v-10.2h2.06l3.36 6.86h.08l3.36-6.86h2V496h-1.64v-5.62l.08-2h-.08l-3.2 6.34h-1.18l-3.2-6.34h-.08l.08 2V496h-1.64zm18.1.32c-1.02 0-1.9-.233-2.64-.7-.75-.467-1.33-1.16-1.74-2.08-.4-.933-.6-2.087-.6-3.46 0-.947.06-1.787.18-2.52.12-.747.3-1.393.56-1.94.26-.56.61-1.033 1.04-1.42.45-.413 1-.74 1.66-.98.65-.253 1.42-.44 2.32-.56.53-.08.92-.153 1.18-.22.25-.08.42-.18.5-.3.08-.12.12-.273.12-.46h1.64c0 .533-.09.953-.26 1.26-.18.307-.49.547-.94.72-.46.16-1.1.307-1.94.44-.66.093-1.19.2-1.6.32-.4.12-.73.253-.98.4-.26.147-.48.307-.68.48a2.98 2.98 0 00-.76.96c-.2.373-.36.853-.46 1.44h.08c.17-.32.43-.607.78-.86a3.79 3.79 0 011.22-.62c.48-.16.98-.24 1.52-.24 1 0 1.86.22 2.6.66.73.427 1.3 1.02 1.7 1.78.4.747.6 1.607.6 2.58 0 1.027-.22 1.947-.64 2.76-.43.8-1.02 1.427-1.78 1.88-.76.453-1.66.68-2.68.68zm0-1.54c.98 0 1.8-.333 2.44-1 .64-.667.96-1.593.96-2.78 0-1.107-.32-1.96-.96-2.56-.64-.613-1.46-.92-2.44-.92-.62 0-1.17.14-1.66.42-.5.267-.89.66-1.18 1.18-.3.507-.44 1.133-.44 1.88 0 1.2.3 2.133.92 2.8.62.653 1.41.98 2.36.98zm9.62 5.02c-.04.093-.09.193-.14.3-.05.12-.09.193-.1.22h-1.76c.08-.173.17-.367.26-.58.09-.2.21-.447.34-.74.08-.173.15-.333.22-.48.07-.147.14-.313.22-.5.09-.173.2-.393.32-.66l1.4-3.04.38-.94 3.08-7.58h1.84l-5.28 12.18c-.05.12-.14.307-.26.56-.11.267-.21.52-.32.76-.09.253-.16.42-.2.5zm.38-4.22l-4.32-9.78h1.84l3.2 7.58h.16l-.88 2.2zm6.51.58c-.13 0-.27-.013-.4-.04a5.517 5.517 0 01-.32-.04v-1.62c.07.04.15.073.26.1.12.027.23.04.34.04.49 0 .84-.173 1.04-.52.21-.36.34-.827.38-1.4.04-.587.06-1.207.06-1.86v-5.02h7.42V496h-1.7v-8.66h-4.1v3.9c0 .493-.03 1.027-.08 1.6-.04.56-.15 1.093-.34 1.6-.17.507-.47.92-.88 1.24-.4.32-.96.48-1.68.48zm14.57.16c-.76 0-1.43-.147-2-.44a3.425 3.425 0 01-1.36-1.2 3.29 3.29 0 01-.48-1.76c0-.747.19-1.373.58-1.88.38-.52.9-.907 1.56-1.16.65-.267 1.37-.4 2.16-.4.45 0 .87.04 1.26.12.38.067.72.153 1 .26.29.093.51.187.66.28v-.62c0-.773-.28-1.387-.82-1.84-.55-.453-1.22-.68-2-.68-.56 0-1.09.127-1.58.38-.48.24-.86.58-1.14 1.02l-1.28-.96c.26-.4.6-.747 1-1.04.4-.293.85-.52 1.36-.68.52-.16 1.06-.24 1.64-.24 1.38 0 2.47.367 3.26 1.1.78.733 1.18 1.72 1.18 2.96V496h-1.62v-1.46h-.08c-.18.293-.42.58-.74.86-.32.267-.7.487-1.14.66-.43.173-.9.26-1.42.26zm.16-1.5c.58 0 1.12-.147 1.6-.44.49-.293.88-.687 1.18-1.18.29-.493.44-1.033.44-1.62a4.02 4.02 0 00-1.16-.52c-.46-.133-.96-.2-1.5-.2-.98 0-1.69.2-2.14.6-.46.4-.68.893-.68 1.48 0 .56.21 1.013.64 1.36.42.347.96.52 1.62.52zm9.45 1.18v-9.46h1.68V496h-1.68zm-3.42-8.66v-1.54h8.54v1.54h-8.54zm14.37 8.98c-1.03 0-1.94-.24-2.72-.72a5.149 5.149 0 01-1.86-1.94c-.44-.827-.66-1.747-.66-2.76 0-1.013.22-1.927.66-2.74a5.104 5.104 0 011.86-1.96c.78-.48 1.69-.72 2.72-.72 1.02 0 1.93.247 2.72.74.78.48 1.4 1.133 1.84 1.96.45.813.68 1.72.68 2.72 0 1.013-.23 1.933-.68 2.76a5.097 5.097 0 01-1.84 1.94c-.79.48-1.7.72-2.72.72zm0-1.54c.61 0 1.18-.153 1.72-.46.54-.307.98-.747 1.32-1.32.33-.587.5-1.287.5-2.1 0-.813-.17-1.507-.5-2.08-.34-.587-.78-1.033-1.32-1.34a3.417 3.417 0 00-1.72-.46c-.62 0-1.2.153-1.74.46-.55.307-.99.753-1.32 1.34-.34.573-.5 1.267-.5 2.08 0 .813.16 1.513.5 2.1.33.573.77 1.013 1.32 1.32.54.307 1.12.46 1.74.46zm7.17 5.54V485.8h1.62v1.52h.08c.19-.32.45-.62.78-.9.35-.28.75-.507 1.2-.68.46-.173.96-.26 1.5-.26.94 0 1.77.233 2.5.7a4.855 4.855 0 011.74 1.92c.43.813.64 1.747.64 2.8 0 1.053-.21 1.987-.64 2.8-.42.813-1 1.453-1.74 1.92-.73.467-1.56.7-2.5.7-.81 0-1.52-.187-2.14-.56-.61-.373-1.06-.793-1.34-1.26h-.08l.08 1.4v4.42h-1.7zm5-5.54c.59 0 1.14-.153 1.64-.46.52-.32.94-.773 1.24-1.36.32-.587.48-1.273.48-2.06 0-.8-.16-1.487-.48-2.06a3.224 3.224 0 00-1.24-1.34 2.99 2.99 0 00-1.64-.48c-.58 0-1.14.16-1.66.48-.5.307-.92.753-1.24 1.34-.32.573-.48 1.26-.48 2.06s.16 1.493.48 2.08c.32.573.74 1.02 1.24 1.34.52.307 1.08.46 1.66.46zm6.99 1.22v-10.2h1.7v5.84l-.08 1.92h.08l5.6-7.76h1.7V496h-1.7v-5.84l.08-1.92h-.08l-5.6 7.76h-1.7zm16.83 0v-8.66h-2.22c-.53 0-.99.167-1.36.5-.36.333-.54.753-.54 1.26 0 .493.18.913.54 1.26.37.347.83.52 1.36.52h3.02v1.54h-3.06c-.67 0-1.27-.14-1.82-.42a3.348 3.348 0 01-1.26-1.2 3.189 3.189 0 01-.46-1.7c0-.627.15-1.187.46-1.68.31-.507.73-.9 1.26-1.18.55-.293 1.15-.44 1.82-.44h3.96V496h-1.7zm-6.32 0v-.1l2.76-3.62-.08-.42 2.12.3-2.9 3.84h-1.9z" fill="#fff"/><ellipse cx="1495" cy="355" rx="24.999" ry="25" fill="#fff"/><path d="M1489.64 360.845v-9.059h-7.14v9.059a8.93 8.93 0 004.47 7.732l8.03 4.639v-8.247l-4.46-2.577c-.57-.323-.9-.903-.9-1.547z" fill="#2B702B"/><path d="M1494.99 369.647l8.04-4.639c2.75-1.598 4.47-4.549 4.47-7.732v-17.99H1495v7.139h5.35v10.838a1.8 1.8 0 01-.89 1.546l-4.46 2.577v8.261h-.01z" fill="#2B702B"/><path d="M1494.99 351.786v-12.5l-12.49 12.5h12.49z" fill="#184E18"/><path d="M1541.58 362v-14.32h2.46l4.56 11.74h.08l4.56-11.74h2.46V362h-1.68v-9.1l.08-2.72h-.08l-4.68 11.82h-1.4l-4.68-11.82h-.08l.08 2.72v9.1h-1.68zm22.74.32v-14.96h1.7v14.96h-1.7zm.88-1.92c-1.53 0-2.83-.24-3.9-.72-1.05-.493-1.85-1.173-2.4-2.04-.54-.867-.82-1.867-.82-3s.28-2.12.82-2.96c.55-.853 1.35-1.513 2.4-1.98 1.06-.48 2.35-.72 3.88-.72 1.54 0 2.83.24 3.88.72 1.06.48 1.85 1.147 2.38 2 .55.84.82 1.82.82 2.94 0 1.133-.26 2.133-.8 3-.53.867-1.32 1.547-2.38 2.04-1.04.48-2.33.72-3.88.72zm0-9.86c-1.22 0-2.24.173-3.04.52-.8.347-1.39.833-1.78 1.46-.38.613-.58 1.32-.58 2.12 0 .813.2 1.54.6 2.18.42.64 1.02 1.14 1.82 1.5.8.36 1.8.54 2.98.54 1.19 0 2.18-.18 2.96-.54.8-.36 1.4-.86 1.78-1.5.4-.64.6-1.367.6-2.18 0-.8-.18-1.507-.56-2.12-.37-.627-.95-1.113-1.74-1.46-.78-.347-1.8-.52-3.04-.52zm19.6 14.5V362h-10.16v-14.32h1.7v12.7h6.7v-12.7h1.7v12.7h1.76v4.66h-1.7z" fill="#fff"/><circle cx="1055" cy="474" r="25" fill="#fff"/><g clip-path="url(#clip1_1_493)"><path d="M1068.63 468.007c.46 0 .84-.38.84-.848v-.899c0-3.713-3.02-6.734-6.73-6.734h-15.48c-3.71 0-6.73 3.021-6.73 6.734v.899c0 .468.38.848.84.848h.85v18.771h-.85c-.46 0-.84.38-.84.848 0 .468.38.848.84.848h27.26c.46 0 .84-.38.84-.848a.847.847 0 00-.84-.848h-.85v-18.771h.85zm-2.55 18.771h-3.41v-2.796l1.4-.736a.842.842 0 00.35-1.046l-1.81-4.504a2.897 2.897 0 00-2.68-1.81 2.423 2.423 0 001.71-.709v-.001a2.427 2.427 0 00-1.71-4.14 2.429 2.429 0 00-2.43 2.425c0 .67.27 1.276.71 1.715.44.438 1.04.709 1.71.71a2.897 2.897 0 00-2.68 1.811l-1.81 4.503a.842.842 0 00.35 1.046l1.4.736v2.796h-6.27v-9.232h2.75c.46 0 .84-.38.84-.848v-6.137a.847.847 0 00-.84-.848h-7.2c-.47 0-.85.38-.85.848v6.137c0 .468.38.848.85.848h2.75v9.232h-5.29v-18.771h22.16v18.771z" fill="#2B702B"/></g><path d="M1108.22 481.32c-1.05 0-2.03-.193-2.92-.58a7.386 7.386 0 01-2.34-1.6 7.857 7.857 0 01-1.54-2.38 7.841 7.841 0 01-.54-2.92c0-1.04.18-2.007.54-2.9.37-.907.89-1.7 1.54-2.38a7.236 7.236 0 012.34-1.62c.89-.387 1.87-.58 2.92-.58 1.05 0 2.03.193 2.92.58.89.387 1.67.927 2.32 1.62.67.68 1.18 1.473 1.54 2.38.37.893.56 1.86.56 2.9 0 1.04-.19 2.013-.56 2.92a7.33 7.33 0 01-1.54 2.38 7.084 7.084 0 01-2.32 1.6c-.89.387-1.87.58-2.92.58zm0-1.62c1.04 0 1.98-.247 2.82-.74a5.548 5.548 0 002.04-2.06c.51-.893.76-1.913.76-3.06 0-1.16-.25-2.18-.76-3.06a5.548 5.548 0 00-2.04-2.06c-.84-.493-1.78-.74-2.82-.74a5.52 5.52 0 00-2.82.74 5.548 5.548 0 00-2.04 2.06c-.51.88-.76 1.9-.76 3.06 0 1.147.25 2.167.76 3.06.51.88 1.19 1.567 2.04 2.06.85.493 1.79.74 2.82.74zm14.09 1.62c-1 0-1.9-.233-2.68-.7a5.046 5.046 0 01-1.82-1.94c-.44-.827-.66-1.753-.66-2.78 0-1.04.22-1.967.66-2.78a4.903 4.903 0 011.82-1.92c.78-.48 1.68-.72 2.68-.72 1.14 0 2.08.267 2.82.8.74.52 1.27 1.193 1.58 2.02l-1.54.64c-.26-.627-.64-1.1-1.14-1.42-.5-.333-1.1-.5-1.8-.5-.6 0-1.16.16-1.68.48-.51.32-.92.773-1.24 1.36-.32.573-.48 1.253-.48 2.04 0 .773.16 1.453.48 2.04.32.587.73 1.04 1.24 1.36.52.32 1.08.48 1.68.48.72 0 1.34-.167 1.86-.5.52-.333.9-.807 1.16-1.42l1.52.64c-.34.787-.88 1.453-1.62 2-.75.547-1.7.82-2.84.82zm8.86-.32v-9.46h1.68V481h-1.68zm-3.42-8.66v-1.54h8.54v1.54h-8.54zm13.27 8.98c-.76 0-1.42-.147-2-.44a3.565 3.565 0 01-1.36-1.2 3.29 3.29 0 01-.48-1.76c0-.747.2-1.373.58-1.88.39-.52.91-.907 1.56-1.16.66-.267 1.38-.4 2.16-.4.46 0 .88.04 1.26.12.39.067.72.153 1 .26.3.093.52.187.66.28v-.62c0-.773-.27-1.387-.82-1.84-.54-.453-1.21-.68-2-.68-.56 0-1.08.127-1.58.38-.48.24-.86.58-1.14 1.02l-1.28-.96c.27-.4.6-.747 1-1.04.4-.293.86-.52 1.36-.68.52-.16 1.07-.24 1.64-.24 1.39 0 2.48.367 3.26 1.1.79.733 1.18 1.72 1.18 2.96V481h-1.62v-1.46h-.08c-.17.293-.42.58-.74.86-.32.267-.7.487-1.14.66-.42.173-.9.26-1.42.26zm.16-1.5c.59 0 1.12-.147 1.6-.44.5-.293.89-.687 1.18-1.18.3-.493.44-1.033.44-1.62-.3-.213-.69-.387-1.16-.52-.45-.133-.95-.2-1.5-.2-.97 0-1.68.2-2.14.6-.45.4-.68.893-.68 1.48 0 .56.22 1.013.64 1.36.43.347.97.52 1.62.52zm7.17 1.18v-10.2h1.7V481h-1.7zm.9-4.38v-1.54h7v1.54h-7zm6.2 4.38v-10.2h1.7V481h-1.7zm8.89.32c-1.03 0-1.93-.24-2.72-.72a5.149 5.149 0 01-1.86-1.94c-.44-.827-.66-1.747-.66-2.76 0-1.013.22-1.927.66-2.74a5.104 5.104 0 011.86-1.96c.79-.48 1.69-.72 2.72-.72 1.03 0 1.93.247 2.72.74.79.48 1.4 1.133 1.84 1.96.45.813.68 1.72.68 2.72 0 1.013-.23 1.933-.68 2.76a5.023 5.023 0 01-1.84 1.94c-.79.48-1.69.72-2.72.72zm0-1.54c.61 0 1.19-.153 1.72-.46.55-.307.99-.747 1.32-1.32.33-.587.5-1.287.5-2.1 0-.813-.17-1.507-.5-2.08a3.404 3.404 0 00-1.32-1.34 3.39 3.39 0 00-1.72-.46c-.61 0-1.19.153-1.74.46-.55.307-.99.753-1.32 1.34-.33.573-.5 1.267-.5 2.08 0 .813.17 1.513.5 2.1.33.573.77 1.013 1.32 1.32.55.307 1.13.46 1.74.46zm7.17 1.22v-10.2h4.7c.58 0 1.09.12 1.54.36.47.227.84.547 1.1.96.27.4.4.853.4 1.36 0 .52-.12.98-.36 1.38-.24.387-.54.673-.92.86v.08c.5.187.89.473 1.18.86.31.387.46.847.46 1.38 0 .587-.14 1.107-.44 1.56-.28.44-.66.787-1.14 1.04-.46.24-.98.36-1.54.36h-4.98zm1.7-8.66v7.12h3.14c.43 0 .79-.14 1.08-.42.31-.28.46-.64.46-1.08 0-.427-.15-.78-.46-1.06-.29-.28-.65-.42-1.08-.42h-3.94v-1.38h3.72c.42 0 .76-.127 1.02-.38.28-.267.42-.6.42-1s-.14-.727-.42-.98c-.28-.267-.62-.4-1.04-.4h-2.9zm8.34 8.66v-10.2h1.7v4.62h.08l4.54-4.62h2.02v.08l-4.7 4.72 4.8 5.32v.08h-2.1l-4.56-5.14h-.08V481h-1.7zm12.85.32c-.76 0-1.42-.147-2-.44a3.565 3.565 0 01-1.36-1.2 3.29 3.29 0 01-.48-1.76c0-.747.2-1.373.58-1.88.39-.52.91-.907 1.56-1.16.66-.267 1.38-.4 2.16-.4.46 0 .88.04 1.26.12.39.067.72.153 1 .26.3.093.52.187.66.28v-.62c0-.773-.27-1.387-.82-1.84-.54-.453-1.21-.68-2-.68-.56 0-1.08.127-1.58.38-.48.24-.86.58-1.14 1.02l-1.28-.96c.27-.4.6-.747 1-1.04.4-.293.86-.52 1.36-.68.52-.16 1.07-.24 1.64-.24 1.39 0 2.48.367 3.26 1.1.79.733 1.18 1.72 1.18 2.96V481h-1.62v-1.46h-.08c-.17.293-.42.58-.74.86-.32.267-.7.487-1.14.66-.42.173-.9.26-1.42.26zm.16-1.5c.59 0 1.12-.147 1.6-.44.5-.293.89-.687 1.18-1.18.3-.493.44-1.033.44-1.62-.3-.213-.69-.387-1.16-.52-.45-.133-.95-.2-1.5-.2-.97 0-1.68.2-2.14.6-.45.4-.68.893-.68 1.48 0 .56.22 1.013.64 1.36.43.347.97.52 1.62.52z" fill="#fff"/><circle cx="406" cy="917" r="25" fill="#fff"/><path d="M422.997 929.297l-.851-20.276c-.084-1.996-1.789-3.619-3.8-3.619h-2.758v-2.205c0-2.314-1.896-4.197-4.226-4.197-2.331 0-4.227 1.883-4.227 4.197v2.205h-2.757c-1.68 0-3.137.965-3.615 2.275h6.838a5.82 5.82 0 014.009 1.608 5.738 5.738 0 011.817 3.895l.806 16.011a5.458 5.458 0 01-1.269 3.809h6.456c.991 0 1.91-.387 2.588-1.089a3.515 3.515 0 00.989-2.614zm-9.415-23.895h-4.44v-2.205c0-1.216.996-2.205 2.22-2.205 1.224 0 2.22.989 2.22 2.205v2.205z" fill="#2B702B"/><path d="M411.423 913.28c-.1-1.991-1.814-3.611-3.822-3.611h-13.968c-2.007 0-3.722 1.62-3.822 3.611l-.806 16.01c-.05.984.294 1.914.969 2.618a3.545 3.545 0 002.585 1.092h16.117c.992 0 1.909-.388 2.584-1.092a3.493 3.493 0 00.97-2.618l-.807-16.01zm-6.579 3.787c0 2.314-1.896 4.197-4.227 4.197-2.33 0-4.226-1.883-4.226-4.197v-3.201a1 1 0 011.003-.996 1 1 0 011.003.996v3.201c0 1.216.996 2.205 2.22 2.205 1.224 0 2.22-.989 2.22-2.205v-3.201a1 1 0 011.003-.996 1 1 0 011.004.996v3.201z" fill="#2B702B"/><path d="M452.58 924v-14.32h2.46l4.56 11.74h.08l4.56-11.74h2.46V924h-1.68v-9.1l.08-2.72h-.08L460.34 924h-1.4l-4.68-11.82h-.08l.08 2.72v9.1h-1.68zm20.245.32c-.76 0-1.427-.147-2-.44a3.494 3.494 0 01-1.36-1.2 3.29 3.29 0 01-.48-1.76c0-.747.193-1.373.58-1.88.387-.52.907-.907 1.56-1.16.653-.267 1.373-.4 2.16-.4.453 0 .873.04 1.26.12.387.067.72.153 1 .26.293.093.513.187.66.28v-.62c0-.773-.273-1.387-.82-1.84-.547-.453-1.213-.68-2-.68-.56 0-1.087.127-1.58.38-.48.24-.86.58-1.14 1.02l-1.28-.96c.267-.4.6-.747 1-1.04.4-.293.853-.52 1.36-.68.52-.16 1.067-.24 1.64-.24 1.387 0 2.473.367 3.26 1.1.787.733 1.18 1.72 1.18 2.96V924h-1.62v-1.46h-.08a3.59 3.59 0 01-.74.86c-.32.267-.7.487-1.14.66-.427.173-.9.26-1.42.26zm.16-1.5a3.01 3.01 0 001.6-.44 3.335 3.335 0 001.18-1.18c.293-.493.44-1.033.44-1.62-.307-.213-.693-.387-1.16-.52a5.311 5.311 0 00-1.5-.2c-.973 0-1.687.2-2.14.6-.453.4-.68.893-.68 1.48 0 .56.213 1.013.64 1.36.427.347.967.52 1.62.52zm7.165 1.18v-10.2h6.4v1.54h-4.7V924h-1.7zm11.152.32c-.76 0-1.427-.147-2-.44a3.487 3.487 0 01-1.36-1.2 3.29 3.29 0 01-.48-1.76c0-.747.193-1.373.58-1.88.386-.52.906-.907 1.56-1.16.653-.267 1.373-.4 2.16-.4.453 0 .873.04 1.26.12.386.067.72.153 1 .26.293.093.513.187.66.28v-.62c0-.773-.274-1.387-.82-1.84-.547-.453-1.214-.68-2-.68-.56 0-1.087.127-1.58.38-.48.24-.86.58-1.14 1.02l-1.28-.96c.266-.4.6-.747 1-1.04.4-.293.853-.52 1.36-.68.52-.16 1.066-.24 1.64-.24 1.386 0 2.473.367 3.26 1.1.786.733 1.18 1.72 1.18 2.96V924h-1.62v-1.46h-.08c-.174.293-.42.58-.74.86-.32.267-.7.487-1.14.66-.427.173-.9.26-1.42.26zm.16-1.5c.586 0 1.12-.147 1.6-.44a3.343 3.343 0 001.18-1.18c.293-.493.44-1.033.44-1.62-.307-.213-.694-.387-1.16-.52a5.321 5.321 0 00-1.5-.2c-.974 0-1.687.2-2.14.6-.454.4-.68.893-.68 1.48 0 .56.213 1.013.64 1.36.426.347.966.52 1.62.52zm10.689 1.5a6.445 6.445 0 01-1.56-.2 5.649 5.649 0 01-1.52-.6 4.618 4.618 0 01-1.28-1.12l1.32-1c.44.507.92.873 1.44 1.1.52.213 1.054.32 1.6.32.76 0 1.334-.16 1.72-.48.387-.333.58-.733.58-1.2 0-.44-.193-.793-.58-1.06-.373-.28-.873-.42-1.5-.42h-1.66v-1.54h1.66c.534 0 .96-.133 1.28-.4.32-.267.48-.62.48-1.06 0-.507-.206-.907-.62-1.2-.4-.307-.906-.46-1.52-.46-.546 0-1.073.12-1.58.36-.506.227-.92.533-1.24.92l-1.26-.96a4.523 4.523 0 011.1-.96c.427-.28.894-.493 1.4-.64.52-.16 1.06-.24 1.62-.24.734 0 1.38.127 1.94.38.574.253 1.027.6 1.36 1.04.334.44.5.953.5 1.54 0 .533-.133 1.007-.4 1.42-.266.413-.62.713-1.06.9v.08c.547.2.98.527 1.3.98.334.44.5.953.5 1.54a2.53 2.53 0 01-.5 1.54c-.333.44-.8.787-1.4 1.04-.6.253-1.306.38-2.12.38zm5.968-.32v-10.2h1.7v5.84l-.08 1.92h.08l5.6-7.76h1.7V924h-1.7v-5.84l.08-1.92h-.08l-5.6 7.76h-1.7zm11.484 0v-10.2h1.7V924h-1.7zm.9-4.38v-1.54h7v1.54h-7zm6.2 4.38v-10.2h1.7V924h-1.7z" fill="#fff"/><circle cx="1295" cy="464" r="25" fill="#fff"/><path d="M1312 476.297l-.85-20.276c-.09-1.996-1.79-3.619-3.8-3.619h-2.76v-2.205c0-2.314-1.9-4.197-4.23-4.197-2.33 0-4.22 1.883-4.22 4.197v2.205h-2.76c-1.68 0-3.14.965-3.62 2.275h6.84c1.49 0 2.91.571 4.01 1.608a5.759 5.759 0 011.82 3.895l.8 16.011a5.464 5.464 0 01-1.27 3.809h6.46c.99 0 1.91-.387 2.59-1.089a3.516 3.516 0 00.99-2.614zm-9.42-23.895h-4.44v-2.205c0-1.216 1-2.205 2.22-2.205 1.23 0 2.22.989 2.22 2.205v2.205z" fill="#2B702B"/><path d="M1300.42 460.28c-.1-1.991-1.81-3.611-3.82-3.611h-13.97c-2 0-3.72 1.62-3.82 3.611l-.81 16.01c-.04.984.3 1.914.97 2.618.68.704 1.6 1.092 2.59 1.092h16.12a3.53 3.53 0 003.55-3.71l-.81-16.01zm-6.58 3.787c0 2.314-1.89 4.197-4.22 4.197s-4.23-1.883-4.23-4.197v-3.201a1 1 0 011-.996c.56 0 1.01.446 1.01.996v3.201c0 1.216.99 2.205 2.22 2.205 1.22 0 2.22-.989 2.22-2.205v-3.201a1 1 0 012 0v3.201z" fill="#2B702B"/><path d="M1341.58 471v-14.32h2.46l4.56 11.74h.08l4.56-11.74h2.46V471h-1.68v-9.1l.08-2.72h-.08l-4.68 11.82h-1.4l-4.68-11.82h-.08l.08 2.72v9.1h-1.68zm20.25.32c-.76 0-1.43-.147-2-.44a3.425 3.425 0 01-1.36-1.2 3.29 3.29 0 01-.48-1.76c0-.747.19-1.373.58-1.88.38-.52.9-.907 1.56-1.16.65-.267 1.37-.4 2.16-.4.45 0 .87.04 1.26.12.38.067.72.153 1 .26.29.093.51.187.66.28v-.62c0-.773-.28-1.387-.82-1.84-.55-.453-1.22-.68-2-.68-.56 0-1.09.127-1.58.38-.48.24-.86.58-1.14 1.02l-1.28-.96c.26-.4.6-.747 1-1.04.4-.293.85-.52 1.36-.68.52-.16 1.06-.24 1.64-.24 1.38 0 2.47.367 3.26 1.1.78.733 1.18 1.72 1.18 2.96V471h-1.62v-1.46h-.08c-.18.293-.42.58-.74.86-.32.267-.7.487-1.14.66-.43.173-.9.26-1.42.26zm.16-1.5c.58 0 1.12-.147 1.6-.44.49-.293.88-.687 1.18-1.18.29-.493.44-1.033.44-1.62a4.02 4.02 0 00-1.16-.52c-.46-.133-.96-.2-1.5-.2-.98 0-1.69.2-2.14.6-.46.4-.68.893-.68 1.48 0 .56.21 1.013.64 1.36.42.347.96.52 1.62.52zm7.16 1.18v-10.2h6.4v1.54h-4.7V471h-1.7zm11.15.32c-.76 0-1.42-.147-2-.44a3.565 3.565 0 01-1.36-1.2 3.29 3.29 0 01-.48-1.76c0-.747.2-1.373.58-1.88.39-.52.91-.907 1.56-1.16.66-.267 1.38-.4 2.16-.4.46 0 .88.04 1.26.12.39.067.72.153 1 .26.3.093.52.187.66.28v-.62c0-.773-.27-1.387-.82-1.84-.54-.453-1.21-.68-2-.68-.56 0-1.08.127-1.58.38-.48.24-.86.58-1.14 1.02l-1.28-.96c.27-.4.6-.747 1-1.04.4-.293.86-.52 1.36-.68.52-.16 1.07-.24 1.64-.24 1.39 0 2.48.367 3.26 1.1.79.733 1.18 1.72 1.18 2.96V471h-1.62v-1.46h-.08c-.17.293-.42.58-.74.86-.32.267-.7.487-1.14.66-.42.173-.9.26-1.42.26zm.16-1.5c.59 0 1.12-.147 1.6-.44.5-.293.89-.687 1.18-1.18.3-.493.44-1.033.44-1.62-.3-.213-.69-.387-1.16-.52-.45-.133-.95-.2-1.5-.2-.97 0-1.68.2-2.14.6-.45.4-.68.893-.68 1.48 0 .56.22 1.013.64 1.36.43.347.97.52 1.62.52zm10.69 1.5c-.51 0-1.03-.067-1.56-.2-.52-.12-1.03-.32-1.52-.6-.48-.28-.91-.653-1.28-1.12l1.32-1c.44.507.92.873 1.44 1.1.52.213 1.05.32 1.6.32.76 0 1.33-.16 1.72-.48.39-.333.58-.733.58-1.2 0-.44-.19-.793-.58-1.06-.37-.28-.87-.42-1.5-.42h-1.66v-1.54h1.66c.53 0 .96-.133 1.28-.4.32-.267.48-.62.48-1.06 0-.507-.21-.907-.62-1.2-.4-.307-.91-.46-1.52-.46-.55 0-1.07.12-1.58.36a3.33 3.33 0 00-1.24.92l-1.26-.96c.31-.373.67-.693 1.1-.96.43-.28.89-.493 1.4-.64.52-.16 1.06-.24 1.62-.24.73 0 1.38.127 1.94.38.57.253 1.03.6 1.36 1.04.33.44.5.953.5 1.54 0 .533-.13 1.007-.4 1.42-.27.413-.62.713-1.06.9v.08c.55.2.98.527 1.3.98.33.44.5.953.5 1.54 0 .573-.17 1.087-.5 1.54-.33.44-.8.787-1.4 1.04-.6.253-1.31.38-2.12.38zm5.97-.32v-10.2h1.7v5.84l-.08 1.92h.08l5.6-7.76h1.7V471h-1.7v-5.84l.08-1.92h-.08l-5.6 7.76h-1.7zm11.48 0v-10.2h1.7V471h-1.7zm.9-4.38v-1.54h7v1.54h-7zm6.2 4.38v-10.2h1.7V471h-1.7z" fill="#fff"/><circle cx="1476" cy="432" r="25" fill="#fff"/><path d="M1475.61 413a.794.794 0 00-.21.023 4.72 4.72 0 00-3.54 4.53c0 2.175 1.52 4.004 3.55 4.527v1.151c-1.31 2.02-4.24 3.369-6.98 5.072-1.4.869-2.75 1.847-3.76 3.126-1.01 1.279-1.67 2.875-1.67 4.862 0 2.641.77 4.554 1.62 5.852h22.76c.85-1.298 1.62-3.211 1.62-5.852 0-1.987-.66-3.583-1.67-4.862-1.01-1.279-2.36-2.257-3.76-3.126-2.74-1.701-5.67-3.049-6.98-5.065v-1.004c2.14-.002 4-1.429 4.55-3.464.3-.573-.42-1.133-.91-.711a2.96 2.96 0 01-1.87.666 2.93 2.93 0 01-2.95-2.931c-.02-.696.28-1.357.67-1.85.33-.429.01-.926-.47-.944zm-10.84 30.314c-.97 0-1.77.798-1.77 1.761v2.337a.586.586 0 00.59.588h24.82c.07 0 .15-.015.22-.044a.596.596 0 00.33-.319.575.575 0 00.04-.225v-2.337c0-.963-.8-1.761-1.77-1.761h-22.46z" fill="#2B702B"/><path d="M1522.58 439v-14.32h2.46l4.56 11.74h.08l4.56-11.74h2.46V439h-1.68v-9.1l.08-2.72h-.08l-4.68 11.82h-1.4l-4.68-11.82h-.08l.08 2.72v9.1h-1.68zm21.49.32c-.99 0-1.87-.233-2.64-.7a5 5 0 01-1.8-1.92c-.43-.813-.64-1.74-.64-2.78 0-.973.2-1.873.6-2.7.41-.827.98-1.487 1.72-1.98.74-.507 1.62-.76 2.62-.76 1.01 0 1.88.227 2.6.68.73.44 1.29 1.053 1.68 1.84.4.787.6 1.687.6 2.7 0 .093-.01.187-.02.28 0 .093-.01.173-.02.24h-8.78v-1.4h7.02c-.02-.28-.08-.58-.2-.9-.11-.333-.29-.64-.54-.92a2.578 2.578 0 00-.94-.7c-.38-.187-.84-.28-1.4-.28-.67 0-1.25.173-1.74.52-.48.333-.86.793-1.12 1.38-.26.587-.38 1.253-.38 2 0 .867.16 1.587.5 2.16.33.573.76 1 1.28 1.28.53.28 1.08.42 1.66.42.74 0 1.36-.173 1.84-.52.49-.36.88-.8 1.18-1.32l1.44.7c-.4.773-.98 1.413-1.72 1.92-.75.507-1.68.76-2.8.76zm12.83-.32v-3.88c-.26.24-.62.433-1.1.58-.47.133-.99.2-1.56.2-1.18 0-2.11-.32-2.8-.96-.7-.64-1.04-1.507-1.04-2.6v-3.54h1.7v3.3c0 .68.21 1.227.64 1.64.44.413 1.02.62 1.76.62.5 0 .98-.08 1.42-.24.44-.173.76-.4.98-.68v-4.64h1.7V439h-1.7zm8.71.32c-.99 0-1.87-.233-2.64-.7a5 5 0 01-1.8-1.92c-.43-.813-.64-1.74-.64-2.78 0-.973.2-1.873.6-2.7.41-.827.98-1.487 1.72-1.98.74-.507 1.62-.76 2.62-.76 1.01 0 1.88.227 2.6.68.73.44 1.29 1.053 1.68 1.84.4.787.6 1.687.6 2.7 0 .093-.01.187-.02.28 0 .093-.01.173-.02.24h-8.78v-1.4h7.02c-.02-.28-.08-.58-.2-.9-.11-.333-.29-.64-.54-.92a2.578 2.578 0 00-.94-.7c-.38-.187-.84-.28-1.4-.28-.67 0-1.25.173-1.74.52-.48.333-.86.793-1.12 1.38-.26.587-.38 1.253-.38 2 0 .867.16 1.587.5 2.16.33.573.76 1 1.28 1.28.53.28 1.08.42 1.66.42.74 0 1.36-.173 1.84-.52.49-.36.88-.8 1.18-1.32l1.44.7c-.4.773-.98 1.413-1.72 1.92-.75.507-1.68.76-2.8.76zm9.15-.32v-9.46h1.68V439h-1.68zm-3.42-8.66v-1.54h8.54v1.54h-8.54zm11.97-1.54v8.66h2.43c.53 0 .98-.167 1.34-.5.36-.347.54-.767.54-1.26 0-.507-.18-.927-.54-1.26-.36-.347-.81-.52-1.34-.52h-3.22v-1.54h3.26c.68 0 1.28.147 1.82.44.53.28.95.673 1.26 1.18.3.493.46 1.06.46 1.7a3.28 3.28 0 01-.46 1.7c-.31.493-.73.887-1.26 1.18-.54.28-1.14.42-1.82.42h-4.16v-10.2h1.69z" fill="#fff"/><circle cx="1147" cy="366" r="25" fill="#fff"/><path d="M1144.6 365h4.8c2.77 0 4-1.234 4-4v-6.229a8.903 8.903 0 00-1.6-.62v-.351a4.8 4.8 0 00-9.6 0v.351c-.55.155-1.09.362-1.6.62V361c0 2.766 1.23 4 4 4zm-.8-11.2c0-1.767 1.43-3.2 3.2-3.2 1.77 0 3.2 1.433 3.2 3.2v.049a8.38 8.38 0 00-.8-.049h-4.8c-.27 0-.54.024-.8.049v-.049z" fill="#2B702B"/><path d="M1155 355.817V361c0 3.663-1.94 5.6-5.6 5.6h-4.8c-3.66 0-5.6-1.937-5.6-5.6v-5.183a8.777 8.777 0 00-3.2 6.783V377a4.001 4.001 0 004 4h14.4c2.21-.002 4-1.792 4-4v-14.4a8.777 8.777 0 00-3.2-6.783zm-4 18.783h-.8v.8a.801.801 0 01-1.6 0v-.8h-5.6a.801.801 0 010-1.6h8a.801.801 0 010 1.6zm9.6-6.4h-.8v9.519a4.004 4.004 0 003.2-3.919v-3.2a2.404 2.404 0 00-2.4-2.4zm-29.6 2.4v3.2c0 1.9 1.34 3.537 3.2 3.919V368.2h-.8a2.404 2.404 0 00-2.4 2.4z" fill="#2B702B"/><path d="M1193.58 373v-14.32h1.7v12.7h5.02v-12.7h1.7v12.7h5.02v-12.7h1.7V373h-15.14zm17.96 0v-10.2h1.7v4.62h.08l4.54-4.62h2.02v.08l-4.7 4.72 4.8 5.32v.08h-2.1l-4.56-5.14h-.08V373h-1.7zm14.06.32c-1.03 0-1.94-.24-2.72-.72a5.149 5.149 0 01-1.86-1.94c-.44-.827-.66-1.747-.66-2.76 0-1.013.22-1.927.66-2.74a5.104 5.104 0 011.86-1.96c.78-.48 1.69-.72 2.72-.72 1.02 0 1.93.247 2.72.74.78.48 1.4 1.133 1.84 1.96.45.813.68 1.72.68 2.72 0 1.013-.23 1.933-.68 2.76a5.097 5.097 0 01-1.84 1.94c-.79.48-1.7.72-2.72.72zm0-1.54c.61 0 1.18-.153 1.72-.46.54-.307.98-.747 1.32-1.32.33-.587.5-1.287.5-2.1 0-.813-.17-1.507-.5-2.08-.34-.587-.78-1.033-1.32-1.34a3.417 3.417 0 00-1.72-.46c-.62 0-1.2.153-1.74.46-.55.307-.99.753-1.32 1.34-.34.573-.5 1.267-.5 2.08 0 .813.16 1.513.5 2.1.33.573.77 1.013 1.32 1.32.54.307 1.12.46 1.74.46zm7.1 1.38c-.14 0-.27-.013-.4-.04a4.57 4.57 0 01-.32-.04v-1.62c.06.04.15.073.26.1.12.027.23.04.34.04.49 0 .84-.173 1.04-.52.21-.36.34-.827.38-1.4.04-.587.06-1.207.06-1.86v-5.02h7.42V373h-1.7v-8.66h-4.1v3.9c0 .493-.03 1.027-.08 1.6-.04.56-.16 1.093-.34 1.6-.18.507-.47.92-.88 1.24-.4.32-.96.48-1.68.48zm14.56.16c-.76 0-1.42-.147-2-.44a3.565 3.565 0 01-1.36-1.2 3.29 3.29 0 01-.48-1.76c0-.747.2-1.373.58-1.88.39-.52.91-.907 1.56-1.16.66-.267 1.38-.4 2.16-.4.46 0 .88.04 1.26.12.39.067.72.153 1 .26.3.093.52.187.66.28v-.62c0-.773-.27-1.387-.82-1.84-.54-.453-1.21-.68-2-.68-.56 0-1.08.127-1.58.38-.48.24-.86.58-1.14 1.02l-1.28-.96c.27-.4.6-.747 1-1.04.4-.293.86-.52 1.36-.68.52-.16 1.07-.24 1.64-.24 1.39 0 2.48.367 3.26 1.1.79.733 1.18 1.72 1.18 2.96V373h-1.62v-1.46h-.08c-.17.293-.42.58-.74.86-.32.267-.7.487-1.14.66-.42.173-.9.26-1.42.26zm.16-1.5c.59 0 1.12-.147 1.6-.44.5-.293.89-.687 1.18-1.18.3-.493.44-1.033.44-1.62-.3-.213-.69-.387-1.16-.52-.45-.133-.95-.2-1.5-.2-.97 0-1.68.2-2.14.6-.45.4-.68.893-.68 1.48 0 .56.22 1.013.64 1.36.43.347.97.52 1.62.52z" fill="#fff"/><path fill="url(#paint2_linear_1_493)" d="M0 0h1800v190H0z"/></g><defs><linearGradient id="paint0_linear_1_493" x1="906.61" y1="-1113.46" x2="4134.31" y2="-248.6" gradientUnits="userSpaceOnUse"><stop stop-color="#6D9C6D"/><stop offset="1" stop-color="#6D9C6D" stop-opacity="0"/></linearGradient><linearGradient id="paint1_linear_1_493" x1="-1871.86" y1="701.774" x2="326.772" y2="701.774" gradientUnits="userSpaceOnUse"><stop stop-color="#6D9C6D" stop-opacity="0"/><stop offset=".5" stop-color="#6D9C6D" stop-opacity=".25"/><stop offset="1" stop-color="#6D9C6D"/></linearGradient><linearGradient id="paint2_linear_1_493" x1="614.367" y1="0" x2="614.367" y2="190" gradientUnits="userSpaceOnUse"><stop stop-color="#266526"/><stop offset="1" stop-color="#266526" stop-opacity="0"/></linearGradient><clipPath id="clip0_1_493"><path fill="#fff" d="M0 0h1920v1080H0z"/></clipPath><clipPath id="clip1_1_493"><path fill="#fff" transform="translate(1040.53 459.526)" d="M0 0h28.947v28.947H0z"/></clipPath></defs></svg>