<svg width="1244" height="895" fill="none" xmlns="http://www.w3.org/2000/svg"><g clip-path="url(#clip0_1_458)"><path fill="#2B702B" d="M0 0h1244v895H0z"/><path d="M368.432-145.015c1.735-2.823 8.119-1.735 10.942 0 2.646 1.626 1.856 4.857.317 7.581l-.317.537c-4.956 5.46-8.894 6.53-14.295 10.518-5.301 3.916-11.184 7.1-17.159 7.847-4.629.579-6.455 1.982-7.235 2.953-.823 1.026-1.359 2.656-1.262 5.379.098 2.742.814 5.89 1.771 9.282.855 3.026 2.106 6.856 2.666 9.652.655 3.275.511 6.668.477 9.114-.037 2.696.016 4.834.551 6.921.926 3.61 3.729 8.66 15.403 14.59 9.086 4.615 12.735 14.647 13.8 24.875 1.093 10.492-.288 23.045-3.059 35.566-2.786 12.588-7.059 25.506-12.008 36.849-3.395 7.78-7.19 15.004-11.156 20.928-1.534 4.331-18.731 34.816-26.29 47.514-8.61 14.463-23.15.758-37.238 3.563-.678 1.803-1.24 3.787-1.669 5.986-.806 4.13-2.46 7.747-5.225 10.458-2.803 2.75-6.274 4.104-9.838 4.51-.373.043-.751.073-1.129.096-1.425 1.021-3.023 1.811-4.844 2.253-5.976 1.248-11.42-2.005-16.423-4.542-9.638-5.724-22.073-9.418-32.032-2.861-3.925 2.258-7.898 4.265-12.297 5.513-4.3 1.258-9.25 1.337-13.289-.932-2.023-1.03-3.81-2.466-5.853-3.13-2.053-.702-4.239-.131-6.163.952a169.255 169.255 0 00-7.231 4.548c.488 40.1 34.301 75.167 51.649 87.986l.791 1.079c8.428 11.676 24.412 39.737 26.385 67.681 1.241 17.596 1.203 28.765 3.75 39.424 2.421 10.132 7.252 19.788 18.789 33.055 5.663 6.512 11.275 11.353 16.797 15.725 5.369 4.252 11.203 8.459 16.375 13.088 10.958 9.807 19.885 22.223 25.35 46.604a6.003 6.003 0 01-4.398 7.105 6 6 0 01-7.235-4.182l-.076-.299-.233-1.023c-4.942-21.309-12.512-31.3-21.411-39.264-4.827-4.32-9.842-7.888-15.822-12.622-5.827-4.615-12.065-9.973-18.4-17.259-12.461-14.33-18.429-25.673-21.407-38.139-2.852-11.937-2.891-24.968-4.048-41.367-1.748-24.751-16.311-50.635-24.09-61.43-1.676-3.411 0-4.187 0-8.419s-17.122-18.566-34.72-43.364c-11.873-16.73-13.582-32.55-12.705-41.174-5.426 3.85-10.668 7.995-15.696 12.322-4.284 3.751-8.419 7.681-11.945 12.142-3.182 4.172-7.46 10.499-3.189 14.804l.026.03c16.841 21.002 18.389 49.236 18.478 75.028-.148.82-.309 1.636-.48 2.445-.469 4.692-2.219 10.019-4.881 15.778-10.889 26.781-32.763 48.38-48.699 72.372-3.677 5.696-8.973 11.933-7.656 18.528 1.558 3.044 5.948 2.471 9.17 1.992 3.419-.582 6.754-1.644 10.098-2.665 9.545-14.159 9.897-42.485 32.891-43.609 9.83.464 14.703 10.286 18.295 18.03 3.535 8.22 5.757 16.942 7.225 25.733 1.429 8.796 2.116 17.791 1.496 26.684-.339 4.448-.978 8.912-2.506 13.176-1.474 4.121-4.342 8.755-9.281 9.073-25.827-1.079-29.274-40.265-54.699-36.817-3.84 1.507-9.049 3.572-8.936 7.964.763 4.188 5.196 6.721 8.963 8.583l.035.018c25.977 17.353 35.197 53.027 26.461 82.225-8.84 30.257-37.748 49.368-66.94 57.436-15.509 4.289-30.754 8.962-46.97 9.109-4.072-.142-8.276-.661-11.554-3.247-3.342-2.624-4.066-7.187-3.808-11.13.635-8.15 3.428-15.649 6.027-23.198 11.13-29.921 22.475-59.908 26.757-91.644a232.117 232.117 0 001.899-19.269c1.196-21.619 1.237-43.192-.925-64.556a269.754 269.754 0 00-6.426-37.351c-1.435-6.087-3.282-12.218-4.33-18.483-1.37-6.244.584-13.343 5.696-17.437 8.183-7.976 6.988-20.776 5.65-31.473-.771-5.531-1.915-10.996-2.988-16.495-.52-2.744-1.075-5.514-1.275-8.328-.013-1.404-.32-2.979.892-4.285.708-.605 1.75-.342 2.317-.115.783.317 1.242.606 1.94 1.07 6.283 4.098 13.94 5.639 21.383 6.532 3.75.41 7.54.593 11.298.447 1.867-.085 3.799-.226 5.548-.668a6.62 6.62 0 00.643-.202c.236-.09.402-.165.573-.279.169-.109.225-.227.213-.242.004-.039-.08-.176-.262-.312-.712-.497-1.535-.75-2.498-1.045-6.711-2.216-11.678-7.642-15.307-13.442-1.715-2.959-3.37-6.216-3.162-9.83.068-1.838 1.576-3.611 3.424-3.857 1.78-.331 3.536.002 5.238.452 3.34.891 6.85 1.534 10.221.915 3.383-.462 6.195-3.519 5.734-6.936l-.002-.026c-.202-6.83.122-13.817 2.357-20.371 1.97-6.355 7.832-13.099 15.228-11.591 30.553-.067 66.537-9.73 79.634-39.782 2.707-7.608 10.292-14.207 18.763-12.942 8.142.563 16.018 2.703 24.087 2.283a45.198 45.198 0 006.603-.748c8.542-1.81 18.485-.193 24.547 6.578 6.101 6.573 8.617 15.498 9.865 24.118.48 3.37 1.468 6.822 3.684 9.335 1.387.219 2.597.266 3.619.15 1.418-.161 2.235-.607 2.792-1.153.596-.585 1.378-1.764 1.851-4.192 1.813-9.289 5.632-16.232 10.819-21.693 5.082-5.351 11.264-9.045 17.371-12.189 12.674-6.524 24.773-10.841 34.396-21.735 4.705-5.328 9.858-14.133 14.546-24.876 4.65-10.654 8.676-22.835 11.29-34.644 2.628-11.876 3.747-23.022 2.84-31.728-.935-8.969-3.785-13.636-7.299-15.42-13.521-6.87-19.517-14.218-21.591-22.306-.965-3.763-.963-7.3-.926-10.066.042-3.014.098-4.873-.247-6.597-.441-2.203-1.338-4.823-2.446-8.744-1.004-3.558-2.063-7.86-2.215-12.116-.153-4.276.587-9.197 3.899-13.322 3.357-4.176 8.532-6.523 15.101-7.346 2.983-.372 6.88-2.164 11.519-5.591 4.541-3.353 5.829-3.859 10.481-8.984zM115.143 371.322c-3.535-2.296-7.257-3.36-11.328-2.382 4.347-.24 8.05.685 11.328 2.382zm-3.598-16.318a23.066 23.066 0 01-1.794 2.436c.636-.48 1.224-1.318 1.794-2.436zm25.781-72.027c-4.247 6.81-9.177 13.912-14.333 21.049 5.137-6.852 10.054-13.812 14.333-21.049z" fill="#2872B2"/><path d="M27.573 276.59a5.22 5.22 0 00.423-1.411c.959-6.304 10.206-5.785 10.454.586l7.312 188.056a11.256 11.256 0 01-7.032 10.876c-5.921 2.392-12.645-.615-14.81-6.623l-5.693-15.805-3.636-11.582a74.67 74.67 0 011.865-49.978 74.673 74.673 0 003.93-41.811l-2.93-15.125a78.46 78.46 0 015.78-47.776l4.337-9.407z" fill="#2872B2"/><path d="M210.643 164.114h-11.83v-8.147h11.83v8.147zm-5.914-4.055a.6.6 0 00-.552.366.588.588 0 00-.044.227v1.638h1.192v-1.638a.596.596 0 00-.596-.593zm8.162 12.539h-16.329v-8.147h16.329v8.147zm-12.322-6.29a.603.603 0 00-.553.365.588.588 0 00-.045.226v1.641h1.194v-1.641a.593.593 0 00-.596-.591zm8.317 0a.6.6 0 00-.421.173.59.59 0 00-.175.418v1.641h1.194v-1.641a.588.588 0 00-.369-.546.6.6 0 00-.229-.045zm-4.166-29.376l2.813 11.393h-5.626l2.813-11.393z" fill="#A7C3A1"/><path d="M204.744 134.734l.299.911h.965l-.781.564.299.91-.782-.563-.781.563.297-.91-.781-.564h.965l.3-.911zm10.773 47.2h-8.421v-4.431c0-.618-.248-1.212-.689-1.649a2.36 2.36 0 00-1.663-.683c-.624 0-1.223.245-1.664.683a2.323 2.323 0 00-.689 1.649v4.431h-8.419v-8.995h21.545v8.995zm-7.295-26.303h-6.989v-6.965h6.989v6.965zm-5.438-4.531a.58.58 0 00-.423.172.596.596 0 00-.173.419v3.161h1.194v-3.161a.59.59 0 00-.598-.591zm1.943 0a.58.58 0 00-.423.172.596.596 0 00-.174.419v3.161h1.195v-3.161a.59.59 0 00-.598-.591zm1.943 0a.58.58 0 00-.423.172.596.596 0 00-.173.419v3.161h1.194v-3.161a.59.59 0 00-.598-.591zm25.655 22.75a.427.427 0 00-.034.17v1.048h.034v6.866h-2.524v-2.367a1.44 1.44 0 00-.4-1.079 1.462 1.462 0 00-.486-.336 1.461 1.461 0 00-1.16 0 1.458 1.458 0 00-.885 1.415v2.367h-2.76v-2.232a2.932 2.932 0 00-.896-2.03 2.982 2.982 0 00-4.141 0 2.932 2.932 0 00-.896 2.03v2.232h-2.319v-8.995h16.467v.911zm-14.54-.27a.44.44 0 00-.164.032.424.424 0 00-.263.391v1.065h.851v-1.065a.433.433 0 00-.124-.299.415.415 0 00-.138-.091.412.412 0 00-.162-.033zm2.505 0a.442.442 0 00-.442.44v1.048h.885v-1.048a.44.44 0 00-.13-.31.448.448 0 00-.313-.13zm2.49 0a.438.438 0 00-.443.44v1.048h.886v-1.048a.435.435 0 00-.13-.31.448.448 0 00-.313-.13zm2.488 0a.443.443 0 00-.441.44v1.048h.884v-1.048a.435.435 0 00-.13-.31.448.448 0 00-.313-.13zm2.488 0a.448.448 0 00-.313.13.435.435 0 00-.13.31v1.048h.887v-1.048a.438.438 0 00-.274-.406.452.452 0 00-.17-.034zm2.488 0a.446.446 0 00-.443.44v1.048h.887v-1.048a.438.438 0 00-.274-.406.448.448 0 00-.17-.034z" fill="#A7C3A1"/><path d="M193.561 169.457h2.643v3.112h-2.643v9.365h-13.584v-12.477l6.868-3.45 6.716 3.45zm-10.908 9.531h1.33v-2.602h-1.33v2.602zm3.375 0h1.328v-2.602h-1.328v2.602zm3.373-2.602v2.602h1.33v-2.602h-1.33zm-6.748-2.027h1.33v-2.603h-1.33v2.603zm3.375 0h1.328v-2.603h-1.328v2.603zm3.375 0h1.328v-2.603h-1.328v2.603z" fill="#A7C3A1"/><path d="M476.151 821.528l6.755 3.464-17.235-2.165v-10.913l7.015-1.299v-2.252l4.591-.693.519 4.244-12.125 5.457 3.724 4.157h6.756z" fill="#407E40"/><path d="M465.671 817.371l3.724 4.157h6.756l6.755 3.464-17.235-2.165v-5.456zm0 0l12.125-5.457-.519-4.244-4.591.693v2.252l-7.015 1.299v5.457z" stroke="#C9EBC9" stroke-width=".429"/><path d="M463.939 822.394l-6.15-.779-.4-2.555-.4-2.555-.326-2.079h-.952l-.26-2.512 8.488-1.905v12.385z" fill="#407E40"/><path d="M456.663 814.426h-.952l-.26-2.512 8.488-1.905v3.724m-7.276.693l7.276-.693m-7.276.693l.326 2.079m6.95-2.772v2.772m0 0h-6.95m6.95 0v2.555m-6.95-2.555l.4 2.555m0 0l.4 2.555 6.15.779v-3.334m-6.55 0h6.55" stroke="#C9EBC9" stroke-width=".429"/><path d="M633.946 809.126v-8.22c-.961 0-1.912.029-2.848.081v8.092l2.848.047zm-2.848-.047v-8.092c-1.03.057-2.042.143-3.03.254v7.788l3.03.05zm-3.03-.05v-7.788c-1.298.144-2.554.33-3.758.545l1.151 7.2 2.607.043z" fill="#407E40"/><path fill-rule="evenodd" clip-rule="evenodd" d="M681.281 815.634l-4.97 3.334-2.06-1.037-3.334-1.678-3.242-1.632-3.243-1.631-3.454-1.739-3.455-1.738-4.364-.072-3.757-.062-3.395-.055-3.091-.051-3.03-.05-2.972-.049-2.968-.048v-8.22c.996 0 1.987.029 2.968.081 1.003.053 1.995.131 2.972.23a72.557 72.557 0 016.121.896 77.32 77.32 0 017.152 1.714 56.922 56.922 0 014.364 1.443c1.272.163 3.491.574 6 1.276 1.21.338 2.487.744 3.758 1.223 1.155.435 2.305.93 3.394 1.489.163.083.325.168.485.255a128.872 128.872 0 015.758 3.31c2.061 1.257 3.61 2.283 4.363 2.811zm-56.971-13.848l1.151 7.2-1.151-.019-1.212.544-2.728 1.222-4.848 2.174-1.788-3.667 4.96-2.087-1.677-3.58a56.162 56.162 0 012.929-.839 59.182 59.182 0 014.364-.948z" fill="#407E40"/><path d="M617.017 803.573c-2.283.724-4.041 1.457-5.071 2l1.788 3.667 4.96-2.087-1.677-3.58z" fill="#407E40"/><path d="M657.523 809.513l-4.364-.072m4.364.072v-4.243m0 4.243l3.455 1.738m-27.032-10.345v8.22m0-8.22c-.961 0-1.912.029-2.848.081m2.848-.081c.996 0 1.987.029 2.968.081m20.609 4.283a56.922 56.922 0 00-4.364-1.443m4.364 1.443c1.272.163 3.491.574 6 1.276m-29.577 2.58l-2.848-.047m2.848.047l2.968.048m-5.816-8.187v8.092m0-8.092c-1.03.057-2.042.143-3.03.254m3.03 7.838l-3.03-.05m0-7.788v7.788m0-7.788c-1.298.144-2.554.33-3.758.545m3.758 7.243l-2.607-.043m-1.151-7.2l1.151 7.2m-1.151-7.2a59.182 59.182 0 00-4.364.948m5.515 6.252l-1.151-.019-1.212.544m-3.152-6.777l3.152 6.777m-3.152-6.777c-1.05.271-2.03.554-2.929.839m6.081 5.938l-2.728 1.222m-3.353-7.16c-2.283.724-4.041 1.457-5.071 2l1.788 3.667m3.283-5.667l1.677 3.58m1.676 3.58l-4.848 2.174-1.788-3.667m6.636 1.493l-1.676-3.58m0 0l-4.96 2.087m23.18-8.253v8.187m0-8.187c1.003.053 1.995.131 2.972.23m-2.972 7.957l2.972.049m0-8.006v8.006m0-8.006c1.03.104 2.042.231 3.03.376m-3.03 7.63l3.03.05m0-7.68v7.68m0-7.68c1.061.155 2.094.33 3.091.52m-3.091 7.16l3.091.051m0-7.211v7.211m0-7.211a77.32 77.32 0 013.395.724m-3.395 6.487l3.395.055m3.757-5.552v5.614m0-5.614a77.141 77.141 0 00-3.757-.99m3.757 6.604l-3.757-.062m0-6.542v6.542m14.121-2.833l-2.545 4.705m2.545-4.705c1.21.338 2.487.744 3.758 1.223m-6.303 3.482l3.454 1.739m2.849-5.221l-2.849 5.221m2.849-5.221c1.155.435 2.305.93 3.394 1.489m-6.243 3.732l3.243 1.631m6.576 3.31l2.06 1.037 4.97-3.334c-.753-.528-2.302-1.554-4.363-2.811m-2.667 5.108l2.667-5.108m-2.667 5.108l-3.334-1.678m6.001-3.43c-.951-.58-2.011-1.209-3.152-1.861m-2.849 5.291l2.849-5.291m-2.849 5.291l-3.242-1.632m6.091-3.659c-.829-.474-1.702-.961-2.606-1.449-.16-.087-.322-.172-.485-.255m-3 5.363l3-5.363" stroke="#C9EBC9" stroke-width=".429"/><path d="M609.824 806.361c-1.689.602-3.741 1.487-5.939 2.62l1.879 3.73 5.788-2.622-1.728-3.728z" fill="#407E40"/><path fill-rule="evenodd" clip-rule="evenodd" d="M595.703 821.998l-2.728-5.697a45.843 45.843 0 012.728-2.214 52.662 52.662 0 012.485-1.758 58.423 58.423 0 012.727-1.709l3.515 7.315-2.909 1.355-2.694 1.254-3.124 1.454zm11.939-5.558l5.637-2.624-1.727-3.727-5.788 2.622 1.878 3.729z" fill="#407E40"/><path d="M600.915 810.62l3.515 7.315 3.212-1.495-1.878-3.729-1.879-3.73a60.817 60.817 0 00-2.97 1.639z" fill="#407E40"/><path d="M595.703 814.087a45.843 45.843 0 00-2.728 2.214l2.728 5.697 3.124-1.454m-3.124-6.457l3.124 6.457m-3.124-6.457a52.662 52.662 0 012.485-1.758m.639 8.215l2.694-1.254m0 0l-3.333-6.961m3.333 6.961l2.909-1.355m-6.242-5.606a58.423 58.423 0 012.727-1.709m0 0l3.515 7.315m-3.515-7.315a60.817 60.817 0 012.97-1.639m.545 8.954l3.212-1.495m0 0l5.637-2.624-1.727-3.727m-3.91 6.351l-1.878-3.729m-1.879-3.73c2.198-1.133 4.25-2.018 5.939-2.62l1.728 3.728m-7.667-1.108l1.879 3.73m0 0l5.788-2.622" stroke="#C9EBC9" stroke-width=".429"/><path fill-rule="evenodd" clip-rule="evenodd" d="M686.008 817.695l-1.939-.909-4.182 2.818 3.043 4.515 3.078-6.424zm-6.363 8.658l-3.152-4.461-6.182 4.167 9.334.294z" fill="#407E40"/><path d="M681.827 826.422l1.103-2.303-3.043-4.515-3.394 2.288 3.152 4.461 2.182.069z" fill="#407E40"/><path d="M679.887 819.604l4.182-2.818 1.939.909-3.078 6.424m-3.043-4.515l3.043 4.515m-3.043-4.515l-3.394 2.288m6.437 2.227l-1.103 2.303-2.182-.069m0 0l-9.334-.294 6.182-4.167m3.152 4.461l-3.152-4.461" stroke="#C9EBC9" stroke-width=".429"/><path d="M630.855 811.261l-2.424-.051-2.973 4.546 1.882 1.212h3.411l.104-5.707zm3.698.078l-3.698-.078-.104 5.707h3.714l.088-5.629z" fill="#407E40"/><path fill-rule="evenodd" clip-rule="evenodd" d="M668.978 823.938l5.212-3.516-6.192-3.151-3.141-1.599v3.538h-4.425v-5.79l-3.151-1.604-.849-.018-3.636-.076-3.879-.082-3.455-.072-4-.084-3.394-.072-3.515-.073-.088 5.629h-7.125l-1.882-1.212-3.33 5.091 2.849 1.878 1.575.044 4.091.113 3.728.099 3.697.105 3.394.094 4 .11 3.455.095 3.879.107 3.636.1 4 .11 4.425.122 3.141.087.98.027z" fill="#407E40"/><path d="M664.857 815.672l-4.425-2.252v5.79h4.425v-3.538z" fill="#407E40"/><path d="M667.998 817.271l6.192 3.151-5.212 3.516-.98-.027m0-6.64v6.64m0-6.64l-3.141-1.599m3.141 8.239l-3.141-.087m0 0l-4.425-.122m4.425.122v-4.614m0-3.538l-4.425-2.252m4.425 2.252v3.538m-4.425-5.79l-3.151-1.604-.849-.018m4 1.622v4.578m0 5.704l-4-.11m4 .11v-4.492m-4-7.412l-3.636-.076m3.636.076v5.473m0 6.321l-3.636-.1m3.636.1v-5.594m-3.636-6.276v11.77m0-11.77l-3.879-.082m3.879 11.852l-3.879-.107m0 0V811.64m0 11.745l-3.455-.095m3.455-11.65l-3.455-.072m0 0v11.722m0-11.722l-4-.084m4 11.806l-4-.11m0 0v-11.696m0 11.696l-3.394-.094m3.394-11.602l-3.394-.072m0 0v11.674m0-11.674l-3.515-.073m3.515 11.747l-3.697-.105m.182-11.642l-3.698-.078m3.698.078l-.088 5.629m-.094 6.013l-3.728-.099m3.728.099l.094-6.013m-3.61-5.707l-2.424-.051-2.973 4.546m5.397-4.495l-.104 5.707m-.108 5.914l-4.091-.113m4.091.113l.108-5.914m-5.293-1.212l-3.33 5.091 2.849 1.878 1.575.044m-1.094-7.013l1.882 1.212m0 0l-.788 5.801m.788-5.801h3.411m0 0h3.714m0 .303h21.967m0 0v.727m0 0h4m0 0v1.212m0 0h4.425" stroke="#C9EBC9" stroke-width=".429"/><path d="M614.188 815.756l1.879 3.879 2.97 2.121-2.395 3.879-1.872 3.03-1.646 2.667-.936 1.515h-11.697l-.332-.727-1.961-4.303-1.768-3.879 4.735-2.182 2.631-1.212 3.014-1.389 3.014-1.389 4.364-2.01z" fill="#407E40"/><path d="M616.067 819.635l-1.879-3.879-4.364 2.01m6.243 1.869l2.97 2.121-2.395 3.879m-.575-6l-3.879 3.044m-12.029 9.441l.332.727h6.232m-6.564-.727l4.211-3.305m-4.211 3.305l-1.961-4.303m13.99-5.138l4.454 2.956m-4.454-2.956l-2.364-4.913m2.364 4.913l-2.608 2.047m7.062.909l-1.872 3.03m0 0l-5.673-3.56m5.673 3.56l-1.646 2.667m-4.027-6.227l-2.374 1.863m2.374-1.863l.483-.379m3.544 6.606l-.936 1.515h-5.465m6.401-1.515l-6.401-4.364m0 0v5.879m0-5.879l-2.927-6.424m2.927 6.424l-2.353 1.847m-.574-8.271l3.014-1.389m-3.014 1.389l-2.631 1.212m8.659-3.99l-3.014 1.389m2.77 5.571l-2.77-5.571m-2.44 9.66l-1.444-3.18m-1.761-3.879l-4.735 2.182 1.768 3.879m2.967-6.061l1.761 3.879m0 0l-4.728 2.182" stroke="#C9EBC9" stroke-width=".429"/><path d="M624.128 825.028l-3.031-2-2.443 3.819 4.547 2.788.927-4.607z" fill="#407E40"/><path fill-rule="evenodd" clip-rule="evenodd" d="M618.309 853.757h-4v-20.122l2.444-3.819 5.692 3.576-.438 2.182-.356 2.182-.554 3.394-1.03 3.697-.182 4.364-1.576 4.546z" fill="#407E40"/><path d="M623.201 829.635l-4.547-2.788-1.901 2.969 5.692 3.576.756-3.757z" fill="#407E40"/><path d="M614.309 833.635l2.444-3.819m-2.444 3.819l7.698 1.939m-7.698-1.939v4.121m5.576 11.455l-1.576 4.546h-4v-4.546m5.576 0l.182-4.364m-.182 4.364h-5.576m5.758-4.364l1.03-3.697m-1.03 3.697h-5.758m6.788-3.697l.554-3.394m-.554 3.394h-6.788m7.698-5.576l.438-2.182m-.438 2.182l-.356 2.182m1.55-8.121l.927-4.607-3.031-2-2.443 3.819m4.547 2.788l-4.547-2.788m4.547 2.788l-.756 3.757m-3.791-6.545l-1.901 2.969m5.692 3.576l-5.692-3.576m4.898 7.94h-7.342m0 0v3.394m0 0v3.697m0 0v4.364" stroke="#C9EBC9" stroke-width=".429"/><path d="M604.915 846.726v-5.879h-3.818v5.879h3.818zm-4.424-5.879h-2.97l-.788 5.879h4.364v-5.879h-.606z" fill="#407E40"/><path d="M595.914 839.868l-4.454 6.858h5.273l.788-5.879-1.607-.979z" fill="#407E40"/><path fill-rule="evenodd" clip-rule="evenodd" d="M612.188 834.968v11.758h-7.273v-5.879h-7.394l-1.607-.979-2.575-1.567-.364.51-3.095 4.339-3.026-6.849.741-1.03 1.986-2.763 2.061-2.865 2.97-4.13 3.047 6.424 1.438 3.031h13.091z" fill="#407E40"/><path d="M589.88 843.15l1.58 3.576 4.454-6.858-2.575-1.567-.364.51-3.095 4.339z" fill="#407E40"/><path d="M591.46 846.726l-1.58-3.576m1.58 3.576l4.454-6.858m-4.454 6.858h5.273m2.364-11.758l-1.438-3.031m1.438 3.031l-3.183 4.9m3.183-4.9h2.848m10.243 5.879v-5.879h-3.636m3.636 5.879v5.879h-3.636m3.636-5.879h-3.636m-11.031 0l-1.607-.979m1.607.979h2.97m-2.97 0l-.788 5.879m-3.394-8.425l-.364.51m.364-.51l1.564-2.303m-1.564 2.303l2.575 1.567m-6.034 3.282l-3.026-6.849.741-1.03m2.285 7.879l3.095-4.339m4.684-6.874l-3.047-6.424-2.97 4.13m6.017 2.294l-.781 1.152m-3.903 5.722l-5.38-3.54m0 0l1.986-2.763m0 0l5.322 3.49m-5.322-3.49l2.061-2.865m3.261 6.355l1.975-2.909m-5.236-3.446l5.236 3.446m5.067 1.879l-1.454 5.879m1.454-5.879h2.97m-4.424 5.879h.606m3.818-5.879h3.637m-3.637 0v5.879m0 5.879h3.637m-3.637 0v-5.879m0 5.879h-3.818m7.455-11.758v5.879m0 5.879v-5.879m0 0h-3.637m0 0h-3.818m0 0v5.879m0 0h-4.364" stroke="#C9EBC9" stroke-width=".429"/><path d="M613.036 849.272v4.485h-31.334v-3.031l-1.29-3.818-.892-2.727-.909-2.607a609.398 609.398 0 014.667-10.121 73.316 73.316 0 012.616-5.031c.979-1.709 1.768-2.905 2.172-3.454 0-.627.085-2.025.424-2.606.34-.582 1.919-1.899 2.667-2.485l2.364 5.091-1.329 1.879-2.871 4.06-3.316 4.691-1.697 2.4 1.044 2.485 1.044 2.485 1.146 2.728 1.12 2.666 1.222 2.91h23.152z" fill="#407E40"/><path d="M589.884 849.272h3.394m-3.394 0l-4.606 4.485m4.606-4.485l-1.222-2.91m-.596-23.394c0-.627.085-2.025.424-2.606.34-.582 1.919-1.899 2.667-2.485l2.364 5.091-1.329 1.879m-4.126-1.879c-.404.549-1.193 1.745-2.172 3.454m2.172-3.454l4.126 1.879m-8.914 6.606a609.398 609.398 0 00-4.667 10.121m4.667-10.121l2.727 2.145m-2.727-2.145a73.316 73.316 0 012.616-5.031m-7.283 15.152l.909 2.607m-.909-2.607l6.741-3.091m-3.65 12.243v3.031h3.576m-3.576-3.031l6.96-4.364m-6.96 4.364l-1.29-3.818m27.836 2.364h4.788v4.485h-4.788m0-4.485v4.485m0-4.485H603.4m4.848 4.485H603.4m0-4.485v4.485m0-4.485h-5.031m5.031 4.485h-5.031m0-4.485v4.485m0-4.485h-5.091m5.091 4.485h-5.091m0-4.485v4.485m0 0h-8m3.384-7.395l-1.12-2.666m0 0l-7.13 3.212m7.13-3.212l-1.146-2.728m-5.984 5.94l-.892-2.727m6.876-3.213l-6.876 3.213m6.876-3.213l-1.044-2.485m0 0l-1.044-2.485 1.697-2.4m0 0l3.316-4.691m0 0l-3.427-2.485m3.427 2.485l2.871-4.06" stroke="#C9EBC9" stroke-width=".429"/><path d="M557.478 830.795v10.48h-19.574l-1.905 1.07-2.685 1.508-1.733.973-5.629-2.858-5.63-2.858 3.421-1.899 3.421-1.898 2.945-1.634 2.945-1.634 2.252-1.25h22.172z" fill="#407E40"/><path d="M537.904 841.275h3.291m-3.291 0v-10.48m0 10.48l-1.905 1.07m21.479-6.31v-5.24h-3.205m3.205 5.24v5.24h-3.205m3.205-5.24h-22.172m0 0l-2.252-3.99m2.252 3.99l-2.513 1.594m-6.841 4.339l5.629 2.858 1.733-.973m-7.362-1.885l-5.63-2.858 3.421-1.899m2.209 4.757l2.048-1.299m-.836-5.356l3.075 4.27 3.075 4.27m-6.15-8.54l-3.421 1.898m3.421-1.898l2.945-1.634m3.205 10.174l2.685-1.508m-12.256-5.134l4.257 3.458m0 0l4.793-3.04m21.48-6.834v10.48m0-10.48h-3.377m3.377 10.48h-3.377m0-10.48v10.48m0-10.48h-3.032m3.032 10.48h-3.032m0-10.48v10.48m0-10.48h-3.378m3.378 10.48h-3.378m0-10.48v10.48m0-10.48h-3.291m3.291 10.48h-3.291m0-10.48v10.48m0-10.48h-3.291m0 0h-2.598l-2.252 1.25m0 0l-2.945 1.634m0 0l2.684 3.95m3.206 4.716l-3.206-4.716" stroke="#C9EBC9" stroke-width=".429"/><path d="M555.919 852.275h1.473l.952-1.213.953-1.212v-19.055h5.63v22.952l-1.213.638-3.551 1.867-4.244 1.652-3.031-1.578-7.449-3.878 7.449-1.478 3.031-.601v1.906z" fill="#407E40"/><path d="M559.297 849.85v-3.205m0 3.205h5.63m-5.63 0l-.953 1.212m-.952 1.213h-1.473m1.473 0l2.771 3.977m-2.771-3.977l.952-1.213m-2.425 1.213v-1.906l-3.031.601m3.031 1.305v5.629m0 0l4.244-1.652m-4.244 1.652l-3.031-1.578m6.409-22.413v-3.118h5.63v3.118m-5.63 0h5.63m-5.63 0v3.205m5.63-3.205v3.205m0 0h-5.63m5.63 0v3.204m-5.63-3.204v3.204m0 0h5.63m-5.63 0v3.118m5.63-3.118v3.118m0 0h-5.63m5.63 0v3.205m-5.63-3.205v3.205m0 0h5.63m0 0v3.205m0 0v3.897l-1.213.638m-3.551 1.867l3.551-1.867m-5.37-3.323l5.37 3.323m-10.826-3.415l-7.449 1.478 7.449 3.878m0-5.356v5.356" stroke="#C9EBC9" stroke-width=".429"/><path fill-rule="evenodd" clip-rule="evenodd" d="M557.565 848.637v-5.457H543.36v7.969l5.284-.935 2.858-.505 2.945-.521 3.118-.551zm-17.831.551l-5.987-3.236 4.33-2.772h1.657v6.008z" fill="#407E40"/><path d="M543.36 851.149v-7.969h-3.626v6.008l3.626 1.961z" fill="#407E40"/><path d="M543.36 851.149l5.284-.935m-5.284.935v-4.452m0 4.452l-3.626-1.961m14.713-6.008h3.118v5.457l-3.118.551m0-6.008v6.008m0-6.008h-2.945m2.945 6.008l-2.945.521m0-6.529v6.529m0-6.529h-2.858m2.858 6.529l-2.858.505m0-7.034h-5.284m5.284 0v3.517m0 3.517v-3.517m-5.284-3.517v3.517m0-3.517h-3.626m8.91 3.517h-5.284m-3.626 2.491l-5.987-3.236 4.33-2.772h1.657m0 6.008v-6.008" stroke="#C9EBC9" stroke-width=".429"/><path fill-rule="evenodd" clip-rule="evenodd" d="M538.424 853.574l-3.292.666-3.464.702-3.118.631-3.118.631-3.118.631-2.011.407-3.272.663-1.732 3.897 5.004 1.163 3.57.829 3.031-.829 3.032-.83 3.118-.853 3.378-.309 3.464-.316-1.472-7.083z" fill="#407E40"/><path d="M550.116 859.723l-11.692-6.149 1.472 7.083 10.22-.934z" fill="#407E40"/><path d="M538.424 853.574l11.692 6.149-10.22.934m-1.472-7.083l1.472 7.083m-1.472-7.083l-3.292.666m-11.259 9.554l3.031-.829m-3.031.829l-1.559-6.959m1.559 6.959l-3.57-.829m12.751-1.683l3.378-.309m-3.378.309l-1.386-6.34m1.386 6.34l-3.118.853m9.96-1.478l-3.464.316m-1.3-6.733l1.3 6.733m-1.3-6.733l-3.464.702m0 0l-3.118.631m0 0l1.386 6.562m-1.386-6.562l-3.118.631m4.504 5.931l-3.032.83m-1.472-6.761l1.472 6.761m-1.472-6.761l-3.118.631m0 0l-2.011.407m0 5.723l-5.004-1.163 1.732-3.897 3.272-.663m0 5.723v-5.723" stroke="#C9EBC9" stroke-width=".429"/><path d="M518.85 855.739l5.196-9.094 2.793 1.386 3.53 1.752 5.197 2.578-7.622 1.54-4.504.911-4.59.927z" fill="#407E40"/><path d="M526.839 848.031l-2.793-1.386-5.196 9.094 4.59-.927m3.399-6.781l-3.399 6.781m3.399-6.781l3.53 1.752m-6.929 5.029l4.504-.911m2.425-4.118l5.197 2.578-7.622 1.54m2.425-4.118l-2.425 4.118" stroke="#C9EBC9" stroke-width=".429"/><path d="M564.927 826.292v2.858h-30.141l-2.371 1.212-2.703 1.382-2.98 1.524-3.032 1.55-4.33 2.213-5.197-.346-4.157-2.202-3.69-1.955-3.845-2.037-2.859-1.514-3.984-.866-8.574-.953-1.906-2.425c1.819-.087 5.838-.364 7.362-.78 1.237-.337 2.62-.492 4.244-.441.878.028 1.825.116 2.858.268.417.061.884.211 1.386.426 1.116.477 2.409 1.278 3.724 2.152 1.236.822 2.492 1.709 3.638 2.454.971.631 1.863 1.161 2.598 1.464.275.113.565.215.867.308 1.093.336 2.329.543 3.464.666 1.237.133 2.353.165 3.031.152l2.762-1.429 2.762-1.429 2.878-1.489 2.98-1.543 3.515-1.819 4.158-.237 3.118-.178 3.204-.183 2.858-.164 2.772-.158 2.685-.154 2.685-.153 2.771-.158c1.376 0 2.559.171 3.551.455 2.608.747 3.898 2.274 3.898 3.529z" fill="#407E40"/><path d="M557.478 822.308v6.842m0-6.842c1.376 0 2.559.171 3.551.455m-3.551-.455l-2.771.158m-21.48 1.227l4.158-.237m-4.158.237l1.559 5.457m-1.559-5.457l-3.515 1.819m-11.382 5.89l2.762-1.429m-2.762 1.429l1.04 5.629m-1.04-5.629a25.571 25.571 0 01-3.031-.152m-19.661-3.139l-8.574-.953-1.906-2.425c1.819-.087 5.838-.364 7.362-.78 1.237-.337 2.62-.492 4.244-.441m-1.126 4.599l3.984.866m-3.984-.866l1.126-4.599m2.858 5.465l2.859 1.514m-2.859-1.514l1.386-4.771m13.165 12.479l5.197.346m-5.197-.346l1.126-5.435m-1.126 5.435l-4.157-2.202m9.354 2.548l4.33-2.213m11.086-5.668h2.599m-2.599 0l-2.371 1.212m25.063-1.212h3.551m-3.551 0h-2.771m6.322-6.387c2.608.747 3.898 2.274 3.898 3.529v2.858h-3.898m0-6.387v6.387m-6.322-6.684v6.684m0-6.684l-2.685.153m2.685 6.531h-2.685m0-6.531v6.531m0-6.531l-2.685.154m2.685 6.377h-2.685m0-6.377v6.377m0-6.377l-2.772.158m2.772 6.219h-2.772m0-6.219v6.219m0-6.219l-2.858.164m2.858 6.055h-2.858m0-6.055v6.055m0-6.055l-3.204.183m3.204 5.872h-3.204m0-5.872v5.872m0-5.872l-3.118.178m3.118 5.694h-3.118m0-5.694v5.694m-7.673-3.638l2.703 4.85m-2.703-4.85l-2.98 1.543m5.683 3.307l-2.703 1.382m-2.98-4.689l2.98 4.689m-2.98-4.689l-2.878 1.489m5.858 3.2l-2.98 1.524m-2.878-4.724l2.878 4.724m-2.878-4.724l-2.762 1.429m5.64 3.295l-3.032 1.55m-2.608-4.845l2.608 4.845m-8.401-3.568c-1.135-.123-2.371-.33-3.464-.666m0 0a10.123 10.123 0 01-.867-.308c-.735-.303-1.627-.833-2.598-1.464m3.465 1.772l-1.819 3.899m0 0l-3.69-1.955m2.044-3.716l-2.044 3.716m2.044-3.716c-1.146-.745-2.402-1.632-3.638-2.454m1.594 6.17l-3.845-2.037m2.251-4.133l-2.251 4.133m2.251-4.133c-1.315-.874-2.608-1.675-3.724-2.152m0 0c-.502-.215-.969-.365-1.386-.426a25.175 25.175 0 00-2.858-.268" stroke="#C9EBC9" stroke-width=".429"/><path d="M605.287 801.867l2.685 1.733c7.189-3.118 21.999-9.528 37.503-5.976 17.138 3.925 29.765 10.046 38.022 13.857l1.212-6.929-2.252-8.747c-5.11-3.811-20.145-11.433-39.407-11.433-24.078 0-40.621 10.393-42.613 13.252-1.594 2.286.664 3.782 1.992 4.243h2.858z" fill="#2872B2"/><path d="M489.037 811.47c.01-.76.064-1.317.18-1.432-.213-.17-.213-.191-.298-.222-.169-.053-.317-.139-.508-.233a3.552 3.552 0 00-1.395.36c-.382.181-.803.433-1.365.71-.772.38-1.968.713-2.558 1.322-.665.687-.96 1.193-1.097 1.585-.137.391-.299.724-.295 1.347.011 1.729.041 2.273.265 2.712.297.584.593 1.238.814 1.574.222.339.487.739.772 1.131.253.35.351.969.845 1.65.254.349.398.719.773.983.539.379.879.616 1.755.537.582-.053 1.22-.094 1.828-.19.467-.075 1.053-.034 1.702-.307.454-.191.968-.259 1.723-.847.38-.296.695-.603.887-.93.211-.36.471-.742.411-1.237-.053-.435.022-1.361-.456-1.373-.381-.009-.766.146-1.173.318-.328.138-.495.654-.878.73a1.442 1.442 0 01-.591-.022c-.361-.085-.871-.155-1.269-.254-.338-.085-.774-.1-1.068-.455-.413-.501-1.53-1.479-1.108-1.65.754-.305 2.719-.35 2.833-.76a.255.255 0 00-.043-.233c-.233-.264-.692-.532-.708-1.427-.031-1.722.016-2.96.022-3.387zm-18.909 5.714c-.145-.271-.237-.6-.237-.823.067 0 .133 0 .192-.007.06-.007.112-.02.172-.033.244-.066.564-.189 1.135-.383.35-.119.75-.382 1.207-.548.238-.085.499-.195.752-.296.398-.16 1.063-.37 1.67-.667.309-.152.498-.293 1.263-.529 1.132-.349 1.572-.535 2.051-.666 1.114-.303 1.63-.404 1.911-.573.404-.245 1.047-.534 1.061-.316.013.206.002.472-.053.693-.053.212-.151.498-.198.773-.053.31-.206.541-.224 1.282a45.371 45.371 0 00-.007 2.054c.02.628.072.773.066 1-.02.83-.038 1.126-.132 1.707-.02.125-.058.194-.227.203-.455.027-.879.006-1.1-.046-.251-.06-.55-.096-.825-.178-.217-.066-.94-.318-1.358-.575-.205-.125-.459-.311-1.279-.336-1.315-.039-1.63-.068-1.882-.138-.211-.06-.441-.095-.739-.251-.264-.139-.509-.375-1.287-.264-.323.047-.447.322-.819.357-.349.033-.626.004-.704-.1a.477.477 0 01-.079-.239c-.067-.567-.21-.876-.33-1.101zm26.781 2.972c-1.813.559-2.231.785-2.525.785a.896.896 0 00-.305.242c-.076.09-.151.19-.189.292-.038.101-.038.202 1.37.252 1.408.05 4.14.05 5.545.089 1.405.039 1.501.109 1.518.229.037.265.036.568.216.708.406.317.856.579 1.266.772.432.203 1.182.247 1.24.711.05.405.063.824.28.909.129.05.339.079.481.012.456-.215 2.073-.484 3.013-.189.406.127 1.149.177 1.074.545-.038.19-.139.424-.33.48-.393.116-.973.172-1.164.584-.088.189-.309.51-.125.595.653.302 1.656.12 2.128.176a.968.968 0 01.607.292c.343.368.761.589 1.445.912.722.341 1.305.672 1.873.492.239-.076.452-.184.53-.368.038-.09.055-.199-.001-.279-.241-.342-.78-.655-.708-1.177.014-.101.109-.165.216-.202.432-.151 1.2-.093 1.24-.56.05-.583.117-1.048.292-1.188.19-.151.356-.397.608-.443.908-.163 2.202-.181 2.57.065.38.255.757.644.746 1.078-.014.52-.246.971-.533 1.493-.063.115-.075.245.015.265.228.05.498-.031.786-.102.607-.152 1.061-.208 1.506-.304.469-.101.89-.117 1.342-.253.418-.126.798-.236 1.291-.406.444-.152 1.06-.335 1.532-.557.431-.203 1.107-.464 1.621-.709.532-.253.955-.529 1.481-.709.521-.178 1.112-.461 1.571-.646.594-.24 1.008-.405 1.468-.544.418-.126.811-.275 1.227-.341.406-.064.814-.146 1.216-.241.431-.101 1.495-.175 2.344-.215.822-.038 1.324-.123 1.797-.152.62-.038 1.13-.065 1.556-.165.432-.101.94-.136 1.406-.24.621-.139 1.112.116 2.686-.228.644-.14 1.298-.291 1.339-.749.063-.709.023-1.414.431-1.479.393-.064.951-.003 1.748-.622.163-.127.205-.231.175-.329-.064-.202-.199-.592-.584-.822-.189-.114-.577-.121-1.039-.177-.519-.063-.979-.29-1.506-.202-.227.038-.41.136-.595.331-.493.519-.623 1.095-.987 1.29-.164.088-.615.171-1.077.482-.506.341-.98.383-1.206.728-.057.087-.084.193-.097-.058-.014-.252.109-1.044-.273-1.138-1.371-.339-1.869-.413-2.215-.678-.361-.275-.809-.717-1.206-1.014-.338-.254-.677-.597-1.247-.804-.466-.168-.926-.331-1.697-.327-1.898.012-2.448.088-2.944.181-.455.084-.977.356-2.052.168-.601-.105-.986-.186-1.807-.306-.507-.075-.969-.175-1.588-.169-1.265.011-1.747.02-2.408.212-.91.264-1.828.747-2.344.548-.085-.033-.177-.122-.147-.201a.852.852 0 01.457-.476c1.009-.477 2.018-.767 2.515-.855.477-.085 1.027-.07 3.852-.201.682-.032 2.081.007 4.05-.063.882-.032 1.386-.195 1.95-.318.539-.117.888-.429 1.32-.613.424-.18.856-.268 1.428-.444.519-.16 1.077-.349 1.522-.592.56-.307 1.181-.578 1.044-.941-.064-.169-.275-.401-.625-.761-.349-.361-.533-1.026-1.122-1.088-.496-.053-.965-.048-1.289.011-.581.106-1.035.354-1.574.381-1.264.063-3.277-.115-4.685-.053-1.201.052-2.449.169-3.042.222-.476.042-1.513-.001-2.199.211-.476.148-.945.158-1.437.254-.434.085-.852.196-1.756.306-.603.074-1.242.064-1.786.159-.848.148-1.817.246-2.539.285-1.395.075-2.457-.015-2.491.456-.041.572-.04 1.145.139 1.596.18.455.468.764.995 1.057.475.264 1.017.488 1.108.909.021.096.016.215-.065.285-.169.148-1.251.206-2.051.264-.445.032-.914.199-1.501.412-.466.17-1.142.596-1.448.21-.285-.361-.547-.813-1.015-.983-.732-.266-1.904-.661-2.558-.442l-.006.002c-.22.073-.464.154-.532.38-.041.139.004.364-.074.518-.265.528-.482 1.131-.878 1.351-.381.212-2.418.33-3.7.391-.678.032-1.244.046-1.723.212-.52.18-1.124.298-1.586.465-.73.264-1.218.444-2.595.868z" fill="#339F33"/><path d="M377.757 416.596l.057.856.079-.009-.136-.847zM412.57 411l.858.012a.79.79 0 00-.013-.161l-.845.149zm-40.816 5.996l-.057-.857a1.253 1.253 0 00-.064.007l.121.85zm-23.61-9.992l.302-.804-.055-.018-.247.822zm25.21 18.385l-.686-.516.686.516zm4.403 18.783l-.745.427c.032.056.07.108.114.155l.631-.582zm23.609 25.578l.712-.478a.815.815 0 00-.082-.104l-.63.582zm21.208 31.573l-.712.479a.369.369 0 00.017.025l.695-.504zm-84.052-115.952l.853.094-.853-.094zm.419-3.945l.854.087a.87.87 0 00-.007-.228l-.847.141zm1.601-4.396l.606.607-.606-.607zm7.602-2.848l.192.837-.192-.837zm3.202-.642l.146.846a.936.936 0 00.179-.051l-.325-.795zm9.203-9.3l.687.515a.882.882 0 00.048-.071l-.735-.444zm28.412-13.25l.387.766a.862.862 0 00.25-.191l-.637-.575zm9.203-11.929l-.753-.411.753.411zm8.804 0l-.858-.026v.042l.858-.016zm.8 44.763l-.858.015c.001.045.005.09.013.134l.845-.149zm7.202 43.163l.787-.345-.787.345zm16.007 15.986l.607-.607-.607.607zm2.4 2.398l-.512.689h.001l.511-.689zm2.002 1.199l.475-.714a.74.74 0 00-.082-.049l-.393.763zm10.403.8l.086.854-.086-.854zM100.849 152.82l.362-.778-.362.778zm-20.007-13.188l-.627-.587a.858.858 0 00-.129.994l.756-.407zm11.604-12.39l.626.587a.86.86 0 00.228-.504l-.854-.083zm8.403-86.726l-.507-.693a.86.86 0 00-.347.61l.854.083zm67.302 99.115l.85-.115-.85.115zM302.127 12.939l.388-.766a.863.863 0 00-.388-.092v.858zm-157.661.355l.093.854a.883.883 0 00.093-.016l-.186-.838zm-9.204 2.043l.328.793-.328-.793zm-1.2-42.365l.831-.216-.831.216zm-8.403-37.168l.841-.172a.862.862 0 00-.216-.416l-.625.588zm194.075 246.591l-.172.841a.865.865 0 00.34.001l-.168-.842zm38.014 21.981l.858.037v-.037h-.858zm67.226-40.765l-.275.813.275-.813zm25.611 7.594l.107.851-.107-.851zm18.007-8.185l-.257-.819.257.819zm24.809-2.607l-.128.849.128-.849zm.837.126l-.127.849.127-.849zm79.194-13.714l.115-.85a.852.852 0 00-.593.137l.478.713zM382.558 72.088l-.806-.293a.859.859 0 00-.023.516l.829-.223zm16.007-43.962l-.758-.403a.869.869 0 00-.049.109l.807.293zm17.606-33.172l.758.402a.843.843 0 00.088-.258l-.846-.144zm3.86-17.585l.808.29v-.002l-.808-.288zm.542-1.2l-.714-.476.714.477zm31.212-51.156l.499.699.016-.012-.515-.687zm4.001-7.194l-.846-.143v.002l.846.141zm1.175-1.405a.858.858 0 00-1.673-.385l.836.192.837.193zM232.9 161.613l.149-.845a.855.855 0 00-.999.729l.85.116zm45.217 7.993l.238-.825a.928.928 0 00-.088-.02l-.15.845zm6.403 1.988l-.269.815.269-.815zm15.606 6.804l-.574.638a.868.868 0 00.403.203l.171-.841zm13.922-10.391l.842-.167-.842.167zm-7.119-24.379l.574-.638-.574.638zm-15.206-27.177l-.469.718.469-.718zm-34.814-24.38l-.771.377.771-.376zm-2.035-153.47l-.858.012.858-.011zm.493-27.587a.858.858 0 00-1.716.023l.858-.011.858-.012zm-135.658-3.423a.859.859 0 00-1.706.192l.853-.096.853-.096zM108.452-9.043l-.858-.021a.85.85 0 00.105.433l.753-.412zm8.403-53.154l-.526-.678h-.001l.527.678zm.801-.648l-.554-.656.554.656zm4.001-4.548l.768.384a.857.857 0 00.085-.48l-.853.096zm9.604 104.711l.74-.435-.74.435zm6.802 9.592l-.416.75.416-.75zm36.845 221.811l.663.545a.106.106 0 00.009-.011l-.672-.534zm-7.087-114.303l-.846.141a.798.798 0 00.039.151l.807-.292zm.654-12.389l.818.26a.85.85 0 00.032-.375l-.85.115zm64.025 98.316l.722-.464-.722.464zm9.203 10.254l-.592.621.592-.621zm-69.238-86.785a.858.858 0 00-.776-1.531l.388.766.388.765zm12.017 50.554l-.141.846.141-.846zm48.818 88.325l-.757.403a.856.856 0 00.965.429l-.208-.832zm-66.825-175.451l-.857-.057a.9.9 0 00.006.172l.851-.115zm2.801-41.566l.856.058a.857.857 0 00-.089-.442l-.767.385zm-2.124-4.395l-.783.352.008.017.775-.37zm-8.681-21.582l-.839.178a.8.8 0 00.017.066l.822-.244zm79.231 247.39l-.741.433.741-.433zm2.801 29.975l-.853.094c.003.026.008.052.013.078l.84-.172zm8.804 39.966l-.827.231.827-.231zm3.975 45.561l-.857.052a.86.86 0 00.826.806l.031-.858zm33.639 1.199l.858.029a.859.859 0 00-.827-.887l-.031.858zm-1.6 47.159l-.858-.029a.859.859 0 00.439.778l.419-.749zm26.009 14.546l-.003.858.003-.858zm-70.827-187.077l-.335-.79a.993.993 0 00-.103.052l.438.738zm20.408-12.111l.585.627-.585-.627zm44.11-83.529l-.841-.173v.001l.841.172zm4.165-22.656a.858.858 0 00-1.713-.103l.856.052.857.051zm-5.796 29.449l.827.23v-.001l-.827-.229zm-5.264 13.589l.807.29-.807-.29zm-7.564 24.38l-.857-.051.857.051zm-.04 1.198l.722.465a.861.861 0 00.136-.465h-.858zm41.617-41.546l-.138.847.138-.847zm4.801.781l-.068.856.068-.856zm19.608 24.379l-.858-.036a.862.862 0 00.123.48l.735-.444zm105.641 156.267l-.621.593.009.009.612-.602zm66.701 23.58l.597.617-.597-.617zm-138.489 44.934a.858.858 0 10-1.281-1.142l.641.571.64.571zm-8.707 8.221l-.624-.589.624.589zm-18.744 16.787l-.53-.675a.851.851 0 00-.258.336l.788.339zm-19.607 3.196l-.019-.858.019.858zm-24.81.175l.001-.858-.001.858zm118.372-73.313l-.595-.618.595.618zm113.718-63.546l.858.02a.83.83 0 00-.011-.157l-.847.137zm-.8 38.367l-.811-.28.811.28zm-3.602 8.393l.597.617.041-.042-.638-.575zm2.402-59.149l.847-.137-.003-.017-.844.154zm11.204-39.167l-.204.834a.76.76 0 00.083.016l.121-.85zm-18.808 50.757l.003.858h.001l-.004-.858zm-46.018 3.136l-.011-.858.011.858zm39.616-72.677l.014-.858h-.014v.858zm2.001 5.595l-.808.289a.887.887 0 00.054.122l.754-.411zm46.272-4.795l.812-.277a.874.874 0 00-.078-.167l-.734.444zM490.2 174.801l-.81.285.81-.285zm-15.425-23.58l-.718.47c.023.036.049.07.077.102l.641-.572zm57.841 152.671l-.318-.797.318.797zm4.002-4.397l.706.488a.668.668 0 00.041-.067l-.747-.421zm-50.42 5.995l-.354.782a.848.848 0 00.354.077v-.859zm-25.609-11.59l.353-.782a.856.856 0 00-.923.14l.57.642zm-3.602 3.197l-.57-.641a.843.843 0 00-.201.265l.771.376zm-7.203 13.189l-.722-.464.722.464zm38.015 53.155l.534.672.001-.001-.535-.671zm-.873.799l.586.627-.586-.627zm-5.053 4.796l-.592-.621.592.621zm4.325 0l.61-.604a.857.857 0 00-.351-.215l-.259.819zm-39.215 52.355l.375-.772-.012-.006-.363.778zm30.012-1.598l.576.636-.576-.636zm42.816-41.565l.607.608-.607-.608zm4.002-9.192l-.857-.054.857.054zm2-113.104l.858.016a.861.861 0 00-.065-.343l-.793.327zm-4.15-9.591l.782-.354-.782.354zm-4.302-10.008a.858.858 0 10-1.501.832l.75-.416.751-.416zm-39.166-7.578v-.858h-.01l.01.858zm-68.827.8l-.424.746a.86.86 0 00.434.112l-.01-.858zm-30.411 71.939l-.774.37a.854.854 0 00.154.223l.62-.593zm-8.804-18.385l-.858-.012a.863.863 0 00.084.383l.774-.371zm-1.238-15.587l.846-.141-.846.141zm-86.395 18.785l.73-.45-.73.45zm52.02 87.233l.439-.737a.86.86 0 00-.348-.116l-.091.853zm-3.699-49.666l-.82.252.82-.252zm-1.104-3.596l.821-.252a.911.911 0 00-.071-.167l-.75.419zm-26.41-44.715l.735-.443a.269.269 0 00-.014-.022l-.721.465zm-7.149-10.839l-.705.49.705-.49zm37.238 67.543l-.82.252.82-.252zm3.925 12.79l-.84.178.84-.178zm1.6 19.183l.858.017v-.019l-.858.002zm-2.41-43.962l-.466-.721.466.721zm18.817-14.389l-.814-.271.814.271zm-189.915-71.938l-.817-.263a.849.849 0 00-.024.433l.841-.17zm-2.56-29.175l-.772.376.772-.376zm-14.343-32.373l.76-.398-.76.398zm20.746 103.16l-.663-.545a.858.858 0 00-.175.733l.838-.188zm7.602 33.924l.204.834a.86.86 0 00.634-1.022l-.838.188zm-11.445 2.798l-.204-.834a.86.86 0 00-.622 1.067l.826-.233zm3.843 39.566l-.82-.255a.858.858 0 00.82 1.113v-.858zm7.602 0l.858.015a.862.862 0 00-.245-.617.86.86 0 00-.613-.256v.858zm-1.6 89.524l.65.56a.86.86 0 00.208-.545l-.858-.015zm-17.207 19.982l-.65-.56a.859.859 0 00.211 1.297l.439-.737zm34.814 20.784l-.44.736a.865.865 0 00.421.122l.019-.858zm63.624 1.444l.036-.858h-.016l-.02.858zm33.213 1.752l-.058.856c.016.002.032.002.048.002l.01-.858zm10.404.096l-.006.858.006-.858zm19.232-.287a.858.858 0 101.551.736l-.775-.368-.776-.368zm2.377-3.005l-.73-.452a.844.844 0 00-.045.084l.775.368zm12.805-36.77l.834-.201a.879.879 0 00-.121-.277l-.713.478zm-4.803-10.79l-.85-.114.85.114zm101.64-349.704l.656-.553-.656.553zm-46.418-17.584l-.645.565a.858.858 0 00.575.29l.07-.855zm-6.803-7.765l-.683.519a.9.9 0 00.038.046l.645-.565zM365.352 44.91l.579-.633-.579.633zM65.614 58.93a.858.858 0 00-.758 1.54l.379-.77.379-.77zm108.463-10.021v-.858a.859.859 0 00-.338.07l.338.788zm130.451 0v.858a.86.86 0 00.641-.287l-.641-.571zm284.728 69.369a.858.858 0 00-1.577-.678l.789.339.788.339zm13.83 29.707a.858.858 0 00-.058-1.716l.029.858.029.858zM486.198 589.137l-.695.504a.879.879 0 00.201.198l.494-.702zm132.735 93.541l.843-.158a.855.855 0 00-.349-.543l-.494.701zm6.865 36.473l-.843.159c.04.21.156.398.327.527l.516-.686zm41.622 31.323l-.516.686a.86.86 0 00.6.168l-.084-.854zm30.465-3.003l.399-.76a.851.851 0 00-.483-.094l.084.854zm58.356 52.348l.789-.338a.9.9 0 00-.03-.063l-.759.401zM561.194 878.62l.053-.856-.053.856zm136.961-10.567l.308.8-.308-.8zm78.682-20.176l-.321.796 1.929.777-.819-1.911-.789.338zM533.545 682.678l.852-.102-.852.102zm-79.382 25.317l-.851-.107.851.107zm0 21.883l.787.344.082-.188-.012-.205-.857.049zm-9.01 20.596l-.787-.344-.056.129-.012.139.855.076zm-7.295 81.858l-.369.775.369-.775zm-60.101-415.736l.164-.843h-.004l-.005-.001a.036.036 0 00-.011-.002l-.028-.005-.079-.01a2.373 2.373 0 00-.24-.014 3.111 3.111 0 00-.761.092l.203.833.204.834a1.377 1.377 0 01.409-.039l.003.001-.007-.002-.006-.001h-.003l-.002-.001h-.002l.165-.842zm0 0l.136.847 34.813-5.595-.136-.848-.136-.847-34.814 5.595.137.848zm0 0l-.058-.857-.76.051.057.856.057.857.761-.051-.057-.856zm-.761.05l-.057-.856-5.242.349.057.857.057.856 5.242-.349-.057-.857zm-5.242.35l-.121-.85c-.493.07-.797.133-1.074.19-.266.056-.498.105-.877.159-.777.111-2.178.243-5.581.443l.05.857.05.856c3.4-.2 4.867-.334 5.723-.456.438-.063.715-.122.986-.178.261-.055.524-.109.965-.172l-.121-.849zm-7.603.799l-.05-.857c-2.969.174-4.957-1.56-7.231-3.982-2.208-2.352-4.662-5.343-8.424-6.756l-.302.804-.301.803c3.298 1.238 5.446 3.843 7.776 6.323 2.263 2.411 4.748 4.747 8.582 4.521l-.05-.856zm-16.007-10.791l.247-.822c-1.483-.445-3.843-1.428-6.028-2.915-2.197-1.495-4.11-3.426-4.877-5.727l-.815.272-.814.271c.939 2.816 3.206 5.014 5.54 6.603 2.347 1.597 4.871 2.652 6.501 3.14l.246-.822zm28.852 9.642l-.145-.845a1.946 1.946 0 00-1.042.504 2.19 2.19 0 00-.549.906c-.191.565-.258 1.335-.35 2.026-.196 1.469-.565 3.403-2.242 5.636l.686.516.686.515c1.925-2.563 2.356-4.825 2.571-6.441.114-.852.154-1.346.275-1.703.051-.151.094-.2.109-.214.005-.005.032-.034.146-.054l-.145-.846zm-3.642 8.743l-.686-.516c-1.105 1.472-1.249 3.529-.997 5.578.256 2.084.945 4.355 1.731 6.432a59.259 59.259 0 002.393 5.413 58.468 58.468 0 001.191 2.258l.019.032.005.009.001.002v.001c.001 0 .001.001.746-.426l.744-.426v-.001l-.004-.007a.387.387 0 01-.016-.028l-.064-.114a55.35 55.35 0 01-1.087-2.068 57.24 57.24 0 01-2.322-5.253c-.765-2.019-1.401-4.145-1.633-6.033-.237-1.922-.03-3.412.665-4.338l-.686-.515zm4.403 18.783l-.631.582 23.609 25.578.631-.582.63-.582-23.609-25.578-.63.582zm-39.235-58.801l.853.094c.159-1.431.299-2.757.42-3.952l-.854-.087-.854-.087c-.12 1.191-.26 2.511-.418 3.938l.853.094zm.419-3.945l.847-.141c-.098-.587-.004-2.285 1.36-3.648l-.606-.607-.607-.608c-1.836 1.835-2.009 4.132-1.84 5.145l.846-.141zm1.601-4.396l.606.607c.189-.189.526-.417 1.026-.668a15.48 15.48 0 011.762-.724c1.344-.47 2.927-.89 4.4-1.226l-.192-.837-.191-.836c-1.505.344-3.156.78-4.584 1.279-.714.25-1.386.52-1.963.809-.566.283-1.091.609-1.471.989l.607.607zm7.602-2.848l.192.837a58.323 58.323 0 013.156-.633l-.146-.846-.145-.846a60.573 60.573 0 00-3.248.652l.191.836zm3.202-.642l.325.795c.684-.28 1.879-1.097 3.464-2.585 1.609-1.51 3.675-3.765 6.101-6.995l-.687-.515-.686-.515c-2.376 3.164-4.378 5.342-5.903 6.774-1.55 1.455-2.556 2.091-2.938 2.247l.324.794zm9.203-9.3l.735.444c1.947-3.224 3.939-5.253 5.977-6.591 2.038-1.34 4.173-2.022 6.464-2.484 4.511-.911 9.884-.956 15.623-3.853l-.387-.766-.387-.766c-5.465 2.759-10.296 2.714-15.189 3.702-2.412.487-4.779 1.229-7.067 2.732-2.289 1.504-4.449 3.738-6.503 7.139l.734.443zm28.412-13.25l.637.575.001-.001.004-.005.015-.017a142.145 142.145 0 003.707-4.323c1.999-2.43 4.349-5.469 5.592-7.746l-.753-.412-.753-.411c-1.157 2.119-3.409 5.044-5.411 7.479a140.858 140.858 0 01-3.384 3.959l-.217.244a2.425 2.425 0 00-.056.062l-.015.016a.014.014 0 01-.003.004l-.001.001.637.575zm9.203-11.929l.753.412c1.018-1.865 2.884-2.634 4.639-2.916a11.585 11.585 0 012.954-.082c.08.008.141.016.181.021l.042.006.009.001.132-.848.133-.848h-.003l-.006-.001a13.358 13.358 0 00-3.715.056c-2 .322-4.489 1.256-5.872 3.788l.753.411zm-59.642 46.31l.858.017.068-3.425-.858-.017-.858-.017-.068 3.425.858.017zm0 0l-.853-.094c-.381 3.449-1.044 7.752-1.843 12.389l.845.146.846.146c.801-4.65 1.471-8.992 1.858-12.493l-.853-.094zm68.352-49.716l-.855.074c.095 1.099.126 2.203.091 3.306l.858.026.858.027a29.96 29.96 0 00-.097-3.507l-.855.074zm.094 3.406l-.858.016.8 44.762.858-.015.858-.016-.8-44.762-.858.015zm.8 44.763l-.845.149 4.802 27.177.845-.15.845-.149-4.802-27.177-.845.15zm-.894-48.169l.326.794 3.39-1.389-.326-.794-.325-.794-3.39 1.389.325.794zm0 0l.856-.072c-.116-1.382-.337-2.898-.724-4.278-.381-1.362-.949-2.686-1.819-3.596l-.62.593-.621.592c.582.609 1.054 1.613 1.407 2.874.348 1.242.556 2.643.666 3.959l.855-.072zM412.57 411l-.858-.01v.032l-.001.09v.342a71.281 71.281 0 00.254 5.445c.285 3.288.893 7.404 2.219 10.432l.786-.344.787-.345c-1.207-2.755-1.8-6.632-2.082-9.891a68.7 68.7 0 01-.247-5.305l-.001-.326.001-.082v-.026l-.858-.012zm2.4 15.987l-.786.344c1.848 4.218 4.401 6.759 7.241 9.013 2.864 2.274 5.864 4.159 8.946 7.237l.606-.608.607-.607c-3.17-3.165-6.401-5.229-9.092-7.366-2.715-2.156-5.04-4.487-6.735-8.358l-.787.345zm16.007 15.986l-.606.608c.451.45.744.807 1.125 1.224.373.409.779.816 1.369 1.255l.512-.689.513-.688a7.505 7.505 0 01-1.126-1.035c-.319-.35-.694-.796-1.18-1.282l-.607.607zm2.4 2.398l-.511.689c.41.305.949.626 1.363.861a31.371 31.371 0 00.695.38l.044.023a.066.066 0 00.012.006l.004.002h.001v.001l.394-.763.393-.762v-.001l-.002-.001-.009-.005-.039-.02-.148-.078a25.4 25.4 0 01-.498-.275 12.443 12.443 0 01-1.187-.746l-.512.689zm2.002 1.199c-.476.714-.475.715-.475.715l.002.001.003.002a.031.031 0 00.006.004l.015.01.042.025c.033.02.076.044.13.072.109.056.261.128.463.207.405.159 1.008.348 1.857.507 1.697.318 4.381.517 8.446.111l-.086-.854-.085-.854c-3.938.393-6.455.192-7.959-.09-.752-.141-1.25-.301-1.546-.417a3.347 3.347 0 01-.299-.134l-.05-.026c-.003-.002-.003-.003-.001-.002l.004.003.004.003.002.001.001.001c.001 0 .001.001-.474.715zm10.403.8l.086.854c4.043-.404 18.18-2.609 31.843-5.308 6.836-1.351 13.574-2.829 18.885-4.273 2.655-.721 4.97-1.439 6.77-2.133.9-.347 1.686-.694 2.327-1.039.628-.339 1.174-.705 1.546-1.11l-.633-.58-.632-.58c-.179.194-.526.452-1.095.758-.556.3-1.269.617-2.13.949-1.722.664-3.974 1.364-6.603 2.079-5.255 1.428-11.947 2.898-18.767 4.245-13.648 2.696-27.722 4.888-31.682 5.284l.085.854zM139.264 164.011l.216-.831h-.001l-.005-.001a.221.221 0 00-.017-.005l-.07-.018-.274-.072-1.046-.275a1309.653 1309.653 0 01-15.631-4.221c-4.44-1.232-9.055-2.545-12.916-3.716-3.885-1.179-6.941-2.194-8.309-2.83l-.362.778-.361.778c1.499.697 4.679 1.747 8.534 2.916 3.88 1.177 8.51 2.495 12.956 3.728a1264.168 1264.168 0 0017.045 4.593l.018.005.004.001h.002l.217-.83zm-38.415-11.191l.362-.778c-2.847-1.322-7.258-3.566-11.23-5.989-1.985-1.213-3.845-2.461-5.34-3.653-1.516-1.21-2.57-2.298-3.044-3.176l-.755.408-.756.407c.647 1.2 1.937 2.467 3.485 3.703 1.571 1.254 3.498 2.543 5.517 3.776 4.038 2.465 8.51 4.738 11.4 6.08l.361-.778zm-20.007-13.188l.626.586 11.604-12.389-.626-.587-.626-.586-11.605 12.389.627.587zm11.604-12.39l.854.083 8.403-86.726-.854-.083-.854-.083-8.403 86.726.854.083zm8.403-86.726l.507.693 24.009-17.567-.507-.693-.506-.693-24.01 17.567.507.693zm38.415 123.495l-.425.745 4.911 2.797.425-.745.425-.746-4.912-2.797-.424.746zm6.802-151.072v.858h156.061v-1.716H146.066v.858zm156.061 0l-.387.766 20.807 10.522.388-.766.387-.765-20.807-10.523-.388.766zm-156.061 0l-.828.224 11.604 42.999.829-.224.828-.223-11.604-43-.829.224zm0 0l-.186-.838-1.6.356.186.837.186.838 1.6-.355-.186-.838zm-1.6.355l-.094-.853h-.001l-.004.001c-.003 0-.008 0-.013.002a60.23 60.23 0 00-3.365.5c-1.886.335-4.264.859-6.055 1.6l.328.793.328.793c1.611-.667 3.835-1.165 5.7-1.497a58.648 58.648 0 013.208-.478l.047-.006.011-.001h.003l-.093-.854zm-9.204 2.043l-.328-.793c-2.451 1.014-5.134 2.987-7.164 4.659a62.196 62.196 0 00-3.249 2.878 40.321 40.321 0 00-.247.24l-.014.012-.003.004-.002.001.603.611.604.61.003-.003.011-.01.047-.046.185-.18a59.318 59.318 0 013.153-2.793c2.009-1.653 4.528-3.486 6.729-4.397l-.328-.793zm10.804-2.398l.816-.266-.001-.004-.004-.013a1.406 1.406 0 01-.017-.052l-.067-.205-.257-.794a1259.61 1259.61 0 01-4.108-12.99c-2.485-8.02-5.481-17.996-7.535-25.86l-.831.217-.83.217c2.064 7.904 5.07 17.91 7.557 25.934a1238.082 1238.082 0 004.114 13.01l.258.796.067.206.017.052.004.014.001.003.816-.265zm-12.004-39.967l.831-.217c-1.876-7.18-3.974-16.459-5.604-23.949a1234.98 1234.98 0 01-2.583-12.169l-.153-.746-.04-.193-.01-.05-.002-.011-.001-.004-.841.17-.841.173.001.004.003.012.01.05.039.194.154.748c.135.651.331 1.598.578 2.779.494 2.36 1.193 5.66 2.009 9.408 1.631 7.495 3.735 16.801 5.62 24.018l.83-.217zm-8.403-37.168l.625-.588-4.136-4.396-.625.588-.625.588 4.136 4.396.625-.588zM357.748 174.8l-.168-.841-38.015 7.594.169.841.168.842 38.014-7.594-.168-.842zm-38.014 7.594l.171-.84-3.201-.653-.171.84-.172.841 3.201.653.172-.841zm38.014-7.594l.624.59 40.816-43.164-.623-.589-.624-.59-40.816 43.164.623.589zm0 0h-.858v29.575h1.716V174.8h-.858zm40.817-43.163l-.464.722c.85.546 2.774 2.225 4.685 4.097a57.255 57.255 0 012.625 2.732c.773.869 1.339 1.592 1.612 2.068l.745-.426.745-.427c-.368-.642-1.039-1.478-1.82-2.356a58.71 58.71 0 00-2.706-2.817c-1.904-1.865-3.942-3.662-4.959-4.315l-.463.722zm9.203 9.193l-.745.426c.311.543 1.022 2.019 2.106 4.099 1.063 2.042 2.447 4.591 4.042 7.158 1.593 2.563 3.408 5.164 5.338 7.303 1.915 2.122 4.014 3.87 6.19 4.607l.275-.813.275-.813c-1.758-.595-3.617-2.082-5.466-4.131-1.834-2.033-3.589-4.54-5.154-7.059-1.563-2.516-2.925-5.022-3.978-7.045-1.034-1.985-1.809-3.583-2.138-4.159l-.745.427zm17.206 22.78l-.275.813c1.915.648 3.813 1.517 5.771 2.454 1.945.931 3.959 1.933 6.048 2.808 4.194 1.757 8.79 3.046 14.174 2.37l-.107-.851-.107-.852c-4.967.623-9.242-.552-13.297-2.251-2.037-.853-3.993-1.826-5.97-2.772-1.964-.94-3.942-1.848-5.962-2.532l-.275.813zm25.611 7.594l.107.851c4.021-.504 6.702-2.021 9.305-3.663 2.597-1.639 5.081-3.374 8.851-4.554l-.256-.819-.257-.819c-4.027 1.261-6.714 3.137-9.254 4.74-2.535 1.6-4.959 2.955-8.603 3.412l.107.852zm18.007-8.185l.256.819c7.553-2.365 16.212-3.815 24.425-2.577l.128-.849.128-.848c-8.563-1.291-17.501.227-25.194 2.636l.257.819zm24.809-2.607l-.128.849.838.126.127-.849.128-.848-.837-.126-.128.848zm.837.126l-.127.849c21.154 3.167 49.502 6.455 79.798-13.85l-.477-.713-.478-.713c-29.73 19.926-57.511 16.735-78.589 13.579l-.127.848zm-95.673-28.901l.58.632 39.609-36.37-.58-.632-.581-.632-39.609 36.37.581.632zm0 0l.828-.223-16.006-59.55-.829.223-.829.223 16.007 59.55.829-.223zm0-103.513l.758.403 17.606-33.172-.758-.402-.758-.403-17.606 33.172.758.402zm17.606-33.171l.846.144c.816-4.774 2.565-13.935 3.822-17.44l-.808-.29-.808-.289c-1.318 3.677-3.09 13.004-3.898 17.73l.846.145zm3.86-17.585l.808.288c.188-.526.343-.854.448-1.011l-.714-.476-.714-.476c-.228.342-.44.837-.636 1.386l.808.289zm.542-1.2l.713.477c.239-.357.732-1.322 1.396-2.652.678-1.36 1.576-3.187 2.636-5.323 2.124-4.281 4.92-9.841 8.015-15.574 3.095-5.734 6.482-11.628 9.787-16.58 3.325-4.98 6.502-8.907 9.164-10.805l-.499-.699-.498-.698c-2.941 2.097-6.266 6.264-9.594 11.25-3.348 5.015-6.764 10.962-9.871 16.717-3.108 5.758-5.914 11.339-8.042 15.626-1.065 2.147-1.956 3.96-2.634 5.32-.694 1.39-1.125 2.223-1.287 2.465l.714.477zm31.212-51.156l.515.687c1.216-.911 3.651-3.654 4.333-7.74l-.847-.14-.846-.142c-.599 3.588-2.752 5.962-3.669 6.648l.514.687zm4.001-7.194l.846.143c.05-.293.16-.814.329-1.548l-.837-.193-.836-.192c-.169.735-.289 1.3-.348 1.647l.846.143zm117.646 229.006l-.81-.286c-2.449 6.932-3.649 18.407-4.249 32.714-.601 14.341-.601 31.646-.601 50.302h1.716c0-18.668 0-35.933.6-50.23.6-14.33 1.801-25.558 4.153-32.214l-.809-.286zM232.9 161.613l-.149.845 45.217 7.993.149-.845.15-.845-45.218-7.993-.149.845zm45.217 7.993l-.237.825a179.41 179.41 0 016.371 1.978l.269-.815.269-.814a179.987 179.987 0 00-6.434-1.999l-.238.825zm6.403 1.988l-.269.815c3.046 1.006 6.352 2.185 9.175 3.365 2.865 1.197 5.105 2.345 6.126 3.262l.574-.638.574-.638c-1.269-1.14-3.776-2.385-6.612-3.57-2.88-1.203-6.232-2.397-9.299-3.41l-.269.814zm15.606 6.804l-.171.841 16.406 3.344.172-.841.171-.841-16.407-3.344-.171.841zm-72.828 24.38l-.672-.534-12.383 15.586.672.534.672.534 12.383-15.586-.672-.534zm89.235-21.036l.847-.138a411.506 411.506 0 00-2.49-13.764l-.842.167-.842.167a408.108 408.108 0 012.48 13.707l.847-.139zm-2.485-13.735l.842-.167c-1.078-5.426-2.319-11.055-3.565-15.58-.624-2.261-1.253-4.264-1.87-5.835a17.85 17.85 0 00-.932-2.046c-.306-.556-.643-1.049-1.02-1.389l-.574.638-.574.638c.166.15.392.446.664.94.265.482.546 1.101.839 1.846.585 1.491 1.196 3.429 1.812 5.664 1.231 4.466 2.462 10.049 3.536 15.458l.842-.167zm-7.119-24.379l.574-.638c-.391-.351-.785-.905-1.189-1.68-.4-.769-.785-1.706-1.18-2.786-.395-1.078-.791-2.272-1.217-3.555a148.877 148.877 0 00-1.384-4.024c-2.008-5.516-4.887-11.651-10.341-15.213l-.469.719-.469.718c4.95 3.233 7.673 8.887 9.666 14.363.496 1.361.943 2.699 1.368 3.978.424 1.275.828 2.497 1.234 3.605.405 1.106.82 2.123 1.27 2.988.447.858.954 1.616 1.563 2.163l.574-.638zm-15.206-27.177l.469-.719c-2.665-1.741-5.724-3.163-8.884-4.551-3.179-1.396-6.455-2.753-9.652-4.387-6.37-3.255-12.288-7.54-15.976-15.099l-.771.377-.771.376c3.916 8.028 10.202 12.535 16.737 15.875 3.256 1.663 6.608 3.053 9.743 4.43 3.155 1.385 6.099 2.76 8.636 4.416l.469-.718zm-34.814-24.38l.771-.376c-.891-1.826-1.608-4.643-2.16-8.36-.549-3.701-.925-8.227-1.167-13.43-.484-10.407-.427-23.461-.156-37.922.54-28.9 1.933-63.408 1.536-93.393l-.859.012-.858.01c.397 29.95-.994 64.383-1.535 93.339-.271 14.466-.329 27.567.157 38.033.244 5.233.624 9.822 1.185 13.602.558 3.763 1.305 6.792 2.315 8.862l.771-.376zM118.856-92.312l-.853.096 2.667 23.721.853-.096.852-.096-2.666-23.721-.853.096zm6.002 115.262h.858c0-.26-.092-.56-.17-.787-.091-.267-.22-.594-.379-.967a67.495 67.495 0 00-1.331-2.88c-1.116-2.303-2.659-5.324-4.369-8.601-3.422-6.556-7.526-14.163-10.262-19.169l-.753.412-.753.412c2.733 5 6.832 12.596 10.246 19.14 1.708 3.271 3.241 6.274 4.347 8.555a67.259 67.259 0 011.296 2.802c.151.356.262.64.334.85.086.25.078.296.078.233h.858zM108.452-9.043l.858.02v-.03l.003-.093.009-.363.035-1.381a2340.573 2340.573 0 01.603-20.055c.192-5.535.412-11.12.643-15.426.116-2.155.234-3.982.351-5.32a31.5 31.5 0 01.172-1.6 6.19 6.19 0 01.077-.446c.029-.13.038-.12.005-.06l-.755-.407-.755-.408a1.98 1.98 0 00-.171.504 7.885 7.885 0 00-.1.575 33.5 33.5 0 00-.183 1.691 170.24 170.24 0 00-.355 5.379c-.231 4.323-.453 9.92-.644 15.46a2355.096 2355.096 0 00-.648 21.814l-.002.093-.001.024v.008l.858.021zm2.001-45.161l.755.407c.915-1.698 3.434-5.595 6.173-7.723l-.526-.677-.527-.678c-3.022 2.348-5.678 6.497-6.63 8.263l.755.408zm6.402-7.993l.526.678c.289-.225.565-.448.828-.67l-.553-.656-.554-.656c-.245.207-.503.416-.773.626l.526.678zm.801-.648l.553.655c2.431-2.051 3.79-3.969 4.216-4.819l-.768-.384-.767-.384c-.297.594-1.489 2.335-3.788 4.276l.554.656zm4.001-4.548l.853-.096-.135-1.198-.852.095-.853.096.135 1.199.852-.096zm3.201 90.342l-.845.15c.22 1.242 1.083 3.598 2.241 6.241 1.172 2.673 2.688 5.732 4.268 8.414l.739-.436.74-.435c-1.539-2.612-3.025-5.609-4.175-8.232-1.163-2.653-1.943-4.836-2.123-5.852l-.845.15zm6.403 14.37l-.739.435c.566.961 1.046 1.907 1.511 2.836.462.92.915 1.834 1.41 2.689 1.001 1.726 2.216 3.278 4.204 4.381l.416-.75.417-.75c-1.614-.896-2.635-2.16-3.552-3.742-.464-.8-.89-1.66-1.36-2.598-.466-.928-.969-1.92-1.567-2.937l-.74.435zm6.802 9.591l-.416.75c.961.534 2.469 1.147 4.185 1.807 1.75.672 3.717 1.393 5.723 2.177 1.993.78 3.966 1.6 5.658 2.439 1.709.848 3.057 1.681 3.856 2.467l.602-.612.601-.612c-1.001-.985-2.554-1.916-4.296-2.78-1.76-.874-3.788-1.715-5.796-2.5-1.997-.78-4.031-1.528-5.732-2.182-1.736-.667-3.129-1.239-3.969-1.704l-.416.75zm76.852 171.454l.639-.573c-6.68-7.448-17.049-19.581-26.439-31.764-4.696-6.091-9.14-12.187-12.754-17.711-3.622-5.536-6.378-10.451-7.733-14.19l-.807.292-.807.292c1.425 3.935 4.273 8.985 7.911 14.546 3.647 5.574 8.119 11.708 12.83 17.819 9.422 12.224 19.82 24.39 26.521 31.862l.639-.573zm-47.094-63.946l.847-.14c-.853-5.14-.044-9.89.625-11.989l-.818-.26-.818-.261c-.74 2.327-1.585 7.352-.682 12.791l.846-.141zm.654-12.389l.85-.115-.324-2.398-.85.115-.851.115.325 2.398.85-.115zm46.44 76.335l-.618.595c3.441 3.576 11.761 12.964 17.481 21.851l.722-.465.722-.464c-5.805-9.018-14.208-18.495-17.688-22.112l-.619.595zm17.585 21.981l-.722.465c1.846 2.868 5.258 6.53 9.333 10.41l.592-.621.592-.622c-4.067-3.872-7.347-7.413-9.073-10.096l-.722.464zm9.203 10.254l-.592.621c9.1 8.663 21.792 18.679 28.891 23.969l.513-.688.512-.688c-7.075-5.273-19.705-15.242-28.732-23.836l-.592.622zm-69.626-87.55l-.388-.766-20.809 10.554.389.766.388.765 20.808-10.554-.388-.765zm-20.808 10.554l-.682.52c5.137 6.73 12.964 16.847 19.749 25.324 3.392 4.237 6.528 8.071 8.94 10.868 1.204 1.398 2.237 2.547 3.035 3.361.398.406.75.742 1.044.988.147.122.293.234.434.322.12.077.318.189.552.228l.141-.846.141-.847c.114.019.154.06.082.014a2.436 2.436 0 01-.25-.189c-.23-.192-.536-.481-.918-.871-.759-.775-1.764-1.892-2.961-3.28-2.391-2.774-5.512-6.588-8.9-10.821-6.774-8.462-14.592-18.568-19.725-25.292l-.682.521zm33.213 40.765l-.141.846a.715.715 0 01-.269-.101c-.034-.021-.051-.037-.046-.033.009.008.042.041.103.115.119.145.288.375.507.699a64.334 64.334 0 011.759 2.803c1.46 2.426 3.445 5.881 5.777 10.027 4.663 8.289 10.703 19.315 16.685 30.335a6962.607 6962.607 0 0121.667 40.256l1.492 2.793.392.736.101.189.025.047.006.012a.012.012 0 00.002.003c0 .001.001.001.758-.402l.757-.405-.002-.003a.066.066 0 00-.006-.012l-.026-.048-.1-.189-.393-.736-1.492-2.794a7121.209 7121.209 0 00-5.34-9.975 6971.582 6971.582 0 00-16.333-30.291c-5.982-11.021-12.027-22.056-16.697-30.358-2.335-4.149-4.329-7.622-5.802-10.07a67.095 67.095 0 00-1.809-2.881 11.82 11.82 0 00-.604-.828 2.999 2.999 0 00-.27-.291 1.377 1.377 0 00-.185-.143.993.993 0 00-.376-.148l-.14.847zm-33.213-40.765l.632-.581c-1.684-1.835-4.541-4.72-7.183-6.879l-.543.665-.543.664c2.555 2.088 5.35 4.908 7.004 6.711l.633-.58zm16.882-33.972l.85-.115-1.676-12.389-.85.115-.851.115 1.676 12.389.851-.115zm-1.676-12.389l.856.058 2.801-41.566-.856-.057-.856-.058-2.802 41.566.857.057zm2.801-41.566l.767-.384c-.282-.562-.81-1.654-1.27-2.612l-.596-1.243-.183-.384a5.957 5.957 0 01-.05-.105l-.013-.027-.004-.007v-.002h-.001l-.774.369-.775.37.001.002.004.007.013.027.05.106.184.385.597 1.245c.459.955.993 2.06 1.283 2.638l.767-.385zm-2.124-4.395l.782-.352-.001-.002-.003-.009-.014-.031-.057-.125-.215-.483c-.186-.42-.455-1.026-.784-1.775a448.122 448.122 0 01-2.514-5.84c-1.924-4.564-4.075-9.918-5.052-13.21l-.823.245-.822.244c1.007 3.397 3.196 8.834 5.116 13.388a440.103 440.103 0 003.311 7.646l.217.486a6.386 6.386 0 01.071.159l.004.008.001.002.783-.351zm-8.681-21.582l.84-.179-.801-3.76-.839.178-.84.179.801 3.76.839-.178zM233.3 302.693c.208.832.207.833.205.833l-.002.001-.005.001-.01.002-.018.004-.031.005c-.018.003-.03.003-.038.004-.014 0-.004-.002.03.005.068.013.25.063.544.259.599.398 1.619 1.374 2.986 3.715l.741-.433.741-.433c-1.434-2.455-2.615-3.677-3.517-4.278-.456-.304-.849-.454-1.169-.515a1.887 1.887 0 00-.41-.036 1.453 1.453 0 00-.233.028l-.011.002-.006.002h-.002c-.002.001-.003.001.205.834zm4.402 4.396l-.741.433c1.278 2.188 1.684 5.588 1.734 8.88a67.03 67.03 0 01-.105 4.476c-.067 1.275-.145 2.372-.145 2.996h1.716c0-.564.072-1.56.143-2.906.069-1.318.133-2.914.107-4.592-.05-3.309-.445-7.112-1.968-9.72l-.741.433zm1.601 16.785h-.858c0 1.243.306 4.594.604 7.572a592.943 592.943 0 00.588 5.59l.01.091a.27.27 0 00.003.023v.008l.853-.094.853-.095v-.008a.27.27 0 01-.003-.023l-.01-.091a625.316 625.316 0 01-.586-5.572c-.302-3.022-.596-6.266-.596-7.401h-.858zm1.2 13.19l-.84.172v.002l.001.004.004.017.014.069.055.27.212 1.029a2454.54 2454.54 0 003.276 15.601c1.919 8.981 4.126 19.004 5.255 23.033l.827-.231.826-.232c-1.111-3.964-3.306-13.924-5.229-22.928a2386.272 2386.272 0 01-3.274-15.591l-.212-1.028-.055-.268-.014-.069-.004-.017-.001-.005v-.001l-.841.173zm8.804 39.966l-.827.231c.265.945.566 2.85.887 5.588.318 2.715.651 6.192.991 10.241.679 8.097 1.387 18.46 2.067 29.553l.857-.052.856-.053c-.68-11.098-1.389-21.476-2.07-29.591-.341-4.058-.675-7.556-.997-10.298-.319-2.72-.631-4.756-.938-5.851l-.826.232zm3.975 45.561l-.031.858 33.64 1.198.03-.857.031-.858-33.64-1.199-.03.858zm33.639 1.199l-.857-.029-1.601 47.159.858.029.857.029 1.601-47.159-.858-.029zm-1.6 47.159l-.419.749 26.009 14.546.419-.749.419-.749L285.74 470.2l-.419.749zM233.3 302.693l.438.738 7.203-4.275-.438-.738-.438-.738-7.203 4.275.438.738zm7.203-4.275l.336.79h.001l.002-.001.008-.004.031-.013.118-.051.451-.197a122.261 122.261 0 007.116-3.451c4.266-2.244 9.454-5.315 12.93-8.557l-.585-.627-.585-.628c-3.3 3.077-8.316 6.061-12.559 8.293a122.77 122.77 0 01-5.389 2.664 106.537 106.537 0 01-2.174.977l-.028.012a.016.016 0 00-.006.003h-.002l.335.79zm20.408-12.111l.585.627c2.23-2.08 4.668-5.08 6.53-7.532a119.685 119.685 0 002.96-4.072l.177-.256.046-.068.012-.017a.022.022 0 01.003-.005l.001-.001-.71-.482-.711-.482v.001l-.003.004-.011.016-.043.064-.172.249a120.001 120.001 0 01-2.915 4.011c-1.852 2.438-4.217 5.34-6.334 7.315l.585.628zm44.11-83.529l.841.173c1.152-5.61 3.139-19.749 3.324-22.829l-.857-.051-.856-.052c-.179 2.974-2.151 17.029-3.293 22.586l.841.173zm0 0l-.841-.172a101.837 101.837 0 01-1.618 6.737l.828.228.827.229a104.478 104.478 0 001.645-6.85l-.841-.172zm-1.631 6.793l-.827-.229c-.639 2.303-1.456 4.318-2.365 6.448-.906 2.124-1.908 4.372-2.88 7.08l.808.29.807.29c.951-2.648 1.926-4.835 2.844-6.986.915-2.145 1.769-4.246 2.44-6.663l-.827-.23zm-5.264 13.589l-.808-.29c-1.681 4.681-3.51 9.653-4.951 14.019-1.43 4.333-2.519 8.188-2.662 10.6l.857.051.856.05c.128-2.15 1.137-5.793 2.579-10.164 1.432-4.337 3.248-9.274 4.936-13.976l-.807-.29zm-7.564 24.38l-.857-.051c-.027.463-.041.881-.041 1.249h1.716c0-.327.012-.71.038-1.148l-.856-.05zm14.459-44.762l-.138.847 27.118 4.414.138-.847.137-.847-27.117-4.414-.138.847zm27.118 4.414l-.138.847c1.648.267 1.603.528 4.871.79l.068-.856.068-.855c-3.272-.262-2.629-.432-4.732-.774l-.137.848zm4.801.781l-.068.856c3.377.269 12.065-.068 20.687-3.453l-.314-.798-.313-.799c-8.34 3.273-16.76 3.591-19.924 3.339l-.068.855zm20.808-3.597l-.857-.037-1.201 27.977.858.036.857.037 1.201-27.976-.858-.037zm-1.2 27.976l-.735.444c3.194 5.285 8.609 16.941 11.512 30.904l.841-.174.84-.175c-2.945-14.163-8.435-26-11.724-31.442l-.734.443zm1.2-27.976l-.326-.794c-.162.066-.326.132-.492.197l.315.799.315.798c.169-.067.341-.135.514-.206l-.326-.794zm148.858 229.405l.612-.602-44.417-45.162-.612.602-.612.602 44.418 45.162.611-.602zm0 0l.597.616 22.284-21.581-.597-.617-.597-.616-22.284 21.581.597.617zm-116.845 22.781l-.641-.571a414.775 414.775 0 01-8.05 8.774l.624.589.624.589a418.184 418.184 0 008.083-8.81l-.64-.571zm-8.067 8.792l-.624-.589c-3.727 3.949-8.386 8.122-12.124 11.317a256.254 256.254 0 01-4.665 3.89 182.335 182.335 0 01-1.83 1.469l-.023.019-.006.004-.001.002h-.001l.53.675.531.674.002-.001.006-.006.025-.019.097-.077.372-.295a253.167 253.167 0 006.078-5.031c3.754-3.208 8.467-7.428 12.257-11.443l-.624-.589zm-18.744 16.787c-.788-.339-.787-.341-.786-.343l.001-.004.004-.008.007-.015.013-.027.022-.037c.012-.019.018-.023.011-.016-.014.015-.075.08-.225.18-.303.204-.939.535-2.185.894-2.498.719-7.314 1.515-16.488 1.714l.019.858.018.858c9.234-.2 14.221-1.002 16.926-1.781 1.354-.39 2.169-.784 2.666-1.117.251-.169.427-.326.551-.465.062-.07.111-.135.15-.194.019-.03.035-.059.049-.085.008-.013.014-.026.02-.038l.008-.019a.03.03 0 00.004-.008l.002-.005c.001-.002.002-.004-.787-.342zm-19.607 3.196l-.019-.858c-6.596.143-15.696.185-24.79.175l-.001.858-.001.859c9.097.01 18.213-.032 24.829-.176l-.018-.858zm-24.81.175l.001-.858c-2.417-.002-4.833-.008-7.201-.017l-.003.858-.003.858c2.369.009 4.787.015 7.205.018l.001-.859zm63.161-20.158l.595.618c18.396-17.726 36.8-35.444 55.21-53.154l-.594-.619-.595-.618a89282.226 89282.226 0 00-55.212 53.155l.596.618zm168.929-116.701l-.858-.02c-.068 2.885.159 5.855.454 8.883.297 3.044.66 6.127.882 9.314.441 6.352.302 12.982-2.089 19.91l.811.28.811.28c2.499-7.239 2.627-14.131 2.179-20.589-.224-3.218-.593-6.363-.886-9.361-.294-3.014-.511-5.9-.446-8.677l-.858-.02zm-.8 38.367l-.811-.28c-.585 1.695-1.177 3.437-1.772 4.923-.61 1.522-1.172 2.638-1.656 3.176l.637.574.638.575c.716-.795 1.374-2.188 1.974-3.687.614-1.534 1.223-3.324 1.801-5.001l-.811-.28zm-3.602 8.393l-.597-.616-17.331 16.786.597.616.597.617 17.331-16.786-.597-.617zm4.402-46.76l.847-.137-2-12.389-.847.137-.848.136 2.001 12.39.847-.137zm-2-12.389l.844-.154c-.116-.638-.12-1.557.17-2.269.14-.343.335-.609.593-.793.253-.18.625-.322 1.194-.322v-1.716c-.873 0-1.605.224-2.189.64-.579.411-.953.969-1.187 1.543-.456 1.119-.42 2.397-.27 3.225l.845-.154zm2.801-4.396v.858c.58 0 1.304-.155 2.081-.401a21.193 21.193 0 002.664-1.075 33.744 33.744 0 006.189-3.853c2.05-1.613 3.98-3.545 5.324-5.697 1.347-2.156 2.132-4.578 1.799-7.129l-.851.111-.851.111c.267 2.045-.348 4.069-1.552 5.998-1.207 1.932-2.979 3.722-4.93 5.257a32.04 32.04 0 01-5.866 3.653c-.91.433-1.742.765-2.444.988-.717.227-1.244.321-1.563.321v.858zm17.206-17.186l.851-.111c-.3-2.297-.468-4.411-.698-6.442-.227-1.995-.509-3.865-1.037-5.5-.531-1.646-1.325-3.097-2.602-4.216-1.278-1.121-2.972-1.848-5.196-2.165l-.121.849-.121.85c1.977.282 3.335.904 4.307 1.756.974.855 1.631 2.001 2.1 3.453.472 1.462.74 3.189.964 5.166.22 1.94.402 4.173.702 6.471l.851-.111zm-8.803-17.585l.204-.833c-2.681-.657-6.987-1.962-11.154-3.734-4.203-1.786-8.119-3.987-10.158-6.381l-.654.557-.653.556c2.319 2.722 6.565 5.051 10.794 6.848 4.265 1.813 8.66 3.145 11.417 3.821l.204-.834zm-9.204 51.556l.071-.855c-3.627-.301-5.875-.817-9.678-.802l.003.858.004.858c3.724-.014 5.655.475 9.529.796l.071-.855zm-9.604-.799l-.003-.858c-3.5.013-7.396.73-10.615 1.428-1.598.347-3.09.703-4.233.957-1.206.268-1.991.413-2.355.413v1.716c.595 0 1.591-.201 2.727-.454 1.2-.266 2.613-.605 4.225-.955 3.203-.694 6.949-1.376 10.257-1.389l-.003-.858zm-17.206 2.798v-.858c-1.665 0-17.765.198-28.823.338l.011.858.011.858c11.069-.14 27.15-.338 28.801-.338v-.858zm-28.812.338l-.011-.858-4.801.062.011.858.011.858 4.801-.062-.011-.858zm39.616-72.677l-.808.289 2.001 5.595.808-.289.808-.289-2.001-5.595-.808.289zm2.001 5.595l-.754.411c.382.7.948 1.772 1.43 2.762l.771-.375.772-.376a73.96 73.96 0 00-1.466-2.833l-.753.411zm-2.001-5.595v-.858H490.2v1.716h44.417v-.858zm0 0l-.014.858 48.272.8.015-.858.014-.858-48.273-.8-.014.858zm48.273.8l.734-.444c-1.679-2.778-11.907-18.89-14.138-49.177l-.856.063-.856.063c2.259 30.659 12.627 47.037 14.381 49.939l.735-.444zm-92.69-.8h-.858v27.177h1.716v-27.177h-.858zm0 0h.858v-64.345h-1.716v64.345h.858zm0-64.345h.858c0-7.592 1.254-13.642 1.9-19.819.642-6.149.647-12.256-1.949-19.632l-.809.284-.81.285c2.482 7.054 2.488 12.882 1.86 18.885-.624 5.975-1.908 12.293-1.908 19.997h.858zm0-39.167l.809-.284c-1.87-5.317-5.793-11.299-9.201-15.908a131.633 131.633 0 00-5.87-7.361l-.385-.442-.101-.115a1.187 1.187 0 01-.027-.03l-.007-.008-.002-.002v-.001l-.641.571c-.641.572-.641.571-.64.572l.001.001.006.007a.846.846 0 00.024.027l.097.11.375.432c.326.377.797.929 1.373 1.624a130.829 130.829 0 014.417 5.636c3.392 4.586 7.182 10.395 8.962 15.456l.81-.285zm0 103.512l.433-.741c-15.782-9.219-40.849-21.032-64.774-26.493-11.961-2.73-23.693-3.886-33.86-2.299-10.185 1.589-18.849 5.943-24.542 14.261l.709.485.708.484c5.357-7.828 13.538-11.997 23.389-13.535 9.869-1.54 21.363-.428 33.215 2.277 23.7 5.41 48.6 17.137 64.289 26.302l.433-.741zm0 27.177v.859h34.813v-1.717H490.2v.858zm34.813 0v.859c3.039 0 6.545-1.11 7.921-1.661l-.318-.796-.318-.797c-1.291.515-4.562 1.537-7.285 1.537v.858zm7.603-1.598l.318.797c.512-.205 1.036-.662 1.477-1.102.468-.468.948-1.027 1.374-1.554a38.408 38.408 0 001.416-1.875l.09-.128a.735.735 0 01.03-.044l.002-.002.001-.001-.706-.488-.707-.487-.001.001-.005.008-.021.03-.084.119a35.297 35.297 0 01-1.351 1.788 18.402 18.402 0 01-1.251 1.419c-.435.434-.745.659-.9.722l.318.797zm4.002-4.397l.747.421h.001v-.001l.002-.003.005-.01.021-.037.078-.142a49.355 49.355 0 001.118-2.15c.305-.627.617-1.31.855-1.93.222-.58.432-1.232.432-1.743h-1.716c0 .155-.091.535-.319 1.129-.212.554-.5 1.186-.795 1.792a47.226 47.226 0 01-1.152 2.208l-.019.034-.005.009-.001.002.748.421zm2.401-5.595h.858v-4.796h-1.716v4.796h.858zm0-4.796h.858c0-.222-.063-.452-.114-.617a7.826 7.826 0 00-.23-.626c-.183-.448-.43-.984-.696-1.53l-.772.375-.772.375c.259.533.489 1.031.651 1.429.082.2.142.363.18.486.046.147.037.165.037.108h.858zM490.2 305.49h-.858v45.562h1.716V305.49h-.858zm0 0v-.858h-4.002v1.717h4.002v-.859zm-4.002 0l.354-.781-25.61-11.591-.353.782-.354.782 25.609 11.59.354-.782zm-25.609-11.59l-.57-.642-3.602 3.198.57.641.569.642 3.602-3.197-.569-.642zm-3.602 3.197l-.771-.376h-.001v.001l-.002.005a.206.206 0 00-.009.017l-.034.069-.132.268a227.846 227.846 0 01-2.222 4.361c-1.402 2.676-3.188 5.945-4.754 8.38l.722.464.722.464c1.609-2.502 3.424-5.827 4.83-8.511a227.464 227.464 0 002.241-4.397l.134-.272.035-.071.009-.019.002-.004.001-.002-.771-.377zm-7.203 13.189l-.722-.464c-4.701 7.311-12.631 15.206-19.432 21.304a230.884 230.884 0 01-8.737 7.441 194.935 194.935 0 01-3.389 2.682l-.188.143-.047.036a.184.184 0 01-.012.009l-.003.002v.001l.518.684.518.684.001-.001.003-.002.013-.01.05-.038.192-.147a195.135 195.135 0 003.424-2.709 233.03 233.03 0 008.802-7.497c6.821-6.115 14.898-14.138 19.731-21.654l-.722-.464zm40.416 40.766h-.858v3.996h1.716v-3.996h-.858zm0 3.996h-.858c0 1.948-.196 3.644-.569 4.986-.378 1.358-.911 2.258-1.51 2.737l.536.67.535.671c1.002-.801 1.669-2.099 2.092-3.618.427-1.536.632-3.397.632-5.446h-.858zm-2.401 8.393l-.535-.671c-.123.098-.453.402-.925.844l.587.626.586.627c.243-.228.437-.407.579-.538l.172-.156.052-.045a.284.284 0 01.018-.015l-.534-.672zm-.873.799l-.586-.626c-.976.912-2.709 2.559-5.059 4.801l.592.621.592.621a839.25 839.25 0 015.047-4.79l-.586-.627zm-5.053 4.796l.23.827a7.412 7.412 0 012.71-.213 7.28 7.28 0 011.069.188 1.1 1.1 0 01.06.017l-.001-.001h-.001l.258-.818.258-.819h-.002l-.003-.001a.069.069 0 00-.008-.003l-.026-.008-.086-.024a9.12 9.12 0 00-1.346-.239 9.158 9.158 0 00-3.342.267l.23.827zm4.325 0l-.61.603 42.692 43.164.61-.604.61-.603-42.692-43.164-.61.604zm-4.325 0l-.592-.621c-8.761 8.359-26.134 25.046-44.971 43.166l.595.618.594.619c18.839-18.121 36.208-34.805 44.966-43.161l-.592-.621zm-44.968 43.163l-.724.462.001.001.001.001.003.005.01.016.039.06.148.22c.129.188.318.458.562.789.49.661 1.205 1.571 2.113 2.57 1.806 1.989 4.415 4.379 7.562 5.846l.363-.778.363-.778c-2.855-1.33-5.285-3.536-7.018-5.444a31.672 31.672 0 01-2.003-2.437 24.692 24.692 0 01-.688-.981l-.008-.011-.001-.002-.723.461zm10.078 9.192l-.375.772c2.592 1.26 8.118 2.78 14.05 3.034 5.916.253 12.469-.743 16.913-4.768l-.576-.636-.576-.636c-3.942 3.569-9.928 4.571-15.687 4.325-5.744-.246-11.031-1.724-13.374-2.863l-.375.772zm30.012-1.598l.576.636c8.404-7.611 42.051-40.799 42.847-41.593l-.607-.608-.606-.607c-.804.804-34.42 33.959-42.786 41.536l.576.636zm42.816-41.565l.607.608c.037-.037.106-.092.257-.195.133-.09.334-.221.537-.371a6.03 6.03 0 001.416-1.449c.964-1.378 1.786-3.653 2.041-7.732l-.856-.053-.857-.054c-.244 3.915-1.022 5.837-1.735 6.856a4.321 4.321 0 01-1.025 1.049c-.17.125-.316.22-.486.335a3.427 3.427 0 00-.505.399l.606.607zm4.002-9.192l.856.053c.501-8.018 1.336-77.337 2.002-113.141l-.858-.016-.858-.015c-.667 35.867-1.501 105.097-1.999 113.065l.857.054zm2-113.104l.793-.327a316.823 316.823 0 00-4.161-9.618l-.782.354-.782.353a317.025 317.025 0 014.139 9.566l.793-.328zm-4.15-9.591l.782-.354c-1.93-4.265-4.052-8.687-5.925-12.05-.934-1.678-1.821-3.119-2.603-4.15-.389-.514-.774-.954-1.145-1.275-.339-.293-.812-.615-1.364-.615v1.716c-.099 0-.032-.039.242.198.241.208.543.543.899 1.013.709.935 1.55 2.294 2.471 3.948 1.839 3.301 3.938 7.672 5.861 11.922l.782-.353zm0 0l.78-.358c-.442-.963-2.064-4.209-5.082-9.65l-.751.416-.75.416c3.011 5.429 4.609 8.63 5.023 9.534l.78-.358zm-10.255-17.586v-.858h-33.213v1.716h33.213v-.858zm-33.213 0l-.01-.858-68.827.8.01.858.01.858 68.827-.8-.01-.858zm-68.827.8l.424-.746c-7.512-4.268-19.136-10.639-29.599-15.886-5.229-2.623-10.181-4.972-14.189-6.636-2.003-.832-3.784-1.499-5.255-1.945-1.435-.434-2.687-.695-3.576-.62l.072.856.072.855c.532-.045 1.505.119 2.934.552 1.394.422 3.117 1.066 5.095 1.887 3.953 1.642 8.863 3.969 14.078 6.585 10.427 5.23 22.025 11.586 29.52 15.844l.424-.746zm102.04-.8l-.012.858 57.222.8.012-.858.012-.858-57.222-.8-.012.858zm-93.636 113.369l.62-.593-7.507-7.858-.621.593-.62.593 7.507 7.858.621-.593zm-13.205-13.822l.62-.593-25.609-26.808-.621.593-.62.593 25.609 26.807.621-.592zm-25.61-26.808l.774-.371-8.804-18.385-.774.371-.774.371 8.804 18.384.774-.37zm-8.804-18.385l.858.013c.078-5.375-.406-10.679-1.25-15.741l-.846.141-.847.141c.83 4.977 1.303 10.177 1.227 15.434l.858.012zm-1.238-15.587l.846-.141a103.906 103.906 0 00-.755-4.03l-.84.175-.841.175c.274 1.315.522 2.637.743 3.962l.847-.141zm35.652 60.78l-.621.592 5.698 5.965.62-.593.621-.593-5.698-5.964-.62.593zm-134.052-53.801l-.516.686a80.12 80.12 0 016.073 5.112c2.304 2.147 4.5 4.483 5.717 6.458l.731-.45.73-.45c-1.344-2.182-3.683-4.647-6.008-6.814a81.881 81.881 0 00-6.212-5.228l-.515.686zm12.005 11.806l-.731.45c.772 1.253 2.748 5.222 5.381 10.599 2.617 5.347 5.859 12.035 9.136 18.656 3.277 6.621 6.597 13.19 9.375 18.307 1.388 2.557 2.647 4.763 3.702 6.436a29.83 29.83 0 001.438 2.111c.414.544.823 1.008 1.206 1.286l.504-.694.504-.695c-.167-.121-.45-.413-.849-.937a28.3 28.3 0 01-1.351-1.987c-1.026-1.626-2.264-3.794-3.646-6.339-2.762-5.087-6.069-11.632-9.345-18.249-3.275-6.618-6.511-13.294-9.133-18.65-2.607-5.325-4.632-9.4-5.461-10.744l-.73.45zm30.011 57.151l-.504.694c.433.315 1.029.979 1.775 1.997.73.998 1.554 2.265 2.45 3.718 1.799 2.917 3.83 6.484 5.946 10.03 2.102 3.522 4.275 7 6.309 9.645 1.017 1.321 2.019 2.461 2.98 3.299.94.82 1.944 1.444 2.961 1.553l.092-.854.091-.853c-.483-.052-1.155-.389-2.016-1.14-.84-.732-1.763-1.773-2.748-3.052-1.967-2.557-4.095-5.959-6.195-9.478-2.086-3.494-4.156-7.127-5.959-10.051-.905-1.467-1.756-2.779-2.526-3.831-.755-1.031-1.485-1.887-2.152-2.372l-.504.695zm22.009 30.082l-.44.737c.31.185 1.001.816 1.737 2.105.722 1.268 1.462 3.129 1.908 5.71l.845-.146.846-.146c-.476-2.758-1.278-4.812-2.109-6.268-.818-1.435-1.692-2.337-2.348-2.729l-.439.737zm-3.699-49.666l.82-.252-1.103-3.596-.821.252-.82.251 1.104 3.597.82-.252zm-1.104-3.596l.75-.419c-3.34-5.983-9.95-17.172-15.717-26.856a4838.702 4838.702 0 00-9.846-16.451l-.638-1.06-.167-.277-.043-.071-.01-.018-.003-.004-.001-.001-.735.442-.735.443.001.002.002.004.011.018.043.07.166.277.638 1.06a4744.9 4744.9 0 019.842 16.445c5.771 9.688 12.367 20.856 15.693 26.814l.749-.418zm-26.41-44.715l.721-.465-.001-.001-.003-.005a2.597 2.597 0 01-.052-.082l-.162-.25-.593-.916c-.5-.771-1.19-1.832-1.948-2.992-1.513-2.316-3.307-5.036-4.407-6.617l-.704.489-.705.49c1.083 1.559 2.864 4.258 4.38 6.577a974.789 974.789 0 011.944 2.987l.592.914.161.25.042.064.01.017a.014.014 0 00.003.004l.001.001.721-.465zm-7.149-10.839l.704-.489c-2.197-3.161-4.166-5.789-5.781-7.635-.805-.921-1.543-1.67-2.192-2.196a5.62 5.62 0 00-.958-.646c-.305-.156-.657-.283-1.03-.283v1.717c-.006 0 .068.001.247.093.171.088.391.234.661.452.539.438 1.203 1.104 1.98 1.993 1.552 1.774 3.479 4.341 5.664 7.484l.705-.49zm34.663 59.15l-.82.252 2.575 8.393.82-.252.821-.252-2.576-8.393-.82.252zm2.575 8.393l-.82.252c1.569 5.114 2.826 7.646 3.905 12.716l.84-.178.839-.179c-1.096-5.149-2.447-7.987-3.943-12.863l-.821.252zm3.925 12.79l-.84.178c.769 3.607 1.166 8.347 1.37 12.216a160.405 160.405 0 01.212 6.759v.033l.858-.003.858-.003v-.138l-.004-.392a161.381 161.381 0 00-.21-6.346c-.204-3.885-.607-8.737-1.405-12.483l-.839.179zm1.6 19.183l-.858-.017-.351 17.706.858.017.858.017.351-17.706-.858-.017zm-8.1-40.366l.451.73a333.782 333.782 0 005.704-3.606l-.465-.72-.466-.721a338.311 338.311 0 01-5.675 3.587l.451.73zm5.69-3.596l.465.72c4.01-2.589 8.542-5.628 12.171-8.309 1.813-1.34 3.415-2.6 4.619-3.678a17.598 17.598 0 001.511-1.498c.379-.436.714-.899.865-1.352l-.814-.272-.814-.271c-.039.117-.184.368-.532.769-.331.38-.788.832-1.362 1.345-1.145 1.026-2.698 2.25-4.493 3.576-3.587 2.651-8.084 5.667-12.082 8.249l.466.721zm18.817-14.389l.814.272c.328-.983.713-3.112 1.103-5.675.396-2.597.81-5.728 1.185-8.779a529.2 529.2 0 00.958-8.319c.24-2.252.399-3.916.399-4.275h-1.716c0 .24-.142 1.773-.389 4.093a550.783 550.783 0 01-.955 8.291 324.172 324.172 0 01-1.178 8.731c-.398 2.607-.763 4.575-1.035 5.39l.814.271zm3.601-26.776h.858c0-.167.094-.789.393-1.798.29-.976.752-2.245 1.436-3.678a30.013 30.013 0 017.1-9.47l-.57-.641-.571-.642c-3.697 3.289-6.064 6.986-7.509 10.014a27.441 27.441 0 00-1.531 3.928c-.305 1.027-.464 1.853-.464 2.287h.858zm-184.041-10.392l.774-.371a145.073 145.073 0 01-5.238-12.51c-1.759-4.87-3.111-9.668-3.111-12.697h-1.717c0 3.366 1.46 8.426 3.214 13.281a146.896 146.896 0 005.304 12.668l.774-.371zm-8.433-25.578h.858c0-2.928-.418-6.196-1.059-9.362l-.841.17-.841.17c.626 3.094 1.024 6.243 1.024 9.022h.859zm-1.042-9.192l.817.264c1.595-4.947 3.279-17.735-2.606-29.815l-.771.376-.772.376c5.641 11.579 4.014 23.889 2.515 28.536l.817.263zm-2.56-29.175l.771-.376c-2.536-5.207-5.098-11.34-7.542-17.164-2.437-5.805-4.763-11.32-6.812-15.231l-.76.398-.76.398c2.007 3.832 4.302 9.27 6.749 15.099 2.438 5.81 5.02 11.992 7.582 17.252l.772-.376zm-14.343-32.373l.76-.398c-.845-1.614-1.659-2.987-2.431-4.005-.386-.509-.776-.95-1.17-1.291-.389-.336-.826-.615-1.308-.734l-.206.833-.206.833c.119.029.318.125.596.366.274.237.583.577.927 1.03.687.907 1.45 2.183 2.278 3.764l.76-.398zm26.378 96.318l-.663-.545-5.632 6.842.663.545.662.546 5.633-6.843-.663-.545zm-5.632 6.842l-.838.188 7.603 33.924.837-.188.838-.188-7.603-33.923-.837.187zm7.602 33.924l-.203-.834-11.446 2.798.204.834.204.833 11.445-2.797-.204-.834zm-11.445 2.798l-.826.233c1.272 4.498 2.992 11.871 4.01 19.346 1.025 7.517 1.315 14.975-.161 19.732l.82.255.819.254c1.599-5.154 1.248-12.95.223-20.473-1.031-7.566-2.77-15.02-4.059-19.581l-.826.234zm3.843 39.566v.858h7.602v-1.716h-7.602v.858zm7.602 0l-.858-.016-1.6 89.524.858.016.858.015 1.6-89.524-.858-.015zm-1.6 89.524l-.65-.56-17.207 19.982.65.56.651.56 17.206-19.982-.65-.56zm-17.207 19.982l-.439.737 34.813 20.783.44-.736.44-.737-34.814-20.784-.44.737zm34.814 20.784l-.019.858 63.624 1.444.019-.858.02-.858-63.625-1.444-.019.858zm63.624 1.444l-.036.857c14.428.609 26.277 1.284 33.191 1.751l.058-.856.058-.856c-6.931-.469-18.795-1.144-33.235-1.754l-.036.858zm33.213 1.752l-.01.858c2.745.032 6.334.066 10.408.096l.006-.858.006-.859c-4.072-.03-7.658-.063-10.4-.095l-.01.858zm10.404.096l-.006.858c3.736.027 7.471.047 11.207.062l.003-.858.004-.858c-3.734-.015-7.468-.036-11.202-.063l-.006.859zm20.008.081l.775.368 1.601-3.373-.775-.368-.775-.368-1.602 3.373.776.368zm1.601-3.373l.729.452c2.621-4.229 6.406-11.147 9.259-18.185 1.427-3.52 2.629-7.089 3.332-10.381.7-3.276.923-6.356.319-8.857l-.834.201-.834.202c.515 2.134.349 4.919-.33 8.095-.675 3.161-1.839 6.63-3.243 10.095-2.809 6.93-6.547 13.761-9.128 17.926l.73.452zm12.805-36.77l.713-.478c-.509-.758-1.137-1.454-1.726-2.116-.604-.677-1.182-1.336-1.678-2.079-.961-1.441-1.631-3.231-1.261-6.004l-.851-.113-.85-.114c-.43 3.222.363 5.428 1.534 7.184.571.856 1.226 1.596 1.824 2.268.612.687 1.152 1.289 1.582 1.93l.713-.478zm-4.803-10.79l.851.113c.299-2.237 1.397-7.753 2.746-14.581 1.344-6.805 2.928-14.871 4.183-22.155l-.846-.146-.845-.146c-1.251 7.261-2.831 15.307-4.176 22.114-1.34 6.784-2.455 12.38-2.763 14.687l.85.114zM438.174 95.268l.752-.413-.001-.001-.002-.004-.008-.015-.032-.059-.124-.221a109.379 109.379 0 00-2.079-3.54c-1.312-2.142-3.039-4.786-4.647-6.691l-.656.553-.656.554c1.521 1.8 3.192 4.352 4.496 6.48a106.273 106.273 0 012.044 3.482l.12.215.031.055.007.014.002.003v.001l.753-.413zm-6.797-10.39l.656-.554c-6.439-7.624-18.285-12.071-28.342-14.621a131.198 131.198 0 00-17.156-3.115 75.355 75.355 0 00-1.498-.15h-.007l-.071.855-.07.855h.005l.017.002.07.006.281.026c.247.023.613.06 1.085.112a129.467 129.467 0 0116.923 3.072c10.027 2.543 21.39 6.889 27.451 14.065l.656-.553zm-53.221-25.35l.684-.52-.002-.001-.004-.005-.016-.022-.062-.081-.241-.313a190.782 190.782 0 00-4.001-4.993c-2.506-3.02-5.738-6.711-8.583-9.315l-.579.633-.58.634c2.755 2.52 5.925 6.136 8.422 9.144a193.377 193.377 0 013.962 4.945l.237.307.06.08a.422.422 0 01.015.02l.004.004.001.001.683-.518zM365.352 44.91l.579-.633c-6.96-6.366-17.679-11.775-26.585-15.578a199.918 199.918 0 00-11.422-4.457 167.254 167.254 0 00-4.402-1.496l-.247-.078-.063-.02-.017-.005-.004-.002h-.001l-.255.82-.255.819h.001l.003.001a.18.18 0 01.015.005l.06.019.24.076a166.118 166.118 0 014.351 1.478 198.275 198.275 0 0111.322 4.419c8.878 3.79 19.368 9.107 26.1 15.266l.58-.634zM65.235 59.7l-.38.77c6.867 3.38 14.516 8.734 20.787 13.278 3.122 2.262 5.915 4.331 8.065 5.827 1.076.748 2.012 1.368 2.764 1.803.375.217.721.398 1.026.527.282.12.621.235.951.235v-1.716c.03 0-.045 0-.282-.1a7.92 7.92 0 01-.835-.432c-.689-.398-1.578-.985-2.644-1.726-2.133-1.483-4.89-3.528-8.037-5.808-6.265-4.539-14.022-9.975-21.036-13.428l-.38.77zm33.213 21.58v.858c.166 0 .338-.04.45-.068.137-.034.297-.082.475-.14a32.17 32.17 0 001.38-.492c1.12-.422 2.652-1.035 4.512-1.8 3.723-1.533 8.788-3.688 14.563-6.179 11.551-4.983 25.958-11.32 38.19-16.737l-.347-.785-.348-.785c-12.23 5.417-26.632 11.751-38.175 16.731-5.773 2.49-10.827 4.64-14.536 6.167a173.833 173.833 0 01-4.465 1.782c-.549.207-.984.363-1.302.466a6.06 6.06 0 01-.365.108c-.108.027-.098.016-.032.016v.858zm59.223-25.343l.338.789 16.406-7.03-.338-.789-.338-.789-16.406 7.03.338.79zm16.406-7.03v.858h130.451V48.05H174.077v.858zm130.451 0l.641.57c2.281-2.562 5.937-6.907 9.507-11.636 3.561-4.716 7.074-9.863 9.035-14.014l-.776-.367-.776-.366c-1.881 3.983-5.304 9.013-8.852 13.713-3.54 4.688-7.166 8.998-9.42 11.53l.641.57zm268.904 97.917l-.252.82c.7.216 1.321-.179 1.712-.512.438-.373.894-.927 1.364-1.601.948-1.358 2.079-3.384 3.366-5.941 2.58-5.126 5.854-12.522 9.634-21.314l-.788-.339-.789-.339c-3.781 8.796-7.036 16.147-9.59 21.22-1.279 2.542-2.365 4.478-3.24 5.731-.441.632-.798 1.045-1.07 1.276-.318.271-.302.115-.095.179l-.252.82zm0 0l-.116.85c3.735.509 15.567.788 29.77.309l-.029-.858-.029-.858c-14.209.48-25.906.193-29.481-.293l-.115.85zm9.458 132.288l-.813.276c1.738 5.107 5.331 13.211 10.481 20.998 5.141 7.772 11.897 15.326 19.998 19.2l.37-.774.37-.775c-7.69-3.678-14.235-10.931-19.307-18.598-5.062-7.654-8.592-15.624-10.287-20.604l-.812.277zm-160.316 222.21l-.695.504 63.624 87.814.695-.504.695-.503-63.624-87.814-.695.503zm196.359 181.355l-.843.159 6.865 36.473.843-.159.844-.159-6.866-36.472-.843.158zm48.487 67.796l.084.854 30.465-3.003-.084-.854-.084-.854-30.465 3.003.084.854zm30.465-3.003l-.399.759c7.032 3.694 18.397 10.743 29.582 19.858 11.195 9.124 22.142 20.266 28.414 32.132l.759-.401.759-.401c-6.429-12.162-17.58-23.476-28.848-32.66-11.278-9.192-22.74-16.303-29.868-20.047l-.399.76zM561.194 878.62l-.053.857c35.741 2.221 57.549 4.409 76.643 3.62 19.155-.791 35.593-4.574 60.679-14.244l-.308-.8-.309-.801c-24.97 9.624-41.218 13.349-60.133 14.131-18.976.784-40.62-1.391-76.466-3.619l-.053.856zm136.961-10.567l.308.8c7.854-3.027 23.275-9.731 38.878-14.858 7.794-2.561 15.595-4.714 22.472-5.809 6.912-1.101 12.748-1.107 16.703.487l.321-.796.321-.796c-4.412-1.778-10.644-1.7-17.615-.59-7.006 1.116-14.904 3.3-22.738 5.874-15.653 5.143-31.206 11.899-38.959 14.887l.309.801zM401.366 469.75l-.713.479 21.209 31.573.712-.479.712-.478-21.208-31.573-.712.478zM139.264 164.011l.553.656 28.887-24.38-.553-.656-.554-.656-28.887 24.38.554.656zm243.294-91.923l.806.294 16.007-43.963-.806-.294-.807-.293-16.006 43.963.806.293zm-155.26 130.69l.85.116 5.602-41.165-.85-.116-.85-.116-5.603 41.165.851.116zm0 0l-.561.649 59.623 51.556.561-.649.562-.649-59.624-51.556-.561.649zm27.576-264.176l.859-.012-.366-27.576-.858.012-.858.011.365 27.576.858-.011zm-39.959 279.762l-.672-.534-40.007 50.357.672.534.672.534 40.007-50.357-.672-.534zm75.607 30.374l-.721-.464-3.601 5.595.721.465.722.464 3.601-5.595-.722-.465zm171.667 139.881l.621-.593-44.418-46.495-.62.593-.621.593 44.417 46.495.621-.593zm12.586-237.398l.718-.469-36.601-55.954-.718.47-.718.47 36.601 55.953.718-.47zm-204.26 123.28l.665.541 16.407-20.167-.666-.541-.665-.542-16.407 20.167.666.542zM384.959 67.293l.646-.566-6.803-7.765-.646.566-.645.565 6.803 7.765.645-.565zm371.282 732.526l-.789.338 20.596 48.058.789-.338.789-.338-20.596-48.058-.789.338zm-130.443-80.668l-.516.686 20.811 15.661.516-.685.516-.686-20.811-15.662-.516.686zm20.811 15.662l-.516.685 20.811 15.662.516-.686.516-.685-20.811-15.662-.516.686zm0 0l-.713-.478c-2.311 3.449-6.297 9.017-10.729 14.489-4.445 5.487-9.288 10.815-13.316 13.836l.515.687.515.686c4.21-3.157 9.164-8.628 13.62-14.129 4.468-5.516 8.484-11.126 10.821-14.614l-.713-.477zM486.198 589.137l-.494.702 55.499 39.111.494-.701.495-.702-55.5-39.111-.494.701zm55.499 39.112l-.494.701 77.236 54.43.494-.702.494-.701-77.235-54.43-.495.702zm0 0l-.816-.266c-1.799 5.53-4.361 14.883-6.217 25.012-1.854 10.112-3.017 21.074-1.971 29.786l.852-.103.852-.102c-1.015-8.451.111-19.209 1.955-29.272 1.841-10.048 4.384-19.328 6.161-24.79l-.816-.265zm-8.152 54.429l-.852.103c1.293 10.776 2.353 18.303 2.3 23.378-.027 2.534-.333 4.335-.95 5.581-.59 1.19-1.483 1.921-2.866 2.291l.222.829.222.829c1.836-.492 3.141-1.534 3.96-3.187.791-1.597 1.101-3.711 1.128-6.325.054-5.221-1.031-12.923-2.312-23.601l-.852.102zm-2.146 32.182l-.222-.829c-.485.13-1.01.027-1.664-.428-.672-.468-1.395-1.253-2.193-2.323-1.615-2.167-3.276-5.121-5.341-8.259-2.023-3.076-4.377-6.229-7.243-8.503-2.888-2.291-6.326-3.712-10.464-3.253l.095.853.094.853c3.586-.398 6.584.81 9.208 2.891 2.644 2.099 4.876 5.062 6.876 8.102 1.958 2.977 3.756 6.138 5.399 8.342.832 1.115 1.687 2.079 2.589 2.706.92.64 1.964.978 3.088.677l-.222-.829zm-27.032-22.742l-.095-.853c-7.769.864-20.15 3.125-30.706 6.033-5.274 1.453-10.13 3.078-13.736 4.785-1.8.853-3.327 1.743-4.444 2.667-1.095.907-1.926 1.952-2.074 3.138l.851.107.852.106c.066-.53.482-1.215 1.465-2.028.962-.795 2.345-1.615 4.085-2.438 3.474-1.645 8.219-3.239 13.457-4.682 10.47-2.885 22.761-5.129 30.439-5.982l-.094-.853zm-50.204 15.877l-.851-.107c-.698 5.583-.291 17.047-.005 22.039l.856-.049.857-.049c-.287-5.02-.68-16.326-.005-21.728l-.852-.106zm0 21.883l-.786-.344-9.011 20.596.787.344.786.344 9.011-20.596-.787-.344zm-32.989 95.533l-.27.815c5.185 1.719 10.715 4.086 16.585 6.881l.369-.775.369-.774c-5.903-2.811-11.504-5.211-16.783-6.961l-.27.814zm16.684 6.921l-.369.775c8.029 3.824 16.656 8.43 25.882 13.254 9.218 4.82 19.02 9.849 29.365 14.496 20.688 9.294 43.581 17.077 68.405 18.62l.053-.857.053-.856c-24.536-1.525-47.216-9.222-67.808-18.472-10.295-4.625-20.06-9.635-29.273-14.452-9.204-4.812-17.872-9.441-25.939-13.282l-.369.774zm7.295-81.858l-.855-.076-7.295 81.858.855.076.855.077 7.294-81.859-.854-.076z" fill="#6D9C6D"/><path d="M787.994 420.077l.15-.845a.892.892 0 00-.051-.007l-.099.852zm101.264 30.036l-.44.737.44-.737zm81.956 27.462l-.042-.857.042.857zm91.396 44.196l.74-.439c-.01-.007-.01-.015-.02-.022l-.72.461zM612.926 318.812l-.37.775c19.61 9.378 41.27 27.885 48.897 51.835l.818-.261.818-.26c-7.82-24.555-29.927-43.362-49.793-52.863l-.37.774zm49.345 52.349l-.818.261c2.002 6.287 6.623 12 13.427 17.151 6.806 5.153 15.846 9.78 26.78 13.887 21.868 8.213 51.445 14.389 86.234 18.47l.1-.853.099-.852c-34.723-4.073-64.146-10.228-85.83-18.372-10.842-4.072-19.717-8.629-26.347-13.648-6.631-5.02-10.968-10.465-12.827-16.304l-.818.26zm125.723 48.916l-.15.845c12.064 2.142 31.606 6.213 50.997 11.462 19.419 5.256 38.589 11.667 49.977 18.466l.44-.737.44-.737c-11.611-6.932-30.987-13.393-50.408-18.649-19.448-5.264-39.039-9.346-51.146-11.495l-.15.845zm101.264 30.036l-.44.737c7.125 4.254 11.963 8.267 16.189 11.87 4.216 3.597 7.881 6.84 12.585 9.438 9.449 5.219 22.96 7.777 53.664 6.274l-.042-.857-.042-.857c-30.656 1.5-43.748-1.09-52.75-6.062-4.521-2.497-8.044-5.61-12.302-9.242-4.249-3.623-9.173-7.71-16.422-12.038l-.44.737zm81.956 27.462l.042.857c48.694-2.384 80.734 28.246 90.634 43.8l.72-.461.72-.461c-10.12-15.913-42.68-47.014-92.158-44.592l.042.857zM776.837 847.877l-.321.796c7.15 2.881 13.583 6.112 19.775 9.219 6.181 3.102 12.133 6.087 18.267 8.44 12.312 4.722 25.366 6.898 42.727 2.553l-.208-.832-.209-.833c-16.965 4.246-29.657 2.126-41.696-2.491-6.041-2.317-11.916-5.262-18.111-8.371-6.185-3.104-12.678-6.365-19.903-9.277l-.321.796zm80.24 20.176l.208.832c8.722-2.183 17.509-6.995 26.99-12.915 9.524-5.946 19.717-12.986 31.428-19.793 23.355-13.576 52.491-26.06 92.837-26.06v-1.716c-40.742 0-70.177 12.619-93.7 26.292-11.728 6.817-22.05 13.938-31.474 19.821-9.465 5.91-18.056 10.594-26.498 12.706l.209.833zm151.463-58.794v.858c32.6 0 82.1-12.773 130.64-28.684 48.58-15.922 96.32-35.026 125.44-47.765l-.34-.786-.34-.787c-29.09 12.721-76.78 31.805-125.3 47.707-48.55 15.914-97.81 28.599-130.1 28.599v.858zm54.07-287.488l-.74.439c9.21 15.463 27.56 38.568 52.74 57.731 25.18 19.164 57.26 34.429 93.9 34.083l-.01-.858-.01-.858c-36.14.341-67.85-14.716-92.84-33.733-24.99-19.019-43.2-41.955-52.3-57.243l-.74.439zm145.89 91.395l.01.858c36.42-.343 60.23-3.278 75.21-6.824 7.49-1.772 12.8-3.704 16.38-5.557 1.8-.927 3.17-1.843 4.18-2.725 1-.874 1.68-1.754 2-2.619l-.81-.296-.8-.297c-.18.494-.64 1.149-1.52 1.921-.87.765-2.13 1.608-3.83 2.492-3.42 1.767-8.58 3.658-15.99 5.411-14.81 3.506-38.49 6.435-74.84 6.778l.01.858z" fill="url(#paint0_linear_1_458)"/><path d="M-56.45 807.114c17.163-7.009 63.676-14.675 112.42 10.727 60.931 31.752 114.567 7.294 143.315 4.72 28.749-2.575 88.822 21.454 138.167 8.153 39.476-10.642 68.654-10.298 83.722-5.303 5.232 1.735 10.798 4.118 16.684 6.921" stroke="url(#paint1_linear_1_458)" stroke-width="1.716"/><path d="M401.366 469.75l.712-.478a.837.837 0 00-.068-.089l-.644.567zm21.208 31.573l-.712.479a.369.369 0 00.017.025l.695-.504zm-32.169-45.328a.858.858 0 00-1.289 1.134l.645-.567.644-.567zm95.793 133.142l-.695.504a.879.879 0 00.201.198l.494-.702zm132.735 93.541l.843-.158a.853.853 0 00-.349-.543l-.494.701zm6.865 36.473l-.843.159c.04.21.156.398.327.527l.516-.686zm41.622 31.323l-.516.686a.86.86 0 00.6.168l-.084-.854zm30.465-3.003l.399-.76a.851.851 0 00-.483-.094l.084.854zm58.356 52.348l.789-.338a.9.9 0 00-.03-.063l-.759.401zM561.194 878.62l.054-.856-.054.856zm136.961-10.568l.308.801-.308-.801zm78.682-20.175l-.32.796 1.928.777-.819-1.911-.789.338zM533.545 682.678l.852-.102-.852.102zm-79.382 47.2l.787.344.082-.188-.012-.205-.857.049zm-9.01 20.596l-.787-.344-.056.129-.012.139.855.076zm-7.295 81.858l-.855-.076-.053.595.539.256.369-.775zm-15.284-331.009l-.695.504 63.624 87.814.695-.504.695-.503-63.624-87.814-.695.503zm196.359 181.355l-.843.159 6.865 36.473.843-.159.844-.159-6.866-36.472-.843.158zm48.487 67.796l.084.854 30.465-3.003-.084-.854-.084-.854-30.465 3.003.084.854zm30.465-3.003l-.399.759c7.032 3.694 18.397 10.742 29.582 19.858 11.195 9.124 22.142 20.266 28.414 32.132l.759-.401.759-.401c-6.429-12.162-17.58-23.476-28.848-32.66-11.277-9.192-22.74-16.303-29.868-20.047l-.399.76zM561.194 878.62l-.053.857c35.741 2.221 57.549 4.409 76.643 3.62 19.155-.791 35.593-4.575 60.679-14.244l-.308-.801-.309-.8c-24.97 9.624-41.218 13.349-60.133 14.131-18.976.784-40.62-1.391-76.465-3.619l-.054.856zm136.961-10.568l.308.801c7.854-3.027 23.275-9.731 38.878-14.858 7.794-2.561 15.595-4.714 22.472-5.809 6.912-1.101 12.748-1.107 16.704.487l.32-.796.321-.796c-4.412-1.778-10.644-1.7-17.615-.59-7.006 1.116-14.904 3.3-22.738 5.874-15.653 5.143-31.206 11.898-38.959 14.887l.309.8zM401.366 469.75l-.713.479 21.209 31.573.712-.479.712-.478-21.208-31.573-.712.478zm354.875 330.069l-.789.338 20.597 48.058.788-.338.789-.338-20.596-48.058-.789.338zm-130.443-80.668l-.516.686 20.811 15.661.516-.686.516-.685-20.81-15.662-.517.686zm20.811 15.661l-.516.686 20.811 15.662.516-.686.516-.685-20.811-15.662-.516.685zm0 0l-.713-.477c-2.311 3.449-6.297 9.017-10.729 14.489-4.445 5.487-9.288 10.815-13.316 13.836l.515.687.515.686c4.21-3.157 9.164-8.628 13.62-14.129 4.468-5.516 8.484-11.126 10.821-14.614l-.713-.478zm-24.243 28.535l-.515-.687c-4.181 3.136-15.029 13.594-25.12 23.746-5.058 5.089-9.946 10.12-13.741 14.15a237.664 237.664 0 00-4.764 5.183c-1.222 1.38-2.114 2.456-2.498 3.061l.725.459.725.459c.297-.467 1.091-1.438 2.333-2.841a239.031 239.031 0 014.729-5.145c3.781-4.015 8.657-9.035 13.708-14.116 10.126-10.187 20.875-20.539 24.933-23.583l-.515-.686zm-136.168-174.21l-.494.702 55.499 39.111.494-.701.495-.702-55.5-39.111-.494.701zm55.499 39.112l-.494.701 77.236 54.43.494-.702.494-.701-77.235-54.43-.495.702zm0 0l-.816-.266c-1.799 5.53-4.361 14.883-6.217 25.011-1.854 10.113-3.017 21.075-1.971 29.787l.852-.103.852-.102c-1.014-8.451.111-19.209 1.955-29.272 1.841-10.048 4.384-19.328 6.161-24.79l-.816-.265zm-8.152 54.429l-.852.103c1.293 10.776 2.353 18.303 2.3 23.378-.027 2.534-.333 4.335-.95 5.581-.589 1.19-1.483 1.921-2.866 2.291l.222.829.222.829c1.836-.492 3.141-1.534 3.96-3.187.791-1.597 1.101-3.711 1.128-6.325.055-5.222-1.031-12.923-2.312-23.601l-.852.102zm-2.146 32.182l-.222-.829c-.485.13-1.01.027-1.664-.428-.672-.468-1.395-1.253-2.193-2.323-1.615-2.167-3.276-5.121-5.341-8.259-2.023-3.076-4.377-6.229-7.243-8.503-2.888-2.291-6.326-3.712-10.464-3.253l.095.853.094.853c3.586-.398 6.585.81 9.208 2.891 2.644 2.099 4.876 5.062 6.876 8.102 1.958 2.977 3.756 6.138 5.399 8.342.832 1.115 1.687 2.078 2.589 2.706.92.64 1.964.978 3.088.677l-.222-.829zm-27.032-22.742l-.095-.853c-7.769.864-20.15 3.125-30.706 6.033-5.274 1.453-10.13 3.078-13.736 4.785-1.8.853-3.326 1.743-4.444 2.667-1.095.907-1.926 1.952-2.074 3.138l.851.107.852.106c.066-.53.482-1.215 1.465-2.028.962-.796 2.345-1.615 4.085-2.438 3.474-1.645 8.219-3.239 13.457-4.682 10.47-2.885 22.761-5.129 30.439-5.982l-.094-.853zm-50.204 15.877l-.851-.107c-.698 5.583-.291 17.047-.005 22.039l.856-.049.857-.049c-.287-5.02-.68-16.326-.005-21.728l-.852-.106zm0 21.883l-.786-.344-9.011 20.596.787.344.786.344 9.011-20.596-.787-.344zm-16.305 102.454l-.369.775c8.029 3.824 16.656 8.43 25.882 13.254 9.218 4.82 19.02 9.849 29.365 14.496 20.688 9.294 43.581 17.077 68.405 18.62l.053-.857.054-.856c-24.537-1.525-47.216-9.222-67.809-18.472-10.295-4.625-20.06-9.635-29.273-14.452-9.204-4.812-17.872-9.441-25.939-13.283l-.369.775zm7.295-81.858l-.855-.076-7.295 81.858.855.076.855.076 7.294-81.858-.854-.076zM401.366 469.75l.644-.567-11.605-13.188-.644.567-.645.567 11.606 13.188.644-.567z" fill="#fff"/><path fill="url(#paint2_linear_1_458)" d="M-38 0h1200.59v189.657H-38z"/></g><defs><linearGradient id="paint0_linear_1_458" x1="563.581" y1="423.939" x2="1263.42" y2="611.461" gradientUnits="userSpaceOnUse"><stop stop-color="#6D9C6D"/><stop offset="1" stop-color="#6D9C6D" stop-opacity="0"/></linearGradient><linearGradient id="paint1_linear_1_458" x1="-38.858" y1="817.525" x2="437.858" y2="817.525" gradientUnits="userSpaceOnUse"><stop stop-color="#6D9C6D" stop-opacity="0"/><stop offset=".5" stop-color="#6D9C6D" stop-opacity=".25"/><stop offset="1" stop-color="#6D9C6D"/></linearGradient><linearGradient id="paint2_linear_1_458" x1="371.779" y1="0" x2="371.779" y2="189.657" gradientUnits="userSpaceOnUse"><stop stop-color="#2B702B"/><stop offset="1" stop-color="#2B702B" stop-opacity="0"/></linearGradient><clipPath id="clip0_1_458"><path fill="#fff" d="M0 0h1244v895H0z"/></clipPath></defs></svg>